  0
SECTION
  2
HEADER
  9
$ACADVER
  1
AC1015
  9
$ACADMAINTVER
 70
     6
  9
$DWGCODEPAGE
  3
ANSI_1252
  9
$INSBASE
 10
0.0
 20
0.0
 30
0.0
  9
$EXTMIN
 10
0.0
 20
0.0
 30
0.0
  9
$EXTMAX
 10
720.0
 20
420.0
 30
0.0
  9
$LIMMIN
 10
0.0
 20
0.0
  9
$LIMMAX
 10
720.0
 20
420.0
  9
$ORTHOMODE
 70
     0
  9
$REGENMODE
 70
     1
  9
$FILLMODE
 70
     1
  9
$QTEXTMODE
 70
     0
  9
$MIRRTEXT
 70
     1
  9
$LTSCALE
 40
1.0
  9
$ATTMODE
 70
     1
  9
$TEXTSIZE
 40
3.5
  9
$TRACEWID
 40
1.0
  9
$TEXTSTYLE
  7
Standard
  9
$CLAYER
  8
0
  9
$CELTYPE
  6
ByLayer
  9
$CECOLOR
 62
   256
  9
$CELTSCALE
 40
1.0
  9
$DISPSILH
 70
     0
  9
$DIMSCALE
 40
1.0
  9
$DIMASZ
 40
3.302
  9
$DIMEXO
 40
1.0
  9
$DIMDLI
 40
3.75
  9
$DIMRND
 40
0.0
  9
$DIMDLE
 40
0.0
  9
$DIMEXE
 40
1.0
  9
$DIMTP
 40
0.0
  9
$DIMTM
 40
0.0
  9
$DIMTXT
 40
3.5
  9
$DIMCEN
 40
2.5
  9
$DIMTSZ
 40
0.0
  9
$DIMTOL
 70
     0
  9
$DIMLIM
 70
     0
  9
$DIMTIH
 70
     1
  9
$DIMTOH
 70
     1
  9
$DIMSE1
 70
     0
  9
$DIMSE2
 70
     0
  9
$DIMTAD
 70
     1
  9
$DIMZIN
 70
     0
  9
$DIMBLK
  1

  9
$DIMASO
 70
     1
  9
$DIMSHO
 70
     1
  9
$DIMPOST
  1

  9
$DIMAPOST
  1

  9
$DIMALT
 70
     0
  9
$DIMALTD
 70
     3
  9
$DIMALTF
 40
0.0393700787
  9
$DIMLFAC
 40
0.5
  9
$DIMTOFL
 70
     1
  9
$DIMTVP
 40
0.0
  9
$DIMTIX
 70
     0
  9
$DIMSOXD
 70
     0
  9
$DIMSAH
 70
     0
  9
$DIMBLK1
  1

  9
$DIMBLK2
  1

  9
$DIMSTYLE
  2
ISO-25
  9
$DIMCLRD
 70
     0
  9
$DIMCLRE
 70
     0
  9
$DIMCLRT
 70
     0
  9
$DIMTFAC
 40
1.0
  9
$DIMGAP
 40
1.524
  9
$DIMJUST
 70
     0
  9
$DIMSD1
 70
     0
  9
$DIMSD2
 70
     0
  9
$DIMTOLJ
 70
     0
  9
$DIMTZIN
 70
     0
  9
$DIMALTZ
 70
     0
  9
$DIMALTTZ
 70
     0
  9
$DIMUPT
 70
     0
  9
$DIMDEC
 70
     2
  9
$DIMTDEC
 70
     2
  9
$DIMALTU
 70
     2
  9
$DIMALTTD
 70
     3
  9
$DIMTXSTY
  7
Standard
  9
$DIMAUNIT
 70
     0
  9
$DIMADEC
 70
     2
  9
$DIMALTRND
 40
0.0
  9
$DIMAZIN
 70
     0
  9
$DIMDSEP
 70
    44
  9
$DIMATFIT
 70
     3
  9
$DIMFRAC
 70
     0
  9
$DIMLDRBLK
  1

  9
$DIMLUNIT
 70
     2
  9
$DIMLWD
 70
    -2
  9
$DIMLWE
 70
    -2
  9
$DIMTMOVE
 70
     0
  9
$LUNITS
 70
     2
  9
$LUPREC
 70
     2
  9
$SKETCHINC
 40
1.0
  9
$FILLETRAD
 40
10.0
  9
$AUNITS
 70
     0
  9
$AUPREC
 70
     2
  9
$MENU
  1
.
  9
$ELEVATION
 40
0.0
  9
$PELEVATION
 40
0.0
  9
$THICKNESS
 40
0.0
  9
$LIMCHECK
 70
     0
  9
$CHAMFERA
 40
0.0
  9
$CHAMFERB
 40
0.0
  9
$CHAMFERC
 40
0.0
  9
$CHAMFERD
 40
0.0
  9
$SKPOLY
 70
     0
  9
$TDCREATE
 40
2457735.498771146
  9
$TDUCREATE
 40
2457735.498771146
  9
$TDUPDATE
 40
2457735.498771725
  9
$TDUUPDATE
 40
2457735.498771725
  9
$TDINDWG
 40
0.0000000116
  9
$TDUSRTIMER
 40
0.0000000116
  9
$USRTIMER
 70
     1
  9
$ANGBASE
 50
0.0
  9
$ANGDIR
 70
     0
  9
$PDMODE
 70
     0
  9
$PDSIZE
 40
-1.0
  9
$PLINEWID
 40
0.0
  9
$SPLFRAME
 70
     0
  9
$SPLINETYPE
 70
     6
  9
$SPLINESEGS
 70
     8
  9
$HANDSEED
  5
1CA
  9
$SURFTAB1
 70
     6
  9
$SURFTAB2
 70
     6
  9
$SURFTYPE
 70
     6
  9
$SURFU
 70
     6
  9
$SURFV
 70
     6
  9
$UCSBASE
  2

  9
$UCSNAME
  2

  9
$UCSORG
 10
0.0
 20
0.0
 30
0.0
  9
$UCSXDIR
 10
1.0
 20
0.0
 30
0.0
  9
$UCSYDIR
 10
0.0
 20
1.0
 30
0.0
  9
$UCSORTHOREF
  2

  9
$UCSORTHOVIEW
 70
     0
  9
$UCSORGTOP
 10
0.0
 20
0.0
 30
0.0
  9
$UCSORGBOTTOM
 10
0.0
 20
0.0
 30
0.0
  9
$UCSORGLEFT
 10
0.0
 20
0.0
 30
0.0
  9
$UCSORGRIGHT
 10
0.0
 20
0.0
 30
0.0
  9
$UCSORGFRONT
 10
0.0
 20
0.0
 30
0.0
  9
$UCSORGBACK
 10
0.0
 20
0.0
 30
0.0
  9
$PUCSBASE
  2

  9
$PUCSNAME
  2

  9
$PUCSORG
 10
0.0
 20
0.0
 30
0.0
  9
$PUCSXDIR
 10
1.0
 20
0.0
 30
0.0
  9
$PUCSYDIR
 10
0.0
 20
1.0
 30
0.0
  9
$PUCSORTHOREF
  2

  9
$PUCSORTHOVIEW
 70
     0
  9
$PUCSORGTOP
 10
0.0
 20
0.0
 30
0.0
  9
$PUCSORGBOTTOM
 10
0.0
 20
0.0
 30
0.0
  9
$PUCSORGLEFT
 10
0.0
 20
0.0
 30
0.0
  9
$PUCSORGRIGHT
 10
0.0
 20
0.0
 30
0.0
  9
$PUCSORGFRONT
 10
0.0
 20
0.0
 30
0.0
  9
$PUCSORGBACK
 10
0.0
 20
0.0
 30
0.0
  9
$USERI1
 70
     0
  9
$USERI2
 70
     0
  9
$USERI3
 70
     0
  9
$USERI4
 70
     0
  9
$USERI5
 70
     0
  9
$USERR1
 40
0.0
  9
$USERR2
 40
0.0
  9
$USERR3
 40
0.0
  9
$USERR4
 40
0.0
  9
$USERR5
 40
0.0
  9
$WORLDVIEW
 70
     1
  9
$SHADEDGE
 70
     3
  9
$SHADEDIF
 70
    70
  9
$TILEMODE
 70
     1
  9
$MAXACTVP
 70
    64
  9
$PINSBASE
 10
0.0
 20
0.0
 30
0.0
  9
$PLIMCHECK
 70
     0
  9
$PEXTMIN
 10
1.0000000000E+20
 20
1.0000000000E+20
 30
1.0000000000E+20
  9
$PEXTMAX
 10
-1.0000000000E+20
 20
-1.0000000000E+20
 30
-1.0000000000E+20
  9
$PLIMMIN
 10
0.0
 20
0.0
  9
$PLIMMAX
 10
420.0
 20
297.0
  9
$UNITMODE
 70
     0
  9
$VISRETAIN
 70
     1
  9
$PLINEGEN
 70
     0
  9
$PSLTSCALE
 70
     1
  9
$TREEDEPTH
 70
  3020
  9
$CMLSTYLE
  2
Standard
  9
$CMLJUST
 70
     0
  9
$CMLSCALE
 40
20.0
  9
$PROXYGRAPHICS
 70
     1
  9
$MEASUREMENT
 70
     1
  9
$CELWEIGHT
370
    -1
  9
$ENDCAPS
280
     0
  9
$JOINSTYLE
280
     0
  9
$LWDISPLAY
290
     1
  9
$INSUNITS
 70
     4
  9
$HYPERLINKBASE
  1

  9
$STYLESHEET
  1

  9
$XEDIT
290
     1
  9
$CEPSNTYPE
380
     0
  9
$PSTYLEMODE
290
     1
  9
$FINGERPRINTGUID
  2
{BD7BF695-38A3-436A-8004-8B518FFC20F6}
  9
$VERSIONGUID
  2
{FAEB1C32-E019-11D5-929B-00C0DF256EC4}
  9
$EXTNAMES
290
     1
  9
$PSVPSCALE
 40
0.0
  9
$OLESTARTUP
290
     0
  0
ENDSEC
  0
SECTION
  2
CLASSES
  0
CLASS
  1
ACDBDICTIONARYWDFLT
  2
AcDbDictionaryWithDefault
  3
ObjectDBX Classes
 90
        0
280
     0
281
     0
  0
CLASS
  1
VISUALSTYLE
  2
AcDbVisualStyle
  3
ObjectDBX Classes
 90
     4095
280
     0
281
     0
  0
CLASS
  1
MATERIAL
  2
AcDbMaterial
  3
ObjectDBX Classes
 90
     1153
280
     0
281
     0
  0
CLASS
  1
SCALE
  2
AcDbScale
  3
ObjectDBX Classes
 90
     1153
280
     0
281
     0
  0
CLASS
  1
TABLESTYLE
  2
AcDbTableStyle
  3
ObjectDBX Classes
 90
     4095
280
     0
281
     0
  0
CLASS
  1
MLEADERSTYLE
  2
AcDbMLeaderStyle
  3
ACDB_MLEADERSTYLE_CLASS
 90
     4095
280
     0
281
     0
  0
CLASS
  1
SUN
  2
AcDbSun
  3
SCENEOE
 90
     1153
280
     0
281
     0
  0
CLASS
  1
ACDBPLACEHOLDER
  2
AcDbPlaceHolder
  3
ObjectDBX Classes
 90
        0
280
     0
281
     0
  0
CLASS
  1
LAYOUT
  2
AcDbLayout
  3
ObjectDBX Classes
 90
        0
280
     0
281
     0
  0
ENDSEC
  0
SECTION
  2
TABLES
  0
TABLE
  2
VPORT
  5
8
330
0
100
AcDbSymbolTable
 70
     1
  0
VPORT
  5
29
330
8
100
AcDbSymbolTableRecord
100
AcDbViewportTableRecord
  2
*Active
 70
     0
 10
0.0
 20
0.0
 11
1.0
 21
1.0
 12
360.0
 22
210.0
 13
0.0
 23
0.0
 14
10.0
 24
10.0
 15
10.0
 25
10.0
 16
0.0
 26
0.0
 36
1.0
 17
0.0
 27
0.0
 37
0.0
 40
420.0
 41
1.7142857143
 42
50.0
 43
0.0
 44
0.0
 50
0.0
 51
0.0
 71
     0
 72
  2000
 73
     1
 74
     3
 75
     0
 76
     0
 77
     0
 78
     0
281
     0
 65
     1
110
0.0
120
0.0
130
0.0
111
1.0
121
0.0
131
0.0
112
0.0
122
1.0
132
0.0
 79
     0
146
0.0
  0
ENDTAB
  0
TABLE
  2
LTYPE
  5
5
330
0
100
AcDbSymbolTable
 70
     6
  0
LTYPE
  5
14
330
5
100
AcDbSymbolTableRecord
100
AcDbLinetypeTableRecord
  2
ByBlock
 70
     0
  3

 72
    65
 73
     0
 40
0.0
  0
LTYPE
  5
15
330
5
100
AcDbSymbolTableRecord
100
AcDbLinetypeTableRecord
  2
ByLayer
 70
     0
  3

 72
    65
 73
     0
 40
0.0
  0
LTYPE
  5
16
330
5
100
AcDbSymbolTableRecord
100
AcDbLinetypeTableRecord
  2
Continuous
 70
     0
  3
Solid line
 72
    65
 73
     0
 40
0.0
  0
LTYPE
  5
6E
330
5
100
AcDbSymbolTableRecord
100
AcDbLinetypeTableRecord
  2
HIDDEN
 70
     0
  3
Hidden __ __ __ __ __ __ __ __ __ __ __ __ __ __
 72
    65
 73
     2
 40
1.905
 49
1.27
 74
     0
 49
-0.635
 74
     0
  0
LTYPE
  5
6F
330
5
100
AcDbSymbolTableRecord
100
AcDbLinetypeTableRecord
  2
PHANTOM
 70
     0
  3
Phantom ______  __  __  ______  __  __  ______
 72
    65
 73
     6
 40
12.7
 49
6.35
 74
     0
 49
-1.27
 74
     0
 49
1.27
 74
     0
 49
-1.27
 74
     0
 49
1.27
 74
     0
 49
-1.27
 74
     0
  0
LTYPE
  5
70
330
5
100
AcDbSymbolTableRecord
100
AcDbLinetypeTableRecord
  2
CENTER
 70
     0
  3
Center ____ _ ____ _ ____ _ ____ _ ____ _ ____
 72
    65
 73
     4
 40
10.16
 49
6.35
 74
     0
 49
-1.27
 74
     0
 49
1.27
 74
     0
 49
-1.27
 74
     0
  0
LTYPE
  5
71
330
5
100
AcDbSymbolTableRecord
100
AcDbLinetypeTableRecord
  2
CENTERX2
 70
     0
  3
Center (2x) ________  __  ________  __  _____
 72
    65
 73
     4
 40
20.32
 49
12.7
 74
     0
 49
-2.54
 74
     0
 49
2.54
 74
     0
 49
-2.54
 74
     0
  0
LTYPE
  5
72
330
5
100
AcDbSymbolTableRecord
100
AcDbLinetypeTableRecord
  2
DOT2
 70
     0
  3
Dot (.5x) ........................................
 72
    65
 73
     2
 40
0.635
 49
0.0
 74
     0
 49
-0.635
 74
     0
  0
ENDTAB
  0
TABLE
  2
LAYER
  5
2
330
0
100
AcDbSymbolTable
 70
     1
  0
LAYER
  5
10
330
2
100
AcDbSymbolTableRecord
100
AcDbLayerTableRecord
  2
0
 70
     0
 62
     7
  6
Continuous
370
    -3
390
F
  0
ENDTAB
  0
TABLE
  2
STYLE
  5
3
330
0
100
AcDbSymbolTable
 70
     1
  0
STYLE
  5
11
330
3
100
AcDbSymbolTableRecord
100
AcDbTextStyleTableRecord
  2
Standard
 70
     0
 40
0.0
 41
1.0
 50
0.0
 71
     0
 42
3.5
  3
txt
  4

  0
ENDTAB
  0
TABLE
  2
VIEW
  5
6
330
0
100
AcDbSymbolTable
 70
     0
  0
ENDTAB
  0
TABLE
  2
UCS
  5
7
330
0
100
AcDbSymbolTable
 70
     0
  0
ENDTAB
  0
TABLE
  2
APPID
  5
9
330
0
100
AcDbSymbolTable
 70
     1
  0
APPID
  5
12
330
9
100
AcDbSymbolTableRecord
100
AcDbRegAppTableRecord
  2
ACAD
 70
     0
  0
ENDTAB
  0
TABLE
  2
DIMSTYLE
  5
A
330
0
100
AcDbSymbolTable
 70
     1
100
AcDbDimStyleTable
  0
DIMSTYLE
105
27
330
A
100
AcDbSymbolTableRecord
100
AcDbDimStyleTableRecord
  2
ISO-25
 70
     0
 41
2.5
 42
0.625
 43
3.75
 44
1.25
 73
     0
 74
     0
 77
     1
 78
     8
140
2.5
141
2.5
143
0.0393700787
147
0.625
171
     3
172
     1
178
     0
271
     2
272
     2
274
     3
278
    44
283
     0
284
     8
340
11
  0
ENDTAB
  0
TABLE
  2
BLOCK_RECORD
  5
1
330
0
100
AcDbSymbolTable
 70
     1
  0
BLOCK_RECORD
  5
1F
330
1
100
AcDbSymbolTableRecord
100
AcDbBlockTableRecord
  2
*Model_Space
340
22
  0
BLOCK_RECORD
  5
1B
330
1
100
AcDbSymbolTableRecord
100
AcDbBlockTableRecord
  2
*Paper_Space
340
1E
  0
BLOCK_RECORD
  5
23
330
1
100
AcDbSymbolTableRecord
100
AcDbBlockTableRecord
  2
*Paper_Space0
340
26
  0
ENDTAB
  0
ENDSEC
  0
SECTION
  2
BLOCKS
  0
BLOCK
  5
20
330
1F
100
AcDbEntity
  8
0
100
AcDbBlockBegin
  2
*Model_Space
 70
     0
 10
0.0
 20
0.0
 30
0.0
  3
*Model_Space
  1

  0
ENDBLK
  5
21
330
1F
100
AcDbEntity
  8
0
100
AcDbBlockEnd
  0
BLOCK
  5
1C
330
1B
100
AcDbEntity
 67
     1
  8
0
100
AcDbBlockBegin
  2
*Paper_Space
 70
     0
 10
0.0
 20
0.0
 30
0.0
  3
*Paper_Space
  1

  0
ENDBLK
  5
1D
330
1B
100
AcDbEntity
 67
     1
  8
0
100
AcDbBlockEnd
  0
BLOCK
  5
24
330
23
100
AcDbEntity
  8
0
100
AcDbBlockBegin
  2
*Paper_Space0
 70
     0
 10
0.0
 20
0.0
 30
0.0
  3
*Paper_Space0
  1

  0
ENDBLK
  5
25
330
23
100
AcDbEntity
  8
0
100
AcDbBlockEnd
  0
ENDSEC
  0
SECTION
  2
ENTITIES
  0
CIRCLE
  5
73
330
1F
100
AcDbEntity
  8
0
  6
Continuous
 62
     7
370
    15
100
AcDbCircle
 10
306.354227585
 20
116.9450954335
 30
0.0
 40
9.5
  0
LINE
  5
74
330
1F
100
AcDbEntity
  8
0
  6
Continuous
 62
     7
370
    15
100
AcDbLine
 10
317.354227585
 20
110.9450954335
 30
0.0
 11
326.354227585
 21
110.9450954335
 31
0.0
  0
LINE
  5
75
330
1F
100
AcDbEntity
  8
0
  6
Continuous
 62
     7
370
    15
100
AcDbLine
 10
317.354227585
 20
106.7470564063
 30
0.0
 11
317.354227585
 21
110.9450954335
 31
0.0
  0
ARC
  5
76
330
1F
100
AcDbEntity
  8
0
  6
Continuous
 62
     7
370
    15
100
AcDbCircle
 10
306.354227585
 20
116.9450954335
 30
0.0
 40
15.00000000000004
100
AcDbArc
 50
222.8334280661
 51
317.1665719339
  0
LINE
  5
77
330
1F
100
AcDbEntity
  8
0
  6
Continuous
 62
     7
370
    15
100
AcDbLine
 10
295.354227585
 20
110.9450954335
 30
0.0
 11
295.354227585
 21
106.7470564063
 31
0.0
  0
LINE
  5
78
330
1F
100
AcDbEntity
  8
0
  6
Continuous
 62
     7
370
    15
100
AcDbLine
 10
286.354227585
 20
110.9450954335
 30
0.0
 11
295.354227585
 21
110.9450954335
 31
0.0
  0
LINE
  5
79
330
1F
100
AcDbEntity
  8
0
  6
Continuous
 62
     7
370
    15
100
AcDbLine
 10
286.354227585
 20
122.9450954335
 30
0.0
 11
286.354227585
 21
110.9450954335
 31
0.0
  0
LINE
  5
7A
330
1F
100
AcDbEntity
  8
0
  6
Continuous
 62
     7
370
    15
100
AcDbLine
 10
295.354227585
 20
122.9450954335
 30
0.0
 11
286.354227585
 21
122.9450954335
 31
0.0
  0
LINE
  5
7B
330
1F
100
AcDbEntity
  8
0
  6
Continuous
 62
     7
370
    15
100
AcDbLine
 10
295.354227585
 20
127.1431344607
 30
0.0
 11
295.354227585
 21
122.9450954335
 31
0.0
  0
ARC
  5
7C
330
1F
100
AcDbEntity
  8
0
  6
Continuous
 62
     7
370
    15
100
AcDbCircle
 10
306.354227585
 20
116.9450954335
 30
0.0
 40
15.00000000000004
100
AcDbArc
 50
42.8334280661
 51
137.1665719339
  0
LINE
  5
7D
330
1F
100
AcDbEntity
  8
0
  6
Continuous
 62
     7
370
    15
100
AcDbLine
 10
317.354227585
 20
122.9450954335
 30
0.0
 11
317.354227585
 21
127.1431344607
 31
0.0
  0
LINE
  5
7E
330
1F
100
AcDbEntity
  8
0
  6
Continuous
 62
     7
370
    15
100
AcDbLine
 10
326.354227585
 20
122.9450954335
 30
0.0
 11
317.354227585
 21
122.9450954335
 31
0.0
  0
LINE
  5
7F
330
1F
100
AcDbEntity
  8
0
  6
Continuous
 62
     7
370
    15
100
AcDbLine
 10
326.354227585
 20
110.9450954335
 30
0.0
 11
326.354227585
 21
122.9450954335
 31
0.0
  0
CIRCLE
  5
80
330
1F
100
AcDbEntity
  8
0
  6
Continuous
 62
     7
370
    15
100
AcDbCircle
 10
291.354227585
 20
116.9450954335
 30
0.0
 40
2.000000000000014
  0
CIRCLE
  5
81
330
1F
100
AcDbEntity
  8
0
  6
Continuous
 62
     7
370
    15
100
AcDbCircle
 10
321.354227585
 20
116.9450954335
 30
0.0
 40
2.000000000000014
  0
CIRCLE
  5
82
330
1F
100
AcDbEntity
  8
0
  6
Continuous
 62
     7
370
    15
100
AcDbCircle
 10
243.72027071
 20
118.674972361
 30
0.0
 40
2.0
  0
LINE
  5
83
330
1F
100
AcDbEntity
  8
0
  6
Continuous
 62
     7
370
    15
100
AcDbLine
 10
224.22027071
 20
119.674972361
 30
0.0
 11
224.22027071
 21
117.674972361
 31
0.0
  0
LINE
  5
84
330
1F
100
AcDbEntity
  8
0
  6
Continuous
 62
     7
370
    15
100
AcDbLine
 10
224.22027071
 20
117.674972361
 30
0.0
 11
239.22027071
 21
117.674972361
 31
0.0
  0
LINE
  5
85
330
1F
100
AcDbEntity
  8
0
  6
Continuous
 62
     7
370
    15
100
AcDbLine
 10
239.22027071
 20
117.674972361
 30
0.0
 11
239.22027071
 21
119.674972361
 31
0.0
  0
LINE
  5
86
330
1F
100
AcDbEntity
  8
0
  6
Continuous
 62
     7
370
    15
100
AcDbLine
 10
239.22027071
 20
119.674972361
 30
0.0
 11
224.22027071
 21
119.674972361
 31
0.0
  0
LINE
  5
87
330
1F
100
AcDbEntity
  8
0
  6
Continuous
 62
     7
370
    15
100
AcDbLine
 10
243.72027071
 20
122.674972361
 30
0.0
 11
219.72027071
 21
122.674972361
 31
0.0
  0
ARC
  5
88
330
1F
100
AcDbEntity
  8
0
  6
Continuous
 62
     7
370
    15
100
AcDbCircle
 10
243.72027071
 20
118.674972361
 30
0.0
 40
4.000000000000014
100
AcDbArc
 50
270.0
 51
90.0
  0
LINE
  5
89
330
1F
100
AcDbEntity
  8
0
  6
Continuous
 62
     7
370
    15
100
AcDbLine
 10
219.72027071
 20
114.674972361
 30
0.0
 11
243.72027071
 21
114.674972361
 31
0.0
  0
ARC
  5
8A
330
1F
100
AcDbEntity
  8
0
  6
Continuous
 62
     7
370
    15
100
AcDbCircle
 10
219.72027071
 20
118.674972361
 30
0.0
 40
4.000000000000014
100
AcDbArc
 50
90.0
 51
270.0
  0
CIRCLE
  5
8B
330
1F
100
AcDbEntity
  8
0
  6
Continuous
 62
     7
370
    15
100
AcDbCircle
 10
219.72027071
 20
118.674972361
 30
0.0
 40
2.0
  0
CIRCLE
  5
8C
330
1F
100
AcDbEntity
  8
0
  6
Continuous
 62
     7
370
    15
100
AcDbCircle
 10
278.1269414662
 20
117.8768185038
 30
0.0
 40
2.000000000000057
  0
LINE
  5
8D
330
1F
100
AcDbEntity
  8
0
  6
Continuous
 62
     7
370
    15
100
AcDbLine
 10
258.6269414662
 20
118.8768185038
 30
0.0
 11
258.6269414662
 21
116.8768185038
 31
0.0
  0
LINE
  5
8E
330
1F
100
AcDbEntity
  8
0
  6
Continuous
 62
     7
370
    15
100
AcDbLine
 10
258.6269414662
 20
116.8768185038
 30
0.0
 11
273.6269414662
 21
116.8768185038
 31
0.0
  0
LINE
  5
8F
330
1F
100
AcDbEntity
  8
0
  6
Continuous
 62
     7
370
    15
100
AcDbLine
 10
273.6269414662
 20
116.8768185038
 30
0.0
 11
273.6269414662
 21
118.8768185038
 31
0.0
  0
LINE
  5
90
330
1F
100
AcDbEntity
  8
0
  6
Continuous
 62
     7
370
    15
100
AcDbLine
 10
273.6269414662
 20
118.8768185038
 30
0.0
 11
258.6269414662
 21
118.8768185038
 31
0.0
  0
LINE
  5
91
330
1F
100
AcDbEntity
  8
0
  6
Continuous
 62
     7
370
    15
100
AcDbLine
 10
278.1269414662
 20
121.8768185038
 30
0.0
 11
254.1269414662
 21
121.8768185038
 31
0.0
  0
ARC
  5
92
330
1F
100
AcDbEntity
  8
0
  6
Continuous
 62
     7
370
    15
100
AcDbCircle
 10
278.1269414662
 20
117.8768185038
 30
0.0
 40
4.000000000000014
100
AcDbArc
 50
270.0
 51
90.0
  0
LINE
  5
93
330
1F
100
AcDbEntity
  8
0
  6
Continuous
 62
     7
370
    15
100
AcDbLine
 10
254.1269414662
 20
113.8768185038
 30
0.0
 11
278.1269414662
 21
113.8768185038
 31
0.0
  0
ARC
  5
94
330
1F
100
AcDbEntity
  8
0
  6
Continuous
 62
     7
370
    15
100
AcDbCircle
 10
254.1269414662
 20
117.8768185038
 30
0.0
 40
4.000000000000014
100
AcDbArc
 50
90.0
 51
270.0
  0
CIRCLE
  5
95
330
1F
100
AcDbEntity
  8
0
  6
Continuous
 62
     7
370
    15
100
AcDbCircle
 10
254.1269414662
 20
117.8768185038
 30
0.0
 40
2.0
  0
LINE
  5
96
330
1F
100
AcDbEntity
  8
0
  6
Continuous
 62
     7
370
    15
100
AcDbLine
 10
56.0738461538
 20
166.4064961277
 30
0.0
 11
56.0738461538
 21
201.2946153846
 31
0.0
  0
LINE
  5
97
330
1F
100
AcDbEntity
  8
0
  6
Continuous
 62
     7
370
    15
100
AcDbLine
 10
56.0738461538
 20
201.2946153846
 30
0.0
 11
58.0738461538
 21
201.2946153846
 31
0.0
  0
LINE
  5
98
330
1F
100
AcDbEntity
  8
0
  6
Continuous
 62
     7
370
    15
100
AcDbLine
 10
58.0738461538
 20
201.2946153846
 30
0.0
 11
58.0738461538
 21
149.2946153846
 31
0.0
  0
LINE
  5
99
330
1F
100
AcDbEntity
  8
0
  6
Continuous
 62
     7
370
    15
100
AcDbLine
 10
58.0738461538
 20
149.2946153846
 30
0.0
 11
56.0738461538
 21
149.2946153846
 31
0.0
  0
LINE
  5
9A
330
1F
100
AcDbEntity
  8
0
  6
Continuous
 62
     7
370
    15
100
AcDbLine
 10
56.0738461538
 20
149.2946153846
 30
0.0
 11
56.0738461538
 21
163.494686325
 31
0.0
  0
SPLINE
  5
9B
330
1F
100
AcDbEntity
  8
0
  6
Continuous
 62
     7
370
    15
100
AcDbSpline
210
0.0
220
0.0
230
1.0
 70
     8
 71
     3
 72
    30
 73
    26
 74
     0
 42
0.000000001
 43
0.00000001
 40
0.0
 40
0.0
 40
0.0
 40
0.0
 40
0.0625000000000001
 40
0.0625000000000001
 40
0.1250000000000003
 40
0.1250000000000003
 40
0.2499999999999996
 40
0.2499999999999996
 40
0.3124999999999992
 40
0.3124999999999992
 40
0.3749999999999989
 40
0.3749999999999989
 40
0.4374999999999985
 40
0.4374999999999985
 40
0.4999999999999982
 40
0.4999999999999982
 40
0.6249999999999974
 40
0.6249999999999974
 40
0.6874999999999987
 40
0.6874999999999987
 40
0.7499999999999998
 40
0.7499999999999998
 40
0.8749999999999999
 40
0.8749999999999999
 40
1.0
 40
1.0
 40
1.0
 40
1.0
 10
56.07384615384607
 20
163.4946863250359
 30
0.0
 10
56.07384615384607
 20
163.4946863250359
 30
0.0
 10
56.0817226099241
 20
163.5019896320995
 30
0.0
 10
56.11216507290104
 20
163.5315945722132
 30
0.0
 10
56.13516897149547
 20
163.5543499198876
 30
0.0
 10
56.22133371533587
 20
163.646559414746
 30
0.0
 10
56.30436672782485
 20
163.7429877361754
 30
0.0
 10
56.42949234677462
 20
163.9387565351396
 30
0.0
 10
56.47187399550363
 20
164.0137451697656
 30
0.0
 10
56.54862404574612
 20
164.1758623489007
 30
0.0
 10
56.5832385854354
 20
164.263038191205
 30
0.0
 10
56.6413482224206
 20
164.449806901628
 30
0.0
 10
56.66398699109598
 20
164.5468233511547
 30
0.0
 10
56.69458595720585
 20
164.7455087637449
 30
0.0
 10
56.70257186898287
 20
164.8485804215996
 30
0.0
 10
56.70262891496013
 20
165.1534902882846
 30
0.0
 10
56.67012391145431
 20
165.358143302793
 30
0.0
 10
56.58439192326756
 20
165.6348033090358
 30
0.0
 10
56.5492920651405
 20
165.7237469672118
 30
0.0
 10
56.47251486054139
 20
165.8862429585159
 30
0.0
 10
56.43117345607874
 20
165.9596009093999
 30
0.0
 10
56.30526845329582
 20
166.1571637395049
 30
0.0
 10
56.22207406860274
 20
166.2537957505001
 30
0.0
 10
56.10647494081362
 20
166.3775743120676
 30
0.0
 10
56.07384615384607
 20
166.4064961277271
 30
0.0
 10
56.07384615384607
 20
166.4064961277271
 30
0.0
  0
LINE
  5
9C
330
1F
100
AcDbEntity
  8
0
  6
Continuous
 62
     7
370
    15
100
AcDbLine
 10
91.0738461538
 20
149.2946153846
 30
0.0
 11
89.0738461538
 21
149.2946153846
 31
0.0
  0
LINE
  5
9D
330
1F
100
AcDbEntity
  8
0
  6
Continuous
 62
     7
370
    15
100
AcDbLine
 10
89.0738461538
 20
149.2946153846
 30
0.0
 11
89.0738461538
 21
201.2946153846
 31
0.0
  0
LINE
  5
9E
330
1F
100
AcDbEntity
  8
0
  6
Continuous
 62
     7
370
    15
100
AcDbLine
 10
89.0738461538
 20
201.2946153846
 30
0.0
 11
91.0738461538
 21
201.2946153846
 31
0.0
  0
LINE
  5
9F
330
1F
100
AcDbEntity
  8
0
  6
Continuous
 62
     7
370
    15
100
AcDbLine
 10
91.0738461538
 20
201.2946153846
 30
0.0
 11
91.0738461538
 21
166.4064961277
 31
0.0
  0
SPLINE
  5
A0
330
1F
100
AcDbEntity
  8
0
  6
Continuous
 62
     7
370
    15
100
AcDbSpline
210
0.0
220
0.0
230
1.0
 70
     8
 71
     3
 72
    30
 73
    26
 74
     0
 42
0.000000001
 43
0.00000001
 40
0.0
 40
0.0
 40
0.0
 40
0.0
 40
0.0624999999999998
 40
0.0624999999999998
 40
0.1249999999999996
 40
0.1249999999999996
 40
0.2500000000000004
 40
0.2500000000000004
 40
0.3125000000000013
 40
0.3125000000000013
 40
0.3750000000000021
 40
0.3750000000000021
 40
0.437500000000003
 40
0.437500000000003
 40
0.5000000000000039
 40
0.5000000000000039
 40
0.6250000000000034
 40
0.6250000000000034
 40
0.6875000000000028
 40
0.6875000000000028
 40
0.7500000000000021
 40
0.7500000000000021
 40
0.8750000000000011
 40
0.8750000000000011
 40
1.0
 40
1.0
 40
1.0
 40
1.0
 10
91.07384615384606
 20
163.494686325036
 30
0.0
 10
91.07384615384606
 20
163.494686325036
 30
0.0
 10
91.06596969776803
 20
163.5019896320995
 30
0.0
 10
91.03552723479108
 20
163.5315945722133
 30
0.0
 10
91.01252333619667
 20
163.5543499198877
 30
0.0
 10
90.92635859235628
 20
163.6465594147461
 30
0.0
 10
90.84332557986731
 20
163.7429877361755
 30
0.0
 10
90.71819996091756
 20
163.9387565351396
 30
0.0
 10
90.67581831218854
 20
164.0137451697657
 30
0.0
 10
90.59906826194609
 20
164.1758623489007
 30
0.0
 10
90.5644537222568
 20
164.263038191205
 30
0.0
 10
90.5063440852716
 20
164.449806901628
 30
0.0
 10
90.48370531659621
 20
164.5468233511547
 30
0.0
 10
90.45310635048637
 20
164.7455087637449
 30
0.0
 10
90.44512043870935
 20
164.8485804215996
 30
0.0
 10
90.4450633927321
 20
165.1534902882846
 30
0.0
 10
90.47756839623791
 20
165.358143302793
 30
0.0
 10
90.56330038442465
 20
165.6348033090358
 30
0.0
 10
90.59840024255169
 20
165.7237469672118
 30
0.0
 10
90.67517744715079
 20
165.8862429585159
 30
0.0
 10
90.71651885161344
 20
165.9596009093998
 30
0.0
 10
90.84242385439634
 20
166.1571637395049
 30
0.0
 10
90.9256182390894
 20
166.2537957505
 30
0.0
 10
91.04121736687854
 20
166.3775743120675
 30
0.0
 10
91.07384615384606
 20
166.4064961277271
 30
0.0
 10
91.07384615384606
 20
166.4064961277271
 30
0.0
  0
LINE
  5
A1
330
1F
100
AcDbEntity
  8
0
  6
Continuous
 62
     7
370
    15
100
AcDbLine
 10
91.0738461538
 20
163.494686325
 30
0.0
 11
91.0738461538
 21
149.2946153846
 31
0.0
  0
CIRCLE
  5
A2
330
1F
100
AcDbEntity
  8
0
  6
Continuous
 62
     7
370
    15
100
AcDbCircle
 10
102.0738461538
 20
107.2946153846
 30
0.0
 40
2.0
  0
CIRCLE
  5
A3
330
1F
100
AcDbEntity
  8
0
  6
Continuous
 62
     7
370
    15
100
AcDbCircle
 10
102.0738461538
 20
127.2946153846
 30
0.0
 40
2.0
  0
CIRCLE
  5
A4
330
1F
100
AcDbEntity
  8
0
  6
Continuous
 62
     7
370
    15
100
AcDbCircle
 10
44.7738461538
 20
107.2946153846
 30
0.0
 40
2.000000000000007
  0
CIRCLE
  5
A5
330
1F
100
AcDbEntity
  8
0
  6
Continuous
 62
     7
370
    15
100
AcDbCircle
 10
44.7738461538
 20
127.2946153846
 30
0.0
 40
2.000000000000007
  0
CIRCLE
  5
A6
330
1F
100
AcDbEntity
  8
0
  6
Continuous
 62
     7
370
    15
100
AcDbCircle
 10
18.5738461538
 20
129.2946153846
 30
0.0
 40
2.000000000000004
  0
CIRCLE
  5
A7
330
1F
100
AcDbEntity
  8
0
  6
Continuous
 62
     7
370
    15
100
AcDbCircle
 10
128.5738461538
 20
129.2946153846
 30
0.0
 40
2.0
  0
CIRCLE
  5
A8
330
1F
100
AcDbEntity
  8
0
  6
Continuous
 62
     7
370
    15
100
AcDbCircle
 10
36.5738461538
 20
129.2946153846
 30
0.0
 40
2.000000000000007
  0
CIRCLE
  5
A9
330
1F
100
AcDbEntity
  8
0
  6
Continuous
 62
     7
370
    15
100
AcDbCircle
 10
110.5738461538
 20
129.2946153846
 30
0.0
 40
2.000000000000014
  0
ARC
  5
AA
330
1F
100
AcDbEntity
  8
0
  6
Continuous
 62
     7
370
    15
100
AcDbCircle
 10
117.4451013884
 20
168.7000192209
 30
0.0
 40
2.000000000000022
100
AcDbArc
 50
260.1085915219
 51
80.1085915219
  0
ARC
  5
AB
330
1F
100
AcDbEntity
  8
0
  6
Continuous
 62
     7
370
    15
100
AcDbCircle
 10
110.5738461538
 20
129.2946153846
 30
0.0
 40
42.00000000000002
100
AcDbArc
 50
80.1085915219
 51
116.9503755036
  0
LINE
  5
AC
330
1F
100
AcDbEntity
  8
0
  6
Continuous
 62
     7
370
    15
100
AcDbLine
 10
93.5738461538
 20
201.2946153846
 30
0.0
 11
91.0738461538
 21
201.2946153846
 31
0.0
  0
LINE
  5
AD
330
1F
100
AcDbEntity
  8
0
  6
Continuous
 62
     7
370
    15
100
AcDbLine
 10
93.5738461538
 20
209.2946153846
 30
0.0
 11
93.5738461538
 21
201.2946153846
 31
0.0
  0
ARC
  5
AE
330
1F
100
AcDbEntity
  8
0
  6
Continuous
 62
     7
370
    15
100
AcDbCircle
 10
91.5738461538
 20
167.3422614578
 30
0.0
 40
42.00000000000001
100
AcDbArc
 50
0.0
 51
87.2705973632
  0
LINE
  5
AF
330
1F
100
AcDbEntity
  8
0
  6
Continuous
 62
     7
370
    15
100
AcDbLine
 10
133.5738461538
 20
121.2946153846
 30
0.0
 11
133.5738461538
 21
167.3422614578
 31
0.0
  0
ARC
  5
B0
330
1F
100
AcDbEntity
  8
0
  6
Continuous
 62
     7
370
    15
100
AcDbCircle
 10
121.5738461538
 20
121.2946153846
 30
0.0
 40
11.99999999999999
100
AcDbArc
 50
270.0
 51
0.0
  0
LINE
  5
B1
330
1F
100
AcDbEntity
  8
0
  6
Continuous
 62
     7
370
    15
100
AcDbLine
 10
115.5738461538
 20
109.2946153846
 30
0.0
 11
121.5738461538
 21
109.2946153846
 31
0.0
  0
ARC
  5
B2
330
1F
100
AcDbEntity
  8
0
  6
Continuous
 62
     7
370
    15
100
AcDbCircle
 10
115.5738461538
 20
107.2946153846
 30
0.0
 40
2.000000000000014
100
AcDbArc
 50
90.0
 51
180.0
  0
LINE
  5
B3
330
1F
100
AcDbEntity
  8
0
  6
Continuous
 62
     7
370
    15
100
AcDbLine
 10
113.5738461538
 20
100.1230425094
 30
0.0
 11
113.5738461538
 21
107.2946153846
 31
0.0
  0
ARC
  5
B4
330
1F
100
AcDbEntity
  8
0
  6
Continuous
 62
     7
370
    15
100
AcDbCircle
 10
111.5738461538
 20
100.1230425094
 30
0.0
 40
2.0
100
AcDbArc
 50
315.0
 51
0.0
  0
LINE
  5
B5
330
1F
100
AcDbEntity
  8
0
  6
Continuous
 62
     7
370
    15
100
AcDbLine
 10
104.1596325915
 20
89.8804018222
 30
0.0
 11
112.9880597162
 21
98.708828947
 31
0.0
  0
ARC
  5
B6
330
1F
100
AcDbEntity
  8
0
  6
Continuous
 62
     7
370
    15
100
AcDbCircle
 10
102.7454190291
 20
91.2946153846
 30
0.0
 40
2.000000000000006
100
AcDbArc
 50
270.0
 51
315.0
  0
LINE
  5
B7
330
1F
100
AcDbEntity
  8
0
  6
Continuous
 62
     7
370
    15
100
AcDbLine
 10
90.5738461538
 20
89.2946153846
 30
0.0
 11
102.7454190291
 21
89.2946153846
 31
0.0
  0
LINE
  5
B8
330
1F
100
AcDbEntity
  8
0
  6
Continuous
 62
     7
370
    15
100
AcDbLine
 10
90.5738461538
 20
79.2946153846
 30
0.0
 11
90.5738461538
 21
89.2946153846
 31
0.0
  0
LINE
  5
B9
330
1F
100
AcDbEntity
  8
0
  6
Continuous
 62
     7
370
    15
100
AcDbLine
 10
85.5738461538
 20
79.2946153846
 30
0.0
 11
90.5738461538
 21
79.2946153846
 31
0.0
  0
LINE
  5
BA
330
1F
100
AcDbEntity
  8
0
  6
Continuous
 62
     7
370
    15
100
AcDbLine
 10
85.5738461538
 20
89.2946153846
 30
0.0
 11
85.5738461538
 21
79.2946153846
 31
0.0
  0
LINE
  5
BB
330
1F
100
AcDbEntity
  8
0
  6
Continuous
 62
     7
370
    15
100
AcDbLine
 10
61.5738461538
 20
89.2946153846
 30
0.0
 11
85.5738461538
 21
89.2946153846
 31
0.0
  0
LINE
  5
BC
330
1F
100
AcDbEntity
  8
0
  6
Continuous
 62
     7
370
    15
100
AcDbLine
 10
61.5738461538
 20
79.2946153846
 30
0.0
 11
61.5738461538
 21
89.2946153846
 31
0.0
  0
LINE
  5
BD
330
1F
100
AcDbEntity
  8
0
  6
Continuous
 62
     7
370
    15
100
AcDbLine
 10
56.5738461538
 20
79.2946153846
 30
0.0
 11
61.5738461538
 21
79.2946153846
 31
0.0
  0
LINE
  5
BE
330
1F
100
AcDbEntity
  8
0
  6
Continuous
 62
     7
370
    15
100
AcDbLine
 10
56.5738461538
 20
89.2946153846
 30
0.0
 11
56.5738461538
 21
79.2946153846
 31
0.0
  0
ARC
  5
BF
330
1F
100
AcDbEntity
  8
0
  6
Continuous
 62
     7
370
    15
100
AcDbCircle
 10
44.4022732786
 20
91.2946153846
 30
0.0
 40
2.000000000000001
100
AcDbArc
 50
225.0
 51
270.0
  0
LINE
  5
C0
330
1F
100
AcDbEntity
  8
0
  6
Continuous
 62
     7
370
    15
100
AcDbLine
 10
34.1596325915
 20
98.708828947
 30
0.0
 11
42.9880597162
 21
89.8804018222
 31
0.0
  0
ARC
  5
C1
330
1F
100
AcDbEntity
  8
0
  6
Continuous
 62
     7
370
    15
100
AcDbCircle
 10
35.5738461538
 20
100.1230425094
 30
0.0
 40
2.0
100
AcDbArc
 50
180.0
 51
225.0
  0
LINE
  5
C2
330
1F
100
AcDbEntity
  8
0
  6
Continuous
 62
     7
370
    15
100
AcDbLine
 10
33.5738461538
 20
107.2946153846
 30
0.0
 11
33.5738461538
 21
100.1230425094
 31
0.0
  0
ARC
  5
C3
330
1F
100
AcDbEntity
  8
0
  6
Continuous
 62
     7
370
    15
100
AcDbCircle
 10
31.5738461538
 20
107.2946153846
 30
0.0
 40
2.000000000000014
100
AcDbArc
 50
0.0
 51
90.0
  0
LINE
  5
C4
330
1F
100
AcDbEntity
  8
0
  6
Continuous
 62
     7
370
    15
100
AcDbLine
 10
25.5738461538
 20
109.2946153846
 30
0.0
 11
31.5738461538
 21
109.2946153846
 31
0.0
  0
ARC
  5
C5
330
1F
100
AcDbEntity
  8
0
  6
Continuous
 62
     7
370
    15
100
AcDbCircle
 10
25.5738461538
 20
121.2946153846
 30
0.0
 40
11.99999999999999
100
AcDbArc
 50
180.0
 51
270.0
  0
LINE
  5
C6
330
1F
100
AcDbEntity
  8
0
  6
Continuous
 62
     7
370
    15
100
AcDbLine
 10
13.5738461538
 20
167.3422614578
 30
0.0
 11
13.5738461538
 21
121.2946153846
 31
0.0
  0
ARC
  5
C7
330
1F
100
AcDbEntity
  8
0
  6
Continuous
 62
     7
370
    15
100
AcDbCircle
 10
55.5738461538
 20
167.3422614578
 30
0.0
 40
42.00000000000001
100
AcDbArc
 50
92.7294026368
 51
180.0
  0
LINE
  5
C8
330
1F
100
AcDbEntity
  8
0
  6
Continuous
 62
     7
370
    15
100
AcDbLine
 10
53.5738461538
 20
201.2946153846
 30
0.0
 11
53.5738461538
 21
209.2946153846
 31
0.0
  0
LINE
  5
C9
330
1F
100
AcDbEntity
  8
0
  6
Continuous
 62
     7
370
    15
100
AcDbLine
 10
56.0738461538
 20
201.2946153846
 30
0.0
 11
53.5738461538
 21
201.2946153846
 31
0.0
  0
ARC
  5
CA
330
1F
100
AcDbEntity
  8
0
  6
Continuous
 62
     7
370
    15
100
AcDbCircle
 10
36.5738461538
 20
129.2946153846
 30
0.0
 40
42.00000000000001
100
AcDbArc
 50
63.0496244964
 51
99.8914084781
  0
ARC
  5
CB
330
1F
100
AcDbEntity
  8
0
  6
Continuous
 62
     7
370
    15
100
AcDbCircle
 10
29.7025909193
 20
168.7000192209
 30
0.0
 40
2.000000000000019
100
AcDbArc
 50
99.8914084781
 51
279.8914084781
  0
ARC
  5
CC
330
1F
100
AcDbEntity
  8
0
  6
Continuous
 62
     7
370
    15
100
AcDbCircle
 10
36.5738461538
 20
129.2946153846
 30
0.0
 40
38.00000000000002
100
AcDbArc
 50
63.0496244964
 51
99.8914084781
  0
LINE
  5
CD
330
1F
100
AcDbEntity
  8
0
  6
Continuous
 62
     7
370
    15
100
AcDbLine
 10
52.5738461538
 20
149.2946153846
 30
0.0
 11
56.0738461538
 21
149.2946153846
 31
0.0
  0
LINE
  5
CE
330
1F
100
AcDbEntity
  8
0
  6
Continuous
 62
     7
370
    15
100
AcDbLine
 10
52.5738461538
 20
99.2946153846
 30
0.0
 11
52.5738461538
 21
149.2946153846
 31
0.0
  0
LINE
  5
CF
330
1F
100
AcDbEntity
  8
0
  6
Continuous
 62
     7
370
    15
100
AcDbLine
 10
94.5738461538
 20
99.2946153846
 30
0.0
 11
52.5738461538
 21
99.2946153846
 31
0.0
  0
LINE
  5
D0
330
1F
100
AcDbEntity
  8
0
  6
Continuous
 62
     7
370
    15
100
AcDbLine
 10
94.5738461538
 20
149.2946153846
 30
0.0
 11
94.5738461538
 21
99.2946153846
 31
0.0
  0
LINE
  5
D1
330
1F
100
AcDbEntity
  8
0
  6
Continuous
 62
     7
370
    15
100
AcDbLine
 10
91.0738461538
 20
149.2946153846
 30
0.0
 11
94.5738461538
 21
149.2946153846
 31
0.0
  0
ARC
  5
D2
330
1F
100
AcDbEntity
  8
0
  6
Continuous
 62
     7
370
    15
100
AcDbCircle
 10
110.5738461538
 20
129.2946153846
 30
0.0
 40
38.00000000000001
100
AcDbArc
 50
80.1085915219
 51
116.9503755036
  0
LINE
  5
D3
330
1F
100
AcDbEntity
  8
0
  6
Continuous
 62
     7
370
    15
100
AcDbLine
 10
44.4022732786
 20
89.2946153846
 30
0.0
 11
56.5738461538
 21
89.2946153846
 31
0.0
  0
ARC
  5
D4
330
1F
100
AcDbEntity
  8
0
  6
Continuous
 62
     7
370
    15
100
AcDbCircle
 10
92.4451013884
 20
164.9505912264
 30
0.0
 40
2.0
100
AcDbArc
 50
116.9503755036
 51
133.2849856989
  0
ARC
  5
D5
330
1F
100
AcDbEntity
  8
0
  6
Continuous
 62
     7
370
    15
100
AcDbCircle
 10
92.4451013884
 20
164.9505912264
 30
0.0
 40
2.0
100
AcDbArc
 50
226.7150143011
 51
296.9503755036
  0
ARC
  5
D6
330
1F
100
AcDbEntity
  8
0
  6
Continuous
 62
     7
370
    15
100
AcDbCircle
 10
54.7025909193
 20
164.9505912264
 30
0.0
 40
2.0
100
AcDbArc
 50
243.0496244964
 51
313.2849856989
  0
ARC
  5
D7
330
1F
100
AcDbEntity
  8
0
  6
Continuous
 62
     7
370
    15
100
AcDbCircle
 10
54.7025909193
 20
164.9505912264
 30
0.0
 40
2.0
100
AcDbArc
 50
46.7150143011
 51
63.0496244964
  0
LINE
  5
D8
330
1F
100
AcDbEntity
  8
0
  6
Continuous
 62
     7
370
    15
100
AcDbLine
 10
58.5738461538
 20
201.2946153846
 30
0.0
 11
58.5738461538
 21
149.2946153846
 31
0.0
  0
LINE
  5
D9
330
1F
100
AcDbEntity
  8
0
  6
Continuous
 62
     7
370
    15
100
AcDbLine
 10
58.5738461538
 20
149.2946153846
 30
0.0
 11
58.0738461538
 21
149.2946153846
 31
0.0
  0
LINE
  5
DA
330
1F
100
AcDbEntity
  8
0
  6
Continuous
 62
     7
370
    15
100
AcDbLine
 10
58.0738461538
 20
201.2946153846
 30
0.0
 11
58.5738461538
 21
201.2946153846
 31
0.0
  0
LINE
  5
DB
330
1F
100
AcDbEntity
  8
0
  6
Continuous
 62
     7
370
    15
100
AcDbLine
 10
88.5738461538
 20
149.2946153846
 30
0.0
 11
88.5738461538
 21
201.2946153846
 31
0.0
  0
LINE
  5
DC
330
1F
100
AcDbEntity
  8
0
  6
Continuous
 62
     7
370
    15
100
AcDbLine
 10
89.0738461538
 20
149.2946153846
 30
0.0
 11
88.5738461538
 21
149.2946153846
 31
0.0
  0
LINE
  5
DD
330
1F
100
AcDbEntity
  8
0
  6
Continuous
 62
     7
370
    15
100
AcDbLine
 10
88.5738461538
 20
201.2946153846
 30
0.0
 11
89.0738461538
 21
201.2946153846
 31
0.0
  0
CIRCLE
  5
DE
330
1F
100
AcDbEntity
  8
0
  6
Continuous
 62
     7
370
    15
100
AcDbCircle
 10
107.0108762326
 20
223.6273762538
 30
0.0
 40
2.0
  0
ARC
  5
DF
330
1F
100
AcDbEntity
  8
0
  6
Continuous
 62
     7
370
    15
100
AcDbCircle
 10
107.0108762326
 20
241.6273762538
 30
0.0
 40
5.0
100
AcDbArc
 50
90.0
 51
180.0
  0
LINE
  5
E0
330
1F
100
AcDbEntity
  8
0
  6
Continuous
 62
     7
370
    15
100
AcDbLine
 10
153.0101661491
 20
246.6273762538
 30
0.0
 11
107.0108762326
 21
246.6273762538
 31
0.0
  0
ARC
  5
E1
330
1F
100
AcDbEntity
  8
0
  6
Continuous
 62
     7
370
    15
100
AcDbCircle
 10
153.0101661491
 20
256.6273762538
 30
0.0
 40
10.0
100
AcDbArc
 50
270.0
 51
274.6578972637
  0
ARC
  5
E2
330
1F
100
AcDbEntity
  8
0
  6
Continuous
 62
     7
370
    15
100
AcDbCircle
 10
157.0909566129
 20
206.5410940109
 30
0.0
 40
40.25224890214768
100
AcDbArc
 50
1.4598393925
 51
94.6578972637
  0
ARC
  5
E3
330
1F
100
AcDbEntity
  8
0
  6
Continuous
 62
     7
370
    15
100
AcDbCircle
 10
196.3304653239
 20
207.5410940109
 30
0.0
 40
1.000000000000003
100
AcDbArc
 50
270.0
 51
1.4598393925
  0
LINE
  5
E4
330
1F
100
AcDbEntity
  8
0
  6
Continuous
 62
     7
370
    15
100
AcDbLine
 10
188.0748233826
 20
206.5410940109
 30
0.0
 11
196.3304653239
 21
206.5410940109
 31
0.0
  0
ARC
  5
E5
330
1F
100
AcDbEntity
  8
0
  6
Continuous
 62
     7
370
    15
100
AcDbCircle
 10
188.0748233826
 20
207.5410940109
 30
0.0
 40
1.0
100
AcDbArc
 50
181.8485716452
 51
270.0
  0
ARC
  5
E6
330
1F
100
AcDbEntity
  8
0
  6
Continuous
 62
     7
370
    15
100
AcDbCircle
 10
157.0909566129
 20
206.5410940109
 30
0.0
 40
30.0
100
AcDbArc
 50
1.8485716452
 51
178.1514283548
  0
ARC
  5
E7
330
1F
100
AcDbEntity
  8
0
  6
Continuous
 62
     7
370
    15
100
AcDbCircle
 10
126.1070898433
 20
207.5410940109
 30
0.0
 40
1.00000000000001
100
AcDbArc
 50
270.0
 51
358.1514283548
  0
LINE
  5
E8
330
1F
100
AcDbEntity
  8
0
  6
Continuous
 62
     7
370
    15
100
AcDbLine
 10
122.1052452439
 20
206.5410940109
 30
0.0
 11
126.1070898433
 21
206.5410940109
 31
0.0
  0
ARC
  5
E9
330
1F
100
AcDbEntity
  8
0
  6
Continuous
 62
     7
370
    15
100
AcDbCircle
 10
122.1052452439
 20
207.5410940109
 30
0.0
 40
1.000000000000006
100
AcDbArc
 50
178.3627549222
 51
270.0
  0
ARC
  5
EA
330
1F
100
AcDbEntity
  8
0
  6
Continuous
 62
     7
370
    15
100
AcDbCircle
 10
157.0909566129
 20
206.5410940109
 30
0.0
 40
36.00000000000001
100
AcDbArc
 50
175.6829665389
 51
178.3627549222
  0
ARC
  5
EB
330
1F
100
AcDbEntity
  8
0
  6
Continuous
 62
     7
370
    15
100
AcDbCircle
 10
116.2072818525
 20
209.6273762538
 30
0.0
 40
5.0
100
AcDbArc
 50
355.6829665389
 51
90.0
  0
LINE
  5
EC
330
1F
100
AcDbEntity
  8
0
  6
Continuous
 62
     7
370
    15
100
AcDbLine
 10
107.0108762326
 20
214.6273762538
 30
0.0
 11
116.2072818525
 21
214.6273762538
 31
0.0
  0
ARC
  5
ED
330
1F
100
AcDbEntity
  8
0
  6
Continuous
 62
     7
370
    15
100
AcDbCircle
 10
107.0108762326
 20
219.6273762538
 30
0.0
 40
5.0
100
AcDbArc
 50
180.0
 51
270.0
  0
LINE
  5
EE
330
1F
100
AcDbEntity
  8
0
  6
Continuous
 62
     7
370
    15
100
AcDbLine
 10
102.0108762326
 20
241.6273762538
 30
0.0
 11
102.0108762326
 21
219.6273762538
 31
0.0
  0
CIRCLE
  5
EF
330
1F
100
AcDbEntity
  8
0
  6
Continuous
 62
     7
370
    15
100
AcDbCircle
 10
107.0108762326
 20
241.6273762538
 30
0.0
 40
2.0
  0
ARC
  5
F0
330
1F
100
AcDbEntity
  8
0
  6
Continuous
 62
     7
370
    15
100
AcDbCircle
 10
73.7139939015
 20
111.4077230758
 30
0.0
 40
7.500000000000014
100
AcDbArc
 50
180.0
 51
0.0
  0
CIRCLE
  5
F1
330
1F
100
AcDbEntity
  8
0
  6
Continuous
 62
     7
370
    15
100
AcDbCircle
 10
73.7139939015
 20
151.4077230758
 30
0.0
 40
2.0
  0
CIRCLE
  5
F2
330
1F
100
AcDbEntity
  8
0
  6
Continuous
 62
     7
370
    15
100
AcDbCircle
 10
73.7139939015
 20
201.4077230758
 30
0.0
 40
2.0
  0
CIRCLE
  5
F3
330
1F
100
AcDbEntity
  8
0
  6
Continuous
 62
     7
370
    15
100
AcDbCircle
 10
73.7139939015
 20
111.4077230758
 30
0.0
 40
2.0
  0
LINE
  5
F4
330
1F
100
AcDbEntity
  8
0
  6
Continuous
 62
     7
370
    15
100
AcDbLine
 10
66.2139939015
 20
111.4077230758
 30
0.0
 11
66.2139939015
 21
201.4077230758
 31
0.0
  0
ARC
  5
F5
330
1F
100
AcDbEntity
  8
0
  6
Continuous
 62
     7
370
    15
100
AcDbCircle
 10
73.7139939015
 20
201.4077230758
 30
0.0
 40
7.500000000000014
100
AcDbArc
 50
0.0
 51
180.0
  0
LINE
  5
F6
330
1F
100
AcDbEntity
  8
0
  6
Continuous
 62
     7
370
    15
100
AcDbLine
 10
81.2139939015
 20
111.4077230758
 30
0.0
 11
81.2139939015
 21
201.4077230758
 31
0.0
  0
CIRCLE
  5
F7
330
1F
100
AcDbEntity
  8
0
  6
Continuous
 62
     7
370
    15
100
AcDbCircle
 10
230.0532099457
 20
210.8530299076
 30
0.0
 40
1.999999999999972
  0
ARC
  5
F8
330
1F
100
AcDbEntity
  8
0
  6
Continuous
 62
     7
370
    15
100
AcDbCircle
 10
230.0532099457
 20
192.8530299076
 30
0.0
 40
5.0
100
AcDbArc
 50
270.0
 51
0.0
  0
LINE
  5
F9
330
1F
100
AcDbEntity
  8
0
  6
Continuous
 62
     7
370
    15
100
AcDbLine
 10
184.0539200292
 20
187.8530299076
 30
0.0
 11
230.0532099457
 21
187.8530299076
 31
0.0
  0
ARC
  5
FA
330
1F
100
AcDbEntity
  8
0
  6
Continuous
 62
     7
370
    15
100
AcDbCircle
 10
184.0539200292
 20
177.8530299076
 30
0.0
 40
10.00000000000003
100
AcDbArc
 50
90.0
 51
94.6578972637
  0
ARC
  5
FB
330
1F
100
AcDbEntity
  8
0
  6
Continuous
 62
     7
370
    15
100
AcDbCircle
 10
179.9731295654
 20
227.9393121504
 30
0.0
 40
40.25224890214768
100
AcDbArc
 50
181.4598393925
 51
274.6578972637
  0
ARC
  5
FC
330
1F
100
AcDbEntity
  8
0
  6
Continuous
 62
     7
370
    15
100
AcDbCircle
 10
140.7336208544
 20
226.9393121504
 30
0.0
 40
1.000000000000002
100
AcDbArc
 50
90.0
 51
181.4598393925
  0
LINE
  5
FD
330
1F
100
AcDbEntity
  8
0
  6
Continuous
 62
     7
370
    15
100
AcDbLine
 10
148.9892627957
 20
227.9393121504
 30
0.0
 11
140.7336208544
 21
227.9393121504
 31
0.0
  0
ARC
  5
FE
330
1F
100
AcDbEntity
  8
0
  6
Continuous
 62
     7
370
    15
100
AcDbCircle
 10
148.9892627957
 20
226.9393121504
 30
0.0
 40
1.000000000000025
100
AcDbArc
 50
1.8485716452
 51
90.0
  0
ARC
  5
FF
330
1F
100
AcDbEntity
  8
0
  6
Continuous
 62
     7
370
    15
100
AcDbCircle
 10
179.9731295654
 20
227.9393121504
 30
0.0
 40
30.0
100
AcDbArc
 50
181.8485716452
 51
358.1514283548
  0
ARC
  5
100
330
1F
100
AcDbEntity
  8
0
  6
Continuous
 62
     7
370
    15
100
AcDbCircle
 10
210.956996335
 20
226.9393121504
 30
0.0
 40
1.000000000000025
100
AcDbArc
 50
90.0
 51
178.1514283548
  0
LINE
  5
101
330
1F
100
AcDbEntity
  8
0
  6
Continuous
 62
     7
370
    15
100
AcDbLine
 10
214.9588409344
 20
227.9393121504
 30
0.0
 11
210.956996335
 21
227.9393121504
 31
0.0
  0
ARC
  5
102
330
1F
100
AcDbEntity
  8
0
  6
Continuous
 62
     7
370
    15
100
AcDbCircle
 10
214.9588409344
 20
226.9393121504
 30
0.0
 40
1.000000000000006
100
AcDbArc
 50
358.3627549222
 51
90.0
  0
ARC
  5
103
330
1F
100
AcDbEntity
  8
0
  6
Continuous
 62
     7
370
    15
100
AcDbCircle
 10
179.9731295654
 20
227.9393121504
 30
0.0
 40
36.00000000000003
100
AcDbArc
 50
355.6829665389
 51
358.3627549222
  0
ARC
  5
104
330
1F
100
AcDbEntity
  8
0
  6
Continuous
 62
     7
370
    15
100
AcDbCircle
 10
220.8568043258
 20
224.8530299076
 30
0.0
 40
5.0
100
AcDbArc
 50
175.6829665389
 51
270.0
  0
LINE
  5
105
330
1F
100
AcDbEntity
  8
0
  6
Continuous
 62
     7
370
    15
100
AcDbLine
 10
230.0532099457
 20
219.8530299076
 30
0.0
 11
220.8568043258
 21
219.8530299076
 31
0.0
  0
ARC
  5
106
330
1F
100
AcDbEntity
  8
0
  6
Continuous
 62
     7
370
    15
100
AcDbCircle
 10
230.0532099457
 20
214.8530299076
 30
0.0
 40
5.0
100
AcDbArc
 50
0.0
 51
90.0
  0
LINE
  5
107
330
1F
100
AcDbEntity
  8
0
  6
Continuous
 62
     7
370
    15
100
AcDbLine
 10
235.0532099457
 20
192.8530299076
 30
0.0
 11
235.0532099457
 21
214.8530299076
 31
0.0
  0
CIRCLE
  5
108
330
1F
100
AcDbEntity
  8
0
  6
Continuous
 62
     7
370
    15
100
AcDbCircle
 10
230.0532099457
 20
192.8530299076
 30
0.0
 40
2.0
  0
ARC
  5
109
330
1F
100
AcDbEntity
  8
0
  6
Continuous
 62
     7
370
    15
100
AcDbCircle
 10
186.9763200106
 20
81.755267691
 30
0.0
 40
7.5
100
AcDbArc
 50
180.0
 51
0.0
  0
CIRCLE
  5
10A
330
1F
100
AcDbEntity
  8
0
  6
Continuous
 62
     7
370
    15
100
AcDbCircle
 10
186.9763200106
 20
121.755267691
 30
0.0
 40
2.0
  0
CIRCLE
  5
10B
330
1F
100
AcDbEntity
  8
0
  6
Continuous
 62
     7
370
    15
100
AcDbCircle
 10
186.9763200106
 20
171.755267691
 30
0.0
 40
2.0
  0
CIRCLE
  5
10C
330
1F
100
AcDbEntity
  8
0
  6
Continuous
 62
     7
370
    15
100
AcDbCircle
 10
186.9763200106
 20
81.755267691
 30
0.0
 40
2.0
  0
LINE
  5
10D
330
1F
100
AcDbEntity
  8
0
  6
Continuous
 62
     7
370
    15
100
AcDbLine
 10
179.4763200106
 20
81.755267691
 30
0.0
 11
179.4763200106
 21
171.755267691
 31
0.0
  0
ARC
  5
10E
330
1F
100
AcDbEntity
  8
0
  6
Continuous
 62
     7
370
    15
100
AcDbCircle
 10
186.9763200106
 20
171.755267691
 30
0.0
 40
7.5
100
AcDbArc
 50
0.0
 51
180.0
  0
LINE
  5
10F
330
1F
100
AcDbEntity
  8
0
  6
Continuous
 62
     7
370
    15
100
AcDbLine
 10
194.4763200106
 20
81.755267691
 30
0.0
 11
194.4763200106
 21
171.755267691
 31
0.0
  0
LINE
  5
110
330
1F
100
AcDbEntity
  8
0
  6
Continuous
 62
     7
370
    15
100
AcDbLine
 10
266.0216700532
 20
98.9460123017
 30
0.0
 11
231.1335507963
 21
98.9460123017
 31
0.0
  0
LINE
  5
111
330
1F
100
AcDbEntity
  8
0
  6
Continuous
 62
     7
370
    15
100
AcDbLine
 10
231.1335507963
 20
98.9460123017
 30
0.0
 11
231.1335507963
 21
100.9460123017
 31
0.0
  0
LINE
  5
112
330
1F
100
AcDbEntity
  8
0
  6
Continuous
 62
     7
370
    15
100
AcDbLine
 10
231.1335507963
 20
100.9460123017
 30
0.0
 11
283.1335507963
 21
100.9460123017
 31
0.0
  0
LINE
  5
113
330
1F
100
AcDbEntity
  8
0
  6
Continuous
 62
     7
370
    15
100
AcDbLine
 10
283.1335507963
 20
100.9460123017
 30
0.0
 11
283.1335507963
 21
98.9460123017
 31
0.0
  0
LINE
  5
114
330
1F
100
AcDbEntity
  8
0
  6
Continuous
 62
     7
370
    15
100
AcDbLine
 10
283.1335507963
 20
98.9460123017
 30
0.0
 11
268.9334798559
 21
98.9460123017
 31
0.0
  0
SPLINE
  5
115
330
1F
100
AcDbEntity
  8
0
  6
Continuous
 62
     7
370
    15
100
AcDbSpline
210
0.0
220
0.0
230
1.0
 70
     8
 71
     3
 72
    30
 73
    26
 74
     0
 42
0.000000001
 43
0.00000001
 40
0.0
 40
0.0
 40
0.0
 40
0.0
 40
0.0625000000000001
 40
0.0625000000000001
 40
0.1250000000000003
 40
0.1250000000000003
 40
0.2499999999999996
 40
0.2499999999999996
 40
0.3124999999999992
 40
0.3124999999999992
 40
0.3749999999999989
 40
0.3749999999999989
 40
0.4374999999999985
 40
0.4374999999999985
 40
0.4999999999999982
 40
0.4999999999999982
 40
0.6249999999999974
 40
0.6249999999999974
 40
0.6874999999999987
 40
0.6874999999999987
 40
0.7499999999999998
 40
0.7499999999999998
 40
0.8749999999999999
 40
0.8749999999999999
 40
1.0
 40
1.0
 40
1.0
 40
1.0
 10
268.9334798559136
 20
98.9460123017429
 30
0.0
 10
268.9334798559136
 20
98.94601230174288
 30
0.0
 10
268.9261765488499
 20
98.95388875782092
 30
0.0
 10
268.8965716087362
 20
98.98433122079786
 30
0.0
 10
268.8738162610617
 20
99.0073351193923
 30
0.0
 10
268.7816067662034
 20
99.0934998632327
 30
0.0
 10
268.685178444774
 20
99.17653287572168
 30
0.0
 10
268.4894096458098
 20
99.30165849467144
 30
0.0
 10
268.4144210111837
 20
99.34404014340045
 30
0.0
 10
268.2523038320487
 20
99.42079019364294
 30
0.0
 10
268.1651279897444
 20
99.45540473333222
 30
0.0
 10
267.9783592793215
 20
99.51351437031741
 30
0.0
 10
267.8813428297947
 20
99.5361531389928
 30
0.0
 10
267.6826574172045
 20
99.56675210510267
 30
0.0
 10
267.5795857593498
 20
99.57473801687969
 30
0.0
 10
267.2746758926648
 20
99.57479506285695
 30
0.0
 10
267.0700228781564
 20
99.54229005935113
 30
0.0
 10
266.7933628719136
 20
99.45655807116438
 30
0.0
 10
266.7044192137376
 20
99.42145821303731
 30
0.0
 10
266.5419232224335
 20
99.34468100843822
 30
0.0
 10
266.4685652715496
 20
99.30333960397556
 30
0.0
 10
266.2710024414445
 20
99.17743460119264
 30
0.0
 10
266.1743704304494
 20
99.09424021649957
 30
0.0
 10
266.0505918688818
 20
98.97864108871043
 30
0.0
 10
266.0216700532222
 20
98.94601230174288
 30
0.0
 10
266.0216700532222
 20
98.9460123017429
 30
0.0
  0
LINE
  5
116
330
1F
100
AcDbEntity
  8
0
  6
Continuous
 62
     7
370
    15
100
AcDbLine
 10
283.1335507963
 20
133.9460123017
 30
0.0
 11
283.1335507963
 21
131.9460123017
 31
0.0
  0
LINE
  5
117
330
1F
100
AcDbEntity
  8
0
  6
Continuous
 62
     7
370
    15
100
AcDbLine
 10
283.1335507963
 20
131.9460123017
 30
0.0
 11
231.1335507963
 21
131.9460123017
 31
0.0
  0
LINE
  5
118
330
1F
100
AcDbEntity
  8
0
  6
Continuous
 62
     7
370
    15
100
AcDbLine
 10
231.1335507963
 20
131.9460123017
 30
0.0
 11
231.1335507963
 21
133.9460123017
 31
0.0
  0
LINE
  5
119
330
1F
100
AcDbEntity
  8
0
  6
Continuous
 62
     7
370
    15
100
AcDbLine
 10
231.1335507963
 20
133.9460123017
 30
0.0
 11
266.0216700532
 21
133.9460123017
 31
0.0
  0
SPLINE
  5
11A
330
1F
100
AcDbEntity
  8
0
  6
Continuous
 62
     7
370
    15
100
AcDbSpline
210
0.0
220
0.0
230
1.0
 70
     8
 71
     3
 72
    30
 73
    26
 74
     0
 42
0.000000001
 43
0.00000001
 40
0.0
 40
0.0
 40
0.0
 40
0.0
 40
0.0624999999999998
 40
0.0624999999999998
 40
0.1249999999999996
 40
0.1249999999999996
 40
0.2500000000000004
 40
0.2500000000000004
 40
0.3125000000000013
 40
0.3125000000000013
 40
0.3750000000000021
 40
0.3750000000000021
 40
0.437500000000003
 40
0.437500000000003
 40
0.5000000000000039
 40
0.5000000000000039
 40
0.6250000000000034
 40
0.6250000000000034
 40
0.6875000000000028
 40
0.6875000000000028
 40
0.7500000000000021
 40
0.7500000000000021
 40
0.8750000000000011
 40
0.8750000000000011
 40
1.0
 40
1.0
 40
1.0
 40
1.0
 10
268.9334798559134
 20
133.9460123017429
 30
0.0
 10
268.9334798559134
 20
133.9460123017429
 30
0.0
 10
268.9261765488499
 20
133.9381358456648
 30
0.0
 10
268.8965716087362
 20
133.9076933826879
 30
0.0
 10
268.8738162610617
 20
133.8846894840935
 30
0.0
 10
268.7816067662033
 20
133.7985247402531
 30
0.0
 10
268.6851784447739
 20
133.7154917277641
 30
0.0
 10
268.4894096458098
 20
133.5903661088144
 30
0.0
 10
268.4144210111837
 20
133.5479844600854
 30
0.0
 10
268.2523038320487
 20
133.4712344098429
 30
0.0
 10
268.1651279897443
 20
133.4366198701536
 30
0.0
 10
267.9783592793214
 20
133.3785102331684
 30
0.0
 10
267.8813428297947
 20
133.355871464493
 30
0.0
 10
267.6826574172045
 20
133.3252724983832
 30
0.0
 10
267.5795857593498
 20
133.3172865866062
 30
0.0
 10
267.2746758926648
 20
133.3172295406289
 30
0.0
 10
267.0700228781564
 20
133.3497345441347
 30
0.0
 10
266.7933628719136
 20
133.4354665323215
 30
0.0
 10
266.7044192137377
 20
133.4705663904485
 30
0.0
 10
266.5419232224335
 20
133.5473435950476
 30
0.0
 10
266.4685652715496
 20
133.5886849995103
 30
0.0
 10
266.2710024414445
 20
133.7145900022932
 30
0.0
 10
266.1743704304494
 20
133.7977843869862
 30
0.0
 10
266.0505918688819
 20
133.9133835147753
 30
0.0
 10
266.0216700532223
 20
133.9460123017429
 30
0.0
 10
266.0216700532223
 20
133.9460123017429
 30
0.0
  0
LINE
  5
11B
330
1F
100
AcDbEntity
  8
0
  6
Continuous
 62
     7
370
    15
100
AcDbLine
 10
268.9334798559
 20
133.9460123017
 30
0.0
 11
283.1335507963
 21
133.9460123017
 31
0.0
  0
CIRCLE
  5
11C
330
1F
100
AcDbEntity
  8
0
  6
Continuous
 62
     7
370
    15
100
AcDbCircle
 10
325.1335507963
 20
144.9460123017
 30
0.0
 40
2.0
  0
CIRCLE
  5
11D
330
1F
100
AcDbEntity
  8
0
  6
Continuous
 62
     7
370
    15
100
AcDbCircle
 10
305.1335507963
 20
144.9460123017
 30
0.0
 40
2.0
  0
CIRCLE
  5
11E
330
1F
100
AcDbEntity
  8
0
  6
Continuous
 62
     7
370
    15
100
AcDbCircle
 10
325.1335507963
 20
87.6460123017
 30
0.0
 40
2.0
  0
CIRCLE
  5
11F
330
1F
100
AcDbEntity
  8
0
  6
Continuous
 62
     7
370
    15
100
AcDbCircle
 10
305.1335507963
 20
87.6460123017
 30
0.0
 40
2.0
  0
CIRCLE
  5
120
330
1F
100
AcDbEntity
  8
0
  6
Continuous
 62
     7
370
    15
100
AcDbCircle
 10
303.1335507963
 20
61.4460123017
 30
0.0
 40
2.0
  0
CIRCLE
  5
121
330
1F
100
AcDbEntity
  8
0
  6
Continuous
 62
     7
370
    15
100
AcDbCircle
 10
303.1335507963
 20
171.4460123017
 30
0.0
 40
2.0
  0
CIRCLE
  5
122
330
1F
100
AcDbEntity
  8
0
  6
Continuous
 62
     7
370
    15
100
AcDbCircle
 10
303.1335507963
 20
79.4460123017
 30
0.0
 40
2.000000000000014
  0
CIRCLE
  5
123
330
1F
100
AcDbEntity
  8
0
  6
Continuous
 62
     7
370
    15
100
AcDbCircle
 10
303.1335507963
 20
153.4460123017
 30
0.0
 40
2.0
  0
ARC
  5
124
330
1F
100
AcDbEntity
  8
0
  6
Continuous
 62
     7
370
    15
100
AcDbCircle
 10
263.72814696
 20
160.3172675363
 30
0.0
 40
2.000000000000022
100
AcDbArc
 50
350.1085915219
 51
170.1085915219
  0
ARC
  5
125
330
1F
100
AcDbEntity
  8
0
  6
Continuous
 62
     7
370
    15
100
AcDbCircle
 10
303.1335507963
 20
153.4460123017
 30
0.0
 40
42.00000000000002
100
AcDbArc
 50
170.1085915219
 51
206.9503755036
  0
LINE
  5
126
330
1F
100
AcDbEntity
  8
0
  6
Continuous
 62
     7
370
    15
100
AcDbLine
 10
231.1335507963
 20
136.4460123017
 30
0.0
 11
231.1335507963
 21
133.9460123017
 31
0.0
  0
LINE
  5
127
330
1F
100
AcDbEntity
  8
0
  6
Continuous
 62
     7
370
    15
100
AcDbLine
 10
223.1335507963
 20
136.4460123017
 30
0.0
 11
231.1335507963
 21
136.4460123017
 31
0.0
  0
ARC
  5
128
330
1F
100
AcDbEntity
  8
0
  6
Continuous
 62
     7
370
    15
100
AcDbCircle
 10
265.0859047231
 20
134.4460123017
 30
0.0
 40
41.99999999999998
100
AcDbArc
 50
90.0
 51
177.2705973632
  0
LINE
  5
129
330
1F
100
AcDbEntity
  8
0
  6
Continuous
 62
     7
370
    15
100
AcDbLine
 10
311.1335507963
 20
176.4460123017
 30
0.0
 11
265.0859047231
 21
176.4460123017
 31
0.0
  0
ARC
  5
12A
330
1F
100
AcDbEntity
  8
0
  6
Continuous
 62
     7
370
    15
100
AcDbCircle
 10
311.1335507963
 20
164.4460123017
 30
0.0
 40
12.0
100
AcDbArc
 50
0.0
 51
90.0
  0
LINE
  5
12B
330
1F
100
AcDbEntity
  8
0
  6
Continuous
 62
     7
370
    15
100
AcDbLine
 10
323.1335507963
 20
158.4460123017
 30
0.0
 11
323.1335507963
 21
164.4460123017
 31
0.0
  0
ARC
  5
12C
330
1F
100
AcDbEntity
  8
0
  6
Continuous
 62
     7
370
    15
100
AcDbCircle
 10
325.1335507963
 20
158.4460123017
 30
0.0
 40
2.000000000000057
100
AcDbArc
 50
180.0
 51
270.0
  0
LINE
  5
12D
330
1F
100
AcDbEntity
  8
0
  6
Continuous
 62
     7
370
    15
100
AcDbLine
 10
332.3051236716
 20
156.4460123017
 30
0.0
 11
325.1335507963
 21
156.4460123017
 31
0.0
  0
ARC
  5
12E
330
1F
100
AcDbEntity
  8
0
  6
Continuous
 62
     7
370
    15
100
AcDbCircle
 10
332.3051236716
 20
154.4460123017
 30
0.0
 40
2.0
100
AcDbArc
 50
45.0
 51
90.0
  0
LINE
  5
12F
330
1F
100
AcDbEntity
  8
0
  6
Continuous
 62
     7
370
    15
100
AcDbLine
 10
342.5477643587
 20
147.0317987394
 30
0.0
 11
333.719337234
 21
155.8602258641
 31
0.0
  0
ARC
  5
130
330
1F
100
AcDbEntity
  8
0
  6
Continuous
 62
     7
370
    15
100
AcDbCircle
 10
341.1335507963
 20
145.617585177
 30
0.0
 40
2.0
100
AcDbArc
 50
0.0
 51
45.0
  0
LINE
  5
131
330
1F
100
AcDbEntity
  8
0
  6
Continuous
 62
     7
370
    15
100
AcDbLine
 10
343.1335507963
 20
133.4460123017
 30
0.0
 11
343.1335507963
 21
145.617585177
 31
0.0
  0
LINE
  5
132
330
1F
100
AcDbEntity
  8
0
  6
Continuous
 62
     7
370
    15
100
AcDbLine
 10
353.1335507963
 20
133.4460123017
 30
0.0
 11
343.1335507963
 21
133.4460123017
 31
0.0
  0
LINE
  5
133
330
1F
100
AcDbEntity
  8
0
  6
Continuous
 62
     7
370
    15
100
AcDbLine
 10
353.1335507963
 20
128.4460123017
 30
0.0
 11
353.1335507963
 21
133.4460123017
 31
0.0
  0
LINE
  5
134
330
1F
100
AcDbEntity
  8
0
  6
Continuous
 62
     7
370
    15
100
AcDbLine
 10
343.1335507963
 20
128.4460123017
 30
0.0
 11
353.1335507963
 21
128.4460123017
 31
0.0
  0
LINE
  5
135
330
1F
100
AcDbEntity
  8
0
  6
Continuous
 62
     7
370
    15
100
AcDbLine
 10
343.1335507963
 20
104.4460123017
 30
0.0
 11
343.1335507963
 21
128.4460123017
 31
0.0
  0
LINE
  5
136
330
1F
100
AcDbEntity
  8
0
  6
Continuous
 62
     7
370
    15
100
AcDbLine
 10
353.1335507963
 20
104.4460123017
 30
0.0
 11
343.1335507963
 21
104.4460123017
 31
0.0
  0
LINE
  5
137
330
1F
100
AcDbEntity
  8
0
  6
Continuous
 62
     7
370
    15
100
AcDbLine
 10
353.1335507963
 20
99.4460123017
 30
0.0
 11
353.1335507963
 21
104.4460123017
 31
0.0
  0
LINE
  5
138
330
1F
100
AcDbEntity
  8
0
  6
Continuous
 62
     7
370
    15
100
AcDbLine
 10
343.1335507963
 20
99.4460123017
 30
0.0
 11
353.1335507963
 21
99.4460123017
 31
0.0
  0
ARC
  5
139
330
1F
100
AcDbEntity
  8
0
  6
Continuous
 62
     7
370
    15
100
AcDbCircle
 10
341.1335507963
 20
87.2744394265
 30
0.0
 40
2.000000000000006
100
AcDbArc
 50
315.0
 51
0.0
  0
LINE
  5
13A
330
1F
100
AcDbEntity
  8
0
  6
Continuous
 62
     7
370
    15
100
AcDbLine
 10
333.719337234
 20
77.0317987394
 30
0.0
 11
342.5477643587
 21
85.8602258641
 31
0.0
  0
ARC
  5
13B
330
1F
100
AcDbEntity
  8
0
  6
Continuous
 62
     7
370
    15
100
AcDbCircle
 10
332.3051236716
 20
78.4460123017
 30
0.0
 40
2.0
100
AcDbArc
 50
270.0
 51
315.0
  0
LINE
  5
13C
330
1F
100
AcDbEntity
  8
0
  6
Continuous
 62
     7
370
    15
100
AcDbLine
 10
325.1335507963
 20
76.4460123017
 30
0.0
 11
332.3051236716
 21
76.4460123017
 31
0.0
  0
ARC
  5
13D
330
1F
100
AcDbEntity
  8
0
  6
Continuous
 62
     7
370
    15
100
AcDbCircle
 10
325.1335507963
 20
74.4460123017
 30
0.0
 40
2.0
100
AcDbArc
 50
90.0
 51
180.0
  0
LINE
  5
13E
330
1F
100
AcDbEntity
  8
0
  6
Continuous
 62
     7
370
    15
100
AcDbLine
 10
323.1335507963
 20
68.4460123017
 30
0.0
 11
323.1335507963
 21
74.4460123017
 31
0.0
  0
ARC
  5
13F
330
1F
100
AcDbEntity
  8
0
  6
Continuous
 62
     7
370
    15
100
AcDbCircle
 10
311.1335507963
 20
68.4460123017
 30
0.0
 40
12.0
100
AcDbArc
 50
270.0
 51
0.0
  0
LINE
  5
140
330
1F
100
AcDbEntity
  8
0
  6
Continuous
 62
     7
370
    15
100
AcDbLine
 10
265.0859047231
 20
56.4460123017
 30
0.0
 11
311.1335507963
 21
56.4460123017
 31
0.0
  0
ARC
  5
141
330
1F
100
AcDbEntity
  8
0
  6
Continuous
 62
     7
370
    15
100
AcDbCircle
 10
265.0859047231
 20
98.4460123017
 30
0.0
 40
42.00000000000001
100
AcDbArc
 50
182.7294026368
 51
270.0
  0
LINE
  5
142
330
1F
100
AcDbEntity
  8
0
  6
Continuous
 62
     7
370
    15
100
AcDbLine
 10
231.1335507963
 20
96.4460123017
 30
0.0
 11
223.1335507963
 21
96.4460123017
 31
0.0
  0
LINE
  5
143
330
1F
100
AcDbEntity
  8
0
  6
Continuous
 62
     7
370
    15
100
AcDbLine
 10
231.1335507963
 20
98.9460123017
 30
0.0
 11
231.1335507963
 21
96.4460123017
 31
0.0
  0
ARC
  5
144
330
1F
100
AcDbEntity
  8
0
  6
Continuous
 62
     7
370
    15
100
AcDbCircle
 10
303.1335507963
 20
79.4460123017
 30
0.0
 40
42.00000000000004
100
AcDbArc
 50
153.0496244964
 51
189.8914084781
  0
ARC
  5
145
330
1F
100
AcDbEntity
  8
0
  6
Continuous
 62
     7
370
    15
100
AcDbCircle
 10
263.72814696
 20
72.5747570672
 30
0.0
 40
2.000000000000019
100
AcDbArc
 50
189.8914084781
 51
9.8914084781
  0
ARC
  5
146
330
1F
100
AcDbEntity
  8
0
  6
Continuous
 62
     7
370
    15
100
AcDbCircle
 10
303.1335507963
 20
79.4460123017
 30
0.0
 40
38.00000000000001
100
AcDbArc
 50
153.0496244964
 51
189.8914084781
  0
LINE
  5
147
330
1F
100
AcDbEntity
  8
0
  6
Continuous
 62
     7
370
    15
100
AcDbLine
 10
283.1335507963
 20
95.4460123017
 30
0.0
 11
283.1335507963
 21
98.9460123017
 31
0.0
  0
LINE
  5
148
330
1F
100
AcDbEntity
  8
0
  6
Continuous
 62
     7
370
    15
100
AcDbLine
 10
333.1335507963
 20
95.4460123017
 30
0.0
 11
283.1335507963
 21
95.4460123017
 31
0.0
  0
LINE
  5
149
330
1F
100
AcDbEntity
  8
0
  6
Continuous
 62
     7
370
    15
100
AcDbLine
 10
333.1335507963
 20
137.4460123017
 30
0.0
 11
333.1335507963
 21
95.4460123017
 31
0.0
  0
LINE
  5
14A
330
1F
100
AcDbEntity
  8
0
  6
Continuous
 62
     7
370
    15
100
AcDbLine
 10
283.1335507963
 20
137.4460123017
 30
0.0
 11
333.1335507963
 21
137.4460123017
 31
0.0
  0
LINE
  5
14B
330
1F
100
AcDbEntity
  8
0
  6
Continuous
 62
     7
370
    15
100
AcDbLine
 10
283.1335507963
 20
133.9460123017
 30
0.0
 11
283.1335507963
 21
137.4460123017
 31
0.0
  0
ARC
  5
14C
330
1F
100
AcDbEntity
  8
0
  6
Continuous
 62
     7
370
    15
100
AcDbCircle
 10
303.1335507963
 20
153.4460123017
 30
0.0
 40
38.00000000000001
100
AcDbArc
 50
170.1085915219
 51
206.9503755036
  0
LINE
  5
14D
330
1F
100
AcDbEntity
  8
0
  6
Continuous
 62
     7
370
    15
100
AcDbLine
 10
343.1335507963
 20
87.2744394265
 30
0.0
 11
343.1335507963
 21
99.4460123017
 31
0.0
  0
ARC
  5
14E
330
1F
100
AcDbEntity
  8
0
  6
Continuous
 62
     7
370
    15
100
AcDbCircle
 10
267.4775749546
 20
135.3172675363
 30
0.0
 40
1.999999999999978
100
AcDbArc
 50
206.9503755036
 51
223.2849856989
  0
ARC
  5
14F
330
1F
100
AcDbEntity
  8
0
  6
Continuous
 62
     7
370
    15
100
AcDbCircle
 10
267.4775749546
 20
135.3172675363
 30
0.0
 40
2.000000000000032
100
AcDbArc
 50
316.7150143011
 51
26.9503755036
  0
ARC
  5
150
330
1F
100
AcDbEntity
  8
0
  6
Continuous
 62
     7
370
    15
100
AcDbCircle
 10
267.4775749546
 20
97.5747570672
 30
0.0
 40
2.000000000000063
100
AcDbArc
 50
333.0496244964
 51
43.2849856989
  0
ARC
  5
151
330
1F
100
AcDbEntity
  8
0
  6
Continuous
 62
     7
370
    15
100
AcDbCircle
 10
267.4775749546
 20
97.5747570672
 30
0.0
 40
1.99999999999998
100
AcDbArc
 50
136.7150143011
 51
153.0496244964
  0
LINE
  5
152
330
1F
100
AcDbEntity
  8
0
  6
Continuous
 62
     7
370
    15
100
AcDbLine
 10
231.1335507963
 20
101.4460123017
 30
0.0
 11
283.1335507963
 21
101.4460123017
 31
0.0
  0
LINE
  5
153
330
1F
100
AcDbEntity
  8
0
  6
Continuous
 62
     7
370
    15
100
AcDbLine
 10
283.1335507963
 20
101.4460123017
 30
0.0
 11
283.1335507963
 21
100.9460123017
 31
0.0
  0
LINE
  5
154
330
1F
100
AcDbEntity
  8
0
  6
Continuous
 62
     7
370
    15
100
AcDbLine
 10
231.1335507963
 20
100.9460123017
 30
0.0
 11
231.1335507963
 21
101.4460123017
 31
0.0
  0
LINE
  5
155
330
1F
100
AcDbEntity
  8
0
  6
Continuous
 62
     7
370
    15
100
AcDbLine
 10
283.1335507963
 20
131.4460123017
 30
0.0
 11
231.1335507963
 21
131.4460123017
 31
0.0
  0
LINE
  5
156
330
1F
100
AcDbEntity
  8
0
  6
Continuous
 62
     7
370
    15
100
AcDbLine
 10
283.1335507963
 20
131.9460123017
 30
0.0
 11
283.1335507963
 21
131.4460123017
 31
0.0
  0
LINE
  5
157
330
1F
100
AcDbEntity
  8
0
  6
Continuous
 62
     7
370
    15
100
AcDbLine
 10
231.1335507963
 20
131.4460123017
 30
0.0
 11
231.1335507963
 21
131.9460123017
 31
0.0
  0
ARC
  5
158
330
1F
100
AcDbEntity
  8
0
  6
Continuous
 62
     7
370
    15
100
AcDbCircle
 10
197.7026401941
 20
150.8042508286
 30
0.0
 40
2.0
100
AcDbArc
 50
0.0
 51
40.7795988698
  0
ARC
  5
159
330
1F
100
AcDbEntity
  8
0
  6
Continuous
 62
     7
370
    15
100
AcDbCircle
 10
206.7893722233
 20
150.8042508286
 30
0.0
 40
2.000000000000036
100
AcDbArc
 50
139.2204011302
 51
180.0
  0
ARC
  5
15A
330
1F
100
AcDbEntity
  8
0
  6
Continuous
 62
     7
370
    15
100
AcDbCircle
 10
206.7893722233
 20
133.642063089
 30
0.0
 40
2.000000000000017
100
AcDbArc
 50
180.0
 51
220.7795988698
  0
ARC
  5
15B
330
1F
100
AcDbEntity
  8
0
  6
Continuous
 62
     7
370
    15
100
AcDbCircle
 10
197.7026401941
 20
133.642063089
 30
0.0
 40
2.0
100
AcDbArc
 50
319.2204011302
 51
0.0
  0
ARC
  5
15C
330
1F
100
AcDbEntity
  8
0
  6
Continuous
 62
     7
370
    15
100
AcDbCircle
 10
202.2460062087
 20
154.7231569588
 30
0.0
 40
4.000000000000012
100
AcDbArc
 50
319.2204011302
 51
220.7795988698
  0
CIRCLE
  5
15D
330
1F
100
AcDbEntity
  8
0
  6
Continuous
 62
     7
370
    15
100
AcDbCircle
 10
202.2460062087
 20
129.7231569588
 30
0.0
 40
2.000000000000028
  0
CIRCLE
  5
15E
330
1F
100
AcDbEntity
  8
0
  6
Continuous
 62
     7
370
    15
100
AcDbCircle
 10
202.2460062087
 20
154.7231569588
 30
0.0
 40
2.0
  0
LINE
  5
15F
330
1F
100
AcDbEntity
  8
0
  6
Continuous
 62
     7
370
    15
100
AcDbLine
 10
204.7893722233
 20
133.642063089
 30
0.0
 11
204.7893722233
 21
150.8042508286
 31
0.0
  0
ARC
  5
160
330
1F
100
AcDbEntity
  8
0
  6
Continuous
 62
     7
370
    15
100
AcDbCircle
 10
202.2460062087
 20
129.7231569588
 30
0.0
 40
4.000000000000031
100
AcDbArc
 50
139.2204011302
 51
40.7795988698
  0
LINE
  5
161
330
1F
100
AcDbEntity
  8
0
  6
Continuous
 62
     7
370
    15
100
AcDbLine
 10
199.7026401941
 20
133.642063089
 30
0.0
 11
199.7026401941
 21
150.8042508286
 31
0.0
  0
ARC
  5
162
330
1F
100
AcDbEntity
  8
0
  6
Continuous
 62
     7
370
    15
100
AcDbCircle
 10
208.8013724976
 20
151.1285831244
 30
0.0
 40
2.000000000000028
100
AcDbArc
 50
0.0
 51
40.7795988698
  0
ARC
  5
163
330
1F
100
AcDbEntity
  8
0
  6
Continuous
 62
     7
370
    15
100
AcDbCircle
 10
217.8881045268
 20
151.1285831244
 30
0.0
 40
2.000000000000036
100
AcDbArc
 50
139.2204011302
 51
180.0
  0
ARC
  5
164
330
1F
100
AcDbEntity
  8
0
  6
Continuous
 62
     7
370
    15
100
AcDbCircle
 10
217.8881045268
 20
133.9663953848
 30
0.0
 40
2.000000000000017
100
AcDbArc
 50
180.0
 51
220.7795988698
  0
ARC
  5
165
330
1F
100
AcDbEntity
  8
0
  6
Continuous
 62
     7
370
    15
100
AcDbCircle
 10
208.8013724976
 20
133.9663953848
 30
0.0
 40
2.000000000000028
100
AcDbArc
 50
319.2204011302
 51
0.0
  0
ARC
  5
166
330
1F
100
AcDbEntity
  8
0
  6
Continuous
 62
     7
370
    15
100
AcDbCircle
 10
213.3447385122
 20
155.0474892546
 30
0.0
 40
4.000000000000012
100
AcDbArc
 50
319.2204011302
 51
220.7795988698
  0
CIRCLE
  5
167
330
1F
100
AcDbEntity
  8
0
  6
Continuous
 62
     7
370
    15
100
AcDbCircle
 10
213.3447385122
 20
130.0474892546
 30
0.0
 40
2.000000000000028
  0
CIRCLE
  5
168
330
1F
100
AcDbEntity
  8
0
  6
Continuous
 62
     7
370
    15
100
AcDbCircle
 10
213.3447385122
 20
155.0474892546
 30
0.0
 40
2.0
  0
LINE
  5
169
330
1F
100
AcDbEntity
  8
0
  6
Continuous
 62
     7
370
    15
100
AcDbLine
 10
215.8881045268
 20
133.9663953848
 30
0.0
 11
215.8881045268
 21
151.1285831244
 31
0.0
  0
ARC
  5
16A
330
1F
100
AcDbEntity
  8
0
  6
Continuous
 62
     7
370
    15
100
AcDbCircle
 10
213.3447385122
 20
130.0474892546
 30
0.0
 40
4.000000000000031
100
AcDbArc
 50
139.2204011302
 51
40.7795988698
  0
LINE
  5
16B
330
1F
100
AcDbEntity
  8
0
  6
Continuous
 62
     7
370
    15
100
AcDbLine
 10
210.8013724976
 20
133.9663953848
 30
0.0
 11
210.8013724976
 21
151.1285831244
 31
0.0
  0
ARC
  5
16C
330
1F
100
AcDbEntity
  8
0
  6
Continuous
 62
     7
370
    15
100
AcDbCircle
 10
222.4810693049
 20
109.1605660598
 30
0.0
 40
2.0
100
AcDbArc
 50
270.0
 51
310.7795988698
  0
ARC
  5
16D
330
1F
100
AcDbEntity
  8
0
  6
Continuous
 62
     7
370
    15
100
AcDbCircle
 10
222.4810693049
 20
100.0738340306
 30
0.0
 40
1.999999999999986
100
AcDbArc
 50
49.2204011302
 51
90.0
  0
ARC
  5
16E
330
1F
100
AcDbEntity
  8
0
  6
Continuous
 62
     7
370
    15
100
AcDbCircle
 10
205.3188815653
 20
100.0738340306
 30
0.0
 40
2.0
100
AcDbArc
 50
90.0
 51
130.7795988698
  0
ARC
  5
16F
330
1F
100
AcDbEntity
  8
0
  6
Continuous
 62
     7
370
    15
100
AcDbCircle
 10
205.3188815653
 20
109.1605660598
 30
0.0
 40
2.0
100
AcDbArc
 50
229.2204011302
 51
270.0
  0
ARC
  5
170
330
1F
100
AcDbEntity
  8
0
  6
Continuous
 62
     7
370
    15
100
AcDbCircle
 10
226.3999754351
 20
104.6172000452
 30
0.0
 40
4.00000000000002
100
AcDbArc
 50
229.2204011302
 51
130.7795988698
  0
CIRCLE
  5
171
330
1F
100
AcDbEntity
  8
0
  6
Continuous
 62
     7
370
    15
100
AcDbCircle
 10
201.3999754351
 20
104.6172000452
 30
0.0
 40
2.0
  0
CIRCLE
  5
172
330
1F
100
AcDbEntity
  8
0
  6
Continuous
 62
     7
370
    15
100
AcDbCircle
 10
226.3999754351
 20
104.6172000452
 30
0.0
 40
2.0
  0
LINE
  5
173
330
1F
100
AcDbEntity
  8
0
  6
Continuous
 62
     7
370
    15
100
AcDbLine
 10
205.3188815653
 20
102.0738340306
 30
0.0
 11
222.4810693049
 21
102.0738340306
 31
0.0
  0
ARC
  5
174
330
1F
100
AcDbEntity
  8
0
  6
Continuous
 62
     7
370
    15
100
AcDbCircle
 10
201.3999754351
 20
104.6172000452
 30
0.0
 40
4.00000000000002
100
AcDbArc
 50
49.2204011302
 51
310.7795988698
  0
LINE
  5
175
330
1F
100
AcDbEntity
  8
0
  6
Continuous
 62
     7
370
    15
100
AcDbLine
 10
205.3188815653
 20
107.1605660598
 30
0.0
 11
222.4810693049
 21
107.1605660598
 31
0.0
  0
ARC
  5
176
330
1F
100
AcDbEntity
  8
0
  6
Continuous
 62
     7
370
    15
100
AcDbCircle
 10
221.9438508429
 20
170.4314952793
 30
0.0
 40
2.0
100
AcDbArc
 50
270.0
 51
310.7795988698
  0
ARC
  5
177
330
1F
100
AcDbEntity
  8
0
  6
Continuous
 62
     7
370
    15
100
AcDbCircle
 10
221.9438508429
 20
161.3447632501
 30
0.0
 40
2.0
100
AcDbArc
 50
49.2204011302
 51
90.0
  0
ARC
  5
178
330
1F
100
AcDbEntity
  8
0
  6
Continuous
 62
     7
370
    15
100
AcDbCircle
 10
204.7816631033
 20
161.3447632501
 30
0.0
 40
2.000000000000014
100
AcDbArc
 50
90.0
 51
130.7795988698
  0
ARC
  5
179
330
1F
100
AcDbEntity
  8
0
  6
Continuous
 62
     7
370
    15
100
AcDbCircle
 10
204.7816631033
 20
170.4314952793
 30
0.0
 40
2.0
100
AcDbArc
 50
229.2204011302
 51
270.0
  0
ARC
  5
17A
330
1F
100
AcDbEntity
  8
0
  6
Continuous
 62
     7
370
    15
100
AcDbCircle
 10
225.8627569731
 20
165.8881292647
 30
0.0
 40
4.000000000000031
100
AcDbArc
 50
229.2204011302
 51
130.7795988698
  0
CIRCLE
  5
17B
330
1F
100
AcDbEntity
  8
0
  6
Continuous
 62
     7
370
    15
100
AcDbCircle
 10
200.8627569731
 20
165.8881292647
 30
0.0
 40
2.0
  0
CIRCLE
  5
17C
330
1F
100
AcDbEntity
  8
0
  6
Continuous
 62
     7
370
    15
100
AcDbCircle
 10
225.8627569731
 20
165.8881292647
 30
0.0
 40
2.0
  0
LINE
  5
17D
330
1F
100
AcDbEntity
  8
0
  6
Continuous
 62
     7
370
    15
100
AcDbLine
 10
204.7816631033
 20
163.3447632501
 30
0.0
 11
221.9438508429
 21
163.3447632501
 31
0.0
  0
ARC
  5
17E
330
1F
100
AcDbEntity
  8
0
  6
Continuous
 62
     7
370
    15
100
AcDbCircle
 10
200.8627569731
 20
165.8881292647
 30
0.0
 40
4.000000000000012
100
AcDbArc
 50
49.2204011302
 51
310.7795988698
  0
LINE
  5
17F
330
1F
100
AcDbEntity
  8
0
  6
Continuous
 62
     7
370
    15
100
AcDbLine
 10
204.7816631033
 20
168.4314952793
 30
0.0
 11
221.9438508429
 21
168.4314952793
 31
0.0
  0
CIRCLE
  5
180
330
1F
100
AcDbEntity
  8
0
  6
Continuous
 62
     7
370
    15
100
AcDbCircle
 10
222.3853746929
 20
230.3082377889
 30
0.0
 40
2.0
  0
ARC
  5
181
330
1F
100
AcDbEntity
  8
0
  6
Continuous
 62
     7
370
    15
100
AcDbCircle
 10
222.3853746929
 20
248.3082377889
 30
0.0
 40
5.0
100
AcDbArc
 50
90.0
 51
180.0
  0
LINE
  5
182
330
1F
100
AcDbEntity
  8
0
  6
Continuous
 62
     7
370
    15
100
AcDbLine
 10
268.3846646093
 20
253.3082377889
 30
0.0
 11
222.3853746929
 21
253.3082377889
 31
0.0
  0
ARC
  5
183
330
1F
100
AcDbEntity
  8
0
  6
Continuous
 62
     7
370
    15
100
AcDbCircle
 10
268.3846646093
 20
263.3082377889
 30
0.0
 40
9.999999999999982
100
AcDbArc
 50
270.0
 51
274.6578972637
  0
ARC
  5
184
330
1F
100
AcDbEntity
  8
0
  6
Continuous
 62
     7
370
    15
100
AcDbCircle
 10
272.4654550732
 20
213.2219555461
 30
0.0
 40
40.25224890214768
100
AcDbArc
 50
1.4598393925
 51
94.6578972637
  0
ARC
  5
185
330
1F
100
AcDbEntity
  8
0
  6
Continuous
 62
     7
370
    15
100
AcDbCircle
 10
311.7049637841
 20
214.2219555461
 30
0.0
 40
1.0
100
AcDbArc
 50
270.0
 51
1.4598393925
  0
LINE
  5
186
330
1F
100
AcDbEntity
  8
0
  6
Continuous
 62
     7
370
    15
100
AcDbLine
 10
303.4493218428
 20
213.2219555461
 30
0.0
 11
311.7049637841
 21
213.2219555461
 31
0.0
  0
ARC
  5
187
330
1F
100
AcDbEntity
  8
0
  6
Continuous
 62
     7
370
    15
100
AcDbCircle
 10
303.4493218428
 20
214.2219555461
 30
0.0
 40
1.000000000000024
100
AcDbArc
 50
181.8485716452
 51
270.0
  0
ARC
  5
188
330
1F
100
AcDbEntity
  8
0
  6
Continuous
 62
     7
370
    15
100
AcDbCircle
 10
272.4654550732
 20
213.2219555461
 30
0.0
 40
30.00000000000005
100
AcDbArc
 50
1.8485716452
 51
178.1514283548
  0
ARC
  5
189
330
1F
100
AcDbEntity
  8
0
  6
Continuous
 62
     7
370
    15
100
AcDbCircle
 10
241.4815883035
 20
214.2219555461
 30
0.0
 40
1.0
100
AcDbArc
 50
270.0
 51
358.1514283548
  0
LINE
  5
18A
330
1F
100
AcDbEntity
  8
0
  6
Continuous
 62
     7
370
    15
100
AcDbLine
 10
237.4797437041
 20
213.2219555461
 30
0.0
 11
241.4815883035
 21
213.2219555461
 31
0.0
  0
ARC
  5
18B
330
1F
100
AcDbEntity
  8
0
  6
Continuous
 62
     7
370
    15
100
AcDbCircle
 10
237.4797437041
 20
214.2219555461
 30
0.0
 40
1.000000000000006
100
AcDbArc
 50
178.3627549222
 51
270.0
  0
ARC
  5
18C
330
1F
100
AcDbEntity
  8
0
  6
Continuous
 62
     7
370
    15
100
AcDbCircle
 10
272.4654550732
 20
213.2219555461
 30
0.0
 40
35.99999999999997
100
AcDbArc
 50
175.6829665389
 51
178.3627549222
  0
ARC
  5
18D
330
1F
100
AcDbEntity
  8
0
  6
Continuous
 62
     7
370
    15
100
AcDbCircle
 10
231.5817803127
 20
216.3082377889
 30
0.0
 40
5.000000000000028
100
AcDbArc
 50
355.6829665389
 51
90.0
  0
LINE
  5
18E
330
1F
100
AcDbEntity
  8
0
  6
Continuous
 62
     7
370
    15
100
AcDbLine
 10
222.3853746929
 20
221.3082377889
 30
0.0
 11
231.5817803127
 21
221.3082377889
 31
0.0
  0
ARC
  5
18F
330
1F
100
AcDbEntity
  8
0
  6
Continuous
 62
     7
370
    15
100
AcDbCircle
 10
222.3853746929
 20
226.3082377889
 30
0.0
 40
5.0
100
AcDbArc
 50
180.0
 51
270.0
  0
LINE
  5
190
330
1F
100
AcDbEntity
  8
0
  6
Continuous
 62
     7
370
    15
100
AcDbLine
 10
217.3853746929
 20
248.3082377889
 30
0.0
 11
217.3853746929
 21
226.3082377889
 31
0.0
  0
CIRCLE
  5
191
330
1F
100
AcDbEntity
  8
0
  6
Continuous
 62
     7
370
    15
100
AcDbCircle
 10
222.3853746929
 20
248.3082377889
 30
0.0
 40
2.0
  0
CIRCLE
  5
192
330
1F
100
AcDbEntity
  8
0
  6
Continuous
 62
     7
370
    15
100
AcDbCircle
 10
343.6865884295
 20
208.6260760625
 30
0.0
 40
1.999999999999972
  0
ARC
  5
193
330
1F
100
AcDbEntity
  8
0
  6
Continuous
 62
     7
370
    15
100
AcDbCircle
 10
343.6865884295
 20
190.6260760625
 30
0.0
 40
5.0
100
AcDbArc
 50
270.0
 51
0.0
  0
LINE
  5
194
330
1F
100
AcDbEntity
  8
0
  6
Continuous
 62
     7
370
    15
100
AcDbLine
 10
297.687298513
 20
185.6260760625
 30
0.0
 11
343.6865884295
 21
185.6260760625
 31
0.0
  0
ARC
  5
195
330
1F
100
AcDbEntity
  8
0
  6
Continuous
 62
     7
370
    15
100
AcDbCircle
 10
297.687298513
 20
175.6260760625
 30
0.0
 40
10.0
100
AcDbArc
 50
90.0
 51
94.6578972637
  0
ARC
  5
196
330
1F
100
AcDbEntity
  8
0
  6
Continuous
 62
     7
370
    15
100
AcDbCircle
 10
293.6065080492
 20
225.7123583054
 30
0.0
 40
40.25224890214768
100
AcDbArc
 50
181.4598393925
 51
274.6578972637
  0
ARC
  5
197
330
1F
100
AcDbEntity
  8
0
  6
Continuous
 62
     7
370
    15
100
AcDbCircle
 10
254.3669993382
 20
224.7123583054
 30
0.0
 40
1.000000000000002
100
AcDbArc
 50
90.0
 51
181.4598393925
  0
LINE
  5
198
330
1F
100
AcDbEntity
  8
0
  6
Continuous
 62
     7
370
    15
100
AcDbLine
 10
262.6226412795
 20
225.7123583054
 30
0.0
 11
254.3669993382
 21
225.7123583054
 31
0.0
  0
ARC
  5
199
330
1F
100
AcDbEntity
  8
0
  6
Continuous
 62
     7
370
    15
100
AcDbCircle
 10
262.6226412795
 20
224.7123583054
 30
0.0
 40
1.0
100
AcDbArc
 50
1.8485716452
 51
90.0
  0
ARC
  5
19A
330
1F
100
AcDbEntity
  8
0
  6
Continuous
 62
     7
370
    15
100
AcDbCircle
 10
293.6065080492
 20
225.7123583054
 30
0.0
 40
30.0
100
AcDbArc
 50
181.8485716452
 51
358.1514283548
  0
ARC
  5
19B
330
1F
100
AcDbEntity
  8
0
  6
Continuous
 62
     7
370
    15
100
AcDbCircle
 10
324.5903748188
 20
224.7123583054
 30
0.0
 40
1.0
100
AcDbArc
 50
90.0
 51
178.1514283548
  0
LINE
  5
19C
330
1F
100
AcDbEntity
  8
0
  6
Continuous
 62
     7
370
    15
100
AcDbLine
 10
328.5922194182
 20
225.7123583054
 30
0.0
 11
324.5903748188
 21
225.7123583054
 31
0.0
  0
ARC
  5
19D
330
1F
100
AcDbEntity
  8
0
  6
Continuous
 62
     7
370
    15
100
AcDbCircle
 10
328.5922194182
 20
224.7123583054
 30
0.0
 40
1.000000000000062
100
AcDbArc
 50
358.3627549222
 51
90.0
  0
ARC
  5
19E
330
1F
100
AcDbEntity
  8
0
  6
Continuous
 62
     7
370
    15
100
AcDbCircle
 10
293.6065080492
 20
225.7123583054
 30
0.0
 40
36.00000000000006
100
AcDbArc
 50
355.6829665389
 51
358.3627549222
  0
ARC
  5
19F
330
1F
100
AcDbEntity
  8
0
  6
Continuous
 62
     7
370
    15
100
AcDbCircle
 10
334.4901828096
 20
222.6260760625
 30
0.0
 40
5.000000000000048
100
AcDbArc
 50
175.6829665389
 51
270.0
  0
LINE
  5
1A0
330
1F
100
AcDbEntity
  8
0
  6
Continuous
 62
     7
370
    15
100
AcDbLine
 10
343.6865884295
 20
217.6260760625
 30
0.0
 11
334.4901828096
 21
217.6260760625
 31
0.0
  0
ARC
  5
1A1
330
1F
100
AcDbEntity
  8
0
  6
Continuous
 62
     7
370
    15
100
AcDbCircle
 10
343.6865884295
 20
212.6260760625
 30
0.0
 40
5.0
100
AcDbArc
 50
0.0
 51
90.0
  0
LINE
  5
1A2
330
1F
100
AcDbEntity
  8
0
  6
Continuous
 62
     7
370
    15
100
AcDbLine
 10
348.6865884295
 20
190.6260760625
 30
0.0
 11
348.6865884295
 21
212.6260760625
 31
0.0
  0
CIRCLE
  5
1A3
330
1F
100
AcDbEntity
  8
0
  6
Continuous
 62
     7
370
    15
100
AcDbCircle
 10
343.6865884295
 20
190.6260760625
 30
0.0
 40
2.0
  0
CIRCLE
  5
1A4
330
1F
100
AcDbEntity
  8
0
  6
Continuous
 62
     7
370
    15
100
AcDbCircle
 10
114.8013046127
 20
47.3330276831
 30
0.0
 40
2.0
  0
CIRCLE
  5
1A5
330
1F
100
AcDbEntity
  8
0
  6
Continuous
 62
     7
370
    15
100
AcDbCircle
 10
24.8013046127
 20
47.3330276831
 30
0.0
 40
2.000000000000004
  0
LINE
  5
1A6
330
1F
100
AcDbEntity
  8
0
  6
Continuous
 62
     7
370
    15
100
AcDbLine
 10
24.8013046127
 20
39.8330276831
 30
0.0
 11
114.8013046127
 21
39.8330276831
 31
0.0
  0
ARC
  5
1A7
330
1F
100
AcDbEntity
  8
0
  6
Continuous
 62
     7
370
    15
100
AcDbCircle
 10
24.8013046127
 20
47.3330276831
 30
0.0
 40
7.5
100
AcDbArc
 50
90.0
 51
270.0
  0
LINE
  5
1A8
330
1F
100
AcDbEntity
  8
0
  6
Continuous
 62
     7
370
    15
100
AcDbLine
 10
24.8013046127
 20
54.8330276831
 30
0.0
 11
114.8013046127
 21
54.8330276831
 31
0.0
  0
ARC
  5
1A9
330
1F
100
AcDbEntity
  8
0
  6
Continuous
 62
     7
370
    15
100
AcDbCircle
 10
114.8013046127
 20
47.3330276831
 30
0.0
 40
7.5
100
AcDbArc
 50
270.0
 51
90.0
  0
CIRCLE
  5
1AA
330
1F
100
AcDbEntity
  8
0
  6
Continuous
 62
     7
370
    15
100
AcDbCircle
 10
224.0381661534
 20
44.5988861442
 30
0.0
 40
2.000000000000028
  0
CIRCLE
  5
1AB
330
1F
100
AcDbEntity
  8
0
  6
Continuous
 62
     7
370
    15
100
AcDbCircle
 10
134.0381661534
 20
44.5988861442
 30
0.0
 40
2.0
  0
LINE
  5
1AC
330
1F
100
AcDbEntity
  8
0
  6
Continuous
 62
     7
370
    15
100
AcDbLine
 10
134.0381661534
 20
37.0988861442
 30
0.0
 11
224.0381661534
 21
37.0988861442
 31
0.0
  0
ARC
  5
1AD
330
1F
100
AcDbEntity
  8
0
  6
Continuous
 62
     7
370
    15
100
AcDbCircle
 10
134.0381661534
 20
44.5988861442
 30
0.0
 40
7.5
100
AcDbArc
 50
90.0
 51
270.0
  0
LINE
  5
1AE
330
1F
100
AcDbEntity
  8
0
  6
Continuous
 62
     7
370
    15
100
AcDbLine
 10
134.0381661534
 20
52.0988861442
 30
0.0
 11
224.0381661534
 21
52.0988861442
 31
0.0
  0
ARC
  5
1AF
330
1F
100
AcDbEntity
  8
0
  6
Continuous
 62
     7
370
    15
100
AcDbCircle
 10
224.0381661534
 20
44.5988861442
 30
0.0
 40
7.5
100
AcDbArc
 50
270.0
 51
90.0
  0
CIRCLE
  5
1B0
330
1F
100
AcDbEntity
  8
0
  6
Continuous
 62
     7
370
    15
100
AcDbCircle
 10
226.1383261973
 20
63.4709353676
 30
0.0
 40
2.0
  0
CIRCLE
  5
1B1
330
1F
100
AcDbEntity
  8
0
  6
Continuous
 62
     7
370
    15
100
AcDbCircle
 10
136.1383261973
 20
63.4709353676
 30
0.0
 40
2.0
  0
LINE
  5
1B2
330
1F
100
AcDbEntity
  8
0
  6
Continuous
 62
     7
370
    15
100
AcDbLine
 10
136.1383261973
 20
55.9709353676
 30
0.0
 11
226.1383261973
 21
55.9709353676
 31
0.0
  0
ARC
  5
1B3
330
1F
100
AcDbEntity
  8
0
  6
Continuous
 62
     7
370
    15
100
AcDbCircle
 10
136.1383261973
 20
63.4709353676
 30
0.0
 40
7.5
100
AcDbArc
 50
90.0
 51
270.0
  0
LINE
  5
1B4
330
1F
100
AcDbEntity
  8
0
  6
Continuous
 62
     7
370
    15
100
AcDbLine
 10
136.1383261973
 20
70.9709353676
 30
0.0
 11
226.1383261973
 21
70.9709353676
 31
0.0
  0
ARC
  5
1B5
330
1F
100
AcDbEntity
  8
0
  6
Continuous
 62
     7
370
    15
100
AcDbCircle
 10
226.1383261973
 20
63.4709353676
 30
0.0
 40
7.5
100
AcDbArc
 50
270.0
 51
90.0
  0
CIRCLE
  5
1B6
330
1F
100
AcDbEntity
  8
0
  6
Continuous
 62
     7
370
    15
100
AcDbCircle
 10
115.302486153
 20
66.3458892292
 30
0.0
 40
2.0
  0
CIRCLE
  5
1B7
330
1F
100
AcDbEntity
  8
0
  6
Continuous
 62
     7
370
    15
100
AcDbCircle
 10
25.302486153
 20
66.3458892292
 30
0.0
 40
2.0
  0
LINE
  5
1B8
330
1F
100
AcDbEntity
  8
0
  6
Continuous
 62
     7
370
    15
100
AcDbLine
 10
25.302486153
 20
58.8458892292
 30
0.0
 11
115.302486153
 21
58.8458892292
 31
0.0
  0
ARC
  5
1B9
330
1F
100
AcDbEntity
  8
0
  6
Continuous
 62
     7
370
    15
100
AcDbCircle
 10
25.302486153
 20
66.3458892292
 30
0.0
 40
7.500000000000007
100
AcDbArc
 50
90.0
 51
270.0
  0
LINE
  5
1BA
330
1F
100
AcDbEntity
  8
0
  6
Continuous
 62
     7
370
    15
100
AcDbLine
 10
25.302486153
 20
73.8458892292
 30
0.0
 11
115.302486153
 21
73.8458892292
 31
0.0
  0
ARC
  5
1BB
330
1F
100
AcDbEntity
  8
0
  6
Continuous
 62
     7
370
    15
100
AcDbCircle
 10
115.302486153
 20
66.3458892292
 30
0.0
 40
7.500000000000007
100
AcDbArc
 50
270.0
 51
90.0
  0
ARC
  5
1BC
330
1F
100
AcDbEntity
  8
0
  6
Continuous
 62
     7
370
    15
100
AcDbCircle
 10
144.4925511191
 20
83.3046495275
 30
0.0
 40
7.5
100
AcDbArc
 50
180.0
 51
0.0
  0
CIRCLE
  5
1BD
330
1F
100
AcDbEntity
  8
0
  6
Continuous
 62
     7
370
    15
100
AcDbCircle
 10
144.4925511191
 20
123.3046495275
 30
0.0
 40
2.0
  0
CIRCLE
  5
1BE
330
1F
100
AcDbEntity
  8
0
  6
Continuous
 62
     7
370
    15
100
AcDbCircle
 10
144.4925511191
 20
173.3046495275
 30
0.0
 40
2.0
  0
CIRCLE
  5
1BF
330
1F
100
AcDbEntity
  8
0
  6
Continuous
 62
     7
370
    15
100
AcDbCircle
 10
144.4925511191
 20
83.3046495275
 30
0.0
 40
2.0
  0
LINE
  5
1C0
330
1F
100
AcDbEntity
  8
0
  6
Continuous
 62
     7
370
    15
100
AcDbLine
 10
136.9925511191
 20
83.3046495275
 30
0.0
 11
136.9925511191
 21
173.3046495275
 31
0.0
  0
ARC
  5
1C1
330
1F
100
AcDbEntity
  8
0
  6
Continuous
 62
     7
370
    15
100
AcDbCircle
 10
144.4925511191
 20
173.3046495275
 30
0.0
 40
7.5
100
AcDbArc
 50
0.0
 51
180.0
  0
LINE
  5
1C2
330
1F
100
AcDbEntity
  8
0
  6
Continuous
 62
     7
370
    15
100
AcDbLine
 10
151.9925511191
 20
83.3046495275
 30
0.0
 11
151.9925511191
 21
173.3046495275
 31
0.0
  0
ARC
  5
1C3
330
1F
100
AcDbEntity
  8
0
  6
Continuous
 62
     7
370
    15
100
AcDbCircle
 10
165.0363172648
 20
80.5284649132
 30
0.0
 40
7.5
100
AcDbArc
 50
180.0
 51
0.0
  0
CIRCLE
  5
1C4
330
1F
100
AcDbEntity
  8
0
  6
Continuous
 62
     7
370
    15
100
AcDbCircle
 10
165.0363172648
 20
120.5284649132
 30
0.0
 40
2.0
  0
CIRCLE
  5
1C5
330
1F
100
AcDbEntity
  8
0
  6
Continuous
 62
     7
370
    15
100
AcDbCircle
 10
165.0363172648
 20
170.5284649132
 30
0.0
 40
2.0
  0
CIRCLE
  5
1C6
330
1F
100
AcDbEntity
  8
0
  6
Continuous
 62
     7
370
    15
100
AcDbCircle
 10
165.0363172648
 20
80.5284649132
 30
0.0
 40
2.0
  0
LINE
  5
1C7
330
1F
100
AcDbEntity
  8
0
  6
Continuous
 62
     7
370
    15
100
AcDbLine
 10
157.5363172648
 20
80.5284649132
 30
0.0
 11
157.5363172648
 21
170.5284649132
 31
0.0
  0
ARC
  5
1C8
330
1F
100
AcDbEntity
  8
0
  6
Continuous
 62
     7
370
    15
100
AcDbCircle
 10
165.0363172648
 20
170.5284649132
 30
0.0
 40
7.5
100
AcDbArc
 50
0.0
 51
180.0
  0
LINE
  5
1C9
330
1F
100
AcDbEntity
  8
0
  6
Continuous
 62
     7
370
    15
100
AcDbLine
 10
172.5363172648
 20
80.5284649132
 30
0.0
 11
172.5363172648
 21
170.5284649132
 31
0.0
  0
ENDSEC
  0
SECTION
  2
OBJECTS
  0
DICTIONARY
  5
C
330
0
100
AcDbDictionary
281
     1
  3
ACAD_GROUP
350
D
  3
ACAD_LAYOUT
350
1A
  3
ACAD_MLINESTYLE
350
17
  3
ACAD_PLOTSETTINGS
350
19
  3
ACAD_PLOTSTYLENAME
350
E
  3
ACAD_SCALELIST
350
47
  0
DICTIONARY
  5
D
102
{ACAD_REACTORS
330
C
102
}
330
C
100
AcDbDictionary
281
     1
  0
DICTIONARY
  5
1A
102
{ACAD_REACTORS
330
C
102
}
330
C
100
AcDbDictionary
281
     1
  3
Layout1
350
1E
  3
Layout2
350
26
  3
Model
350
22
  0
DICTIONARY
  5
17
102
{ACAD_REACTORS
330
C
102
}
330
C
100
AcDbDictionary
281
     1
  3
Standard
350
18
  0
DICTIONARY
  5
19
102
{ACAD_REACTORS
330
C
102
}
330
C
100
AcDbDictionary
281
     1
  0
ACDBDICTIONARYWDFLT
  5
E
102
{ACAD_REACTORS
330
C
102
}
330
C
100
AcDbDictionary
281
     1
  3
Normal
350
F
100
AcDbDictionaryWithDefault
340
F
  0
DICTIONARY
  5
47
102
{ACAD_REACTORS
330
C
102
}
330
C
100
AcDbDictionary
281
     1
  3
A0
350
48
  3
A1
350
49
  3
A2
350
4A
  3
A3
350
4B
  3
A4
350
4C
  3
A5
350
4D
  3
A6
350
4E
  3
A7
350
4F
  3
A8
350
50
  3
A9
350
51
  3
B0
350
52
  3
B1
350
53
  3
B2
350
54
  3
B3
350
55
  3
B4
350
56
  3
B5
350
57
  3
B6
350
58
  3
B7
350
59
  3
B8
350
5A
  3
B9
350
5B
  3
C0
350
5C
  3
C1
350
5D
  3
C2
350
5E
  3
C3
350
5F
  3
C4
350
60
  3
C5
350
61
  3
C6
350
62
  3
C7
350
63
  3
C8
350
64
  3
C9
350
65
  3
D0
350
66
  3
D1
350
67
  3
D2
350
68
  0
LAYOUT
  5
1E
102
{ACAD_REACTORS
330
1A
102
}
330
1A
100
AcDbPlotSettings
  1

  2
none_device
  4

  6

 40
0.0
 41
0.0
 42
0.0
 43
0.0
 44
0.0
 45
0.0
 46
0.0
 47
0.0
 48
0.0
 49
0.0
140
0.0
141
0.0
142
1.0
143
1.0
 70
   688
 72
     1
 73
     0
 74
     5
  7

 75
    16
147
1.0
148
0.0
149
0.0
100
AcDbLayout
  1
Layout1
 70
     1
 71
     1
 10
0.0
 20
0.0
 11
420.0
 21
297.0
 12
0.0
 22
0.0
 32
0.0
 14
1.0000000000E+20
 24
1.0000000000E+20
 34
1.0000000000E+20
 15
-1.0000000000E+20
 25
-1.0000000000E+20
 35
-1.0000000000E+20
146
0.0
 13
0.0
 23
0.0
 33
0.0
 16
1.0
 26
0.0
 36
0.0
 17
0.0
 27
1.0
 37
0.0
 76
     0
330
1B
  0
LAYOUT
  5
26
102
{ACAD_REACTORS
330
1A
102
}
330
1A
100
AcDbPlotSettings
  1

  2
none_device
  4

  6

 40
0.0
 41
0.0
 42
0.0
 43
0.0
 44
0.0
 45
0.0
 46
0.0
 47
0.0
 48
0.0
 49
0.0
140
0.0
141
0.0
142
1.0
143
1.0
 70
   688
 72
     1
 73
     0
 74
     5
  7

 75
    16
147
1.0
148
0.0
149
0.0
100
AcDbLayout
  1
Layout2
 70
     1
 71
     2
 10
0.0
 20
0.0
 11
0.0
 21
0.0
 12
0.0
 22
0.0
 32
0.0
 14
0.0
 24
0.0
 34
0.0
 15
0.0
 25
0.0
 35
0.0
146
0.0
 13
0.0
 23
0.0
 33
0.0
 16
1.0
 26
0.0
 36
0.0
 17
0.0
 27
1.0
 37
0.0
 76
     0
330
23
  0
LAYOUT
  5
22
102
{ACAD_REACTORS
330
1A
102
}
330
1A
100
AcDbPlotSettings
  1

  2
none_device
  4
Letter_(8.50_x_11.00_Inches)
  6

 40
6.35
 41
6.35
 42
6.35000508
 43
6.35000508
 44
215.9
 45
279.4
 46
0.0
 47
0.0
 48
0.0
 49
0.0
140
0.0
141
0.0
142
1.0
143
1.0
 70
  1712
 72
     1
 73
     0
 74
     0
  7

 75
     0
147
1.0
148
0.0
149
0.0
100
AcDbLayout
  1
Model
 70
     1
 71
     0
 10
0.0
 20
0.0
 11
720.0
 21
420.0
 12
0.0
 22
0.0
 32
0.0
 14
0.0
 24
0.0
 34
0.0
 15
720.0
 25
420.0
 35
0.0
146
0.0
 13
0.0
 23
0.0
 33
0.0
 16
1.0
 26
0.0
 36
0.0
 17
0.0
 27
1.0
 37
0.0
 76
     0
330
1F
331
29
  0
MLINESTYLE
  5
18
102
{ACAD_REACTORS
330
17
102
}
330
17
100
AcDbMlineStyle
  2
Standard
 70
     0
  3

 62
   256
 51
90.0
 52
90.0
 71
     2
 49
0.5
 62
   256
  6
BYLAYER
 49
-0.5
 62
   256
  6
BYLAYER
  0
ACDBPLACEHOLDER
  5
F
102
{ACAD_REACTORS
330
E
102
}
330
E
  0
SCALE
  5
48
102
{ACAD_REACTORS
330
47
102
}
330
47
100
AcDbScale
 70
     0
300
1:1
140
1.0
141
1.0
290
     1
  0
SCALE
  5
49
102
{ACAD_REACTORS
330
47
102
}
330
47
100
AcDbScale
 70
     0
300
1:2
140
1.0
141
2.0
290
     0
  0
SCALE
  5
4A
102
{ACAD_REACTORS
330
47
102
}
330
47
100
AcDbScale
 70
     0
300
1:4
140
1.0
141
4.0
290
     0
  0
SCALE
  5
4B
102
{ACAD_REACTORS
330
47
102
}
330
47
100
AcDbScale
 70
     0
300
1:5
140
1.0
141
5.0
290
     0
  0
SCALE
  5
4C
102
{ACAD_REACTORS
330
47
102
}
330
47
100
AcDbScale
 70
     0
300
1:8
140
1.0
141
8.0
290
     0
  0
SCALE
  5
4D
102
{ACAD_REACTORS
330
47
102
}
330
47
100
AcDbScale
 70
     0
300
1:10
140
1.0
141
10.0
290
     0
  0
SCALE
  5
4E
102
{ACAD_REACTORS
330
47
102
}
330
47
100
AcDbScale
 70
     0
300
1:16
140
1.0
141
16.0
290
     0
  0
SCALE
  5
4F
102
{ACAD_REACTORS
330
47
102
}
330
47
100
AcDbScale
 70
     0
300
1:20
140
1.0
141
20.0
290
     0
  0
SCALE
  5
50
102
{ACAD_REACTORS
330
47
102
}
330
47
100
AcDbScale
 70
     0
300
1:30
140
1.0
141
30.0
290
     0
  0
SCALE
  5
51
102
{ACAD_REACTORS
330
47
102
}
330
47
100
AcDbScale
 70
     0
300
1:40
140
1.0
141
40.0
290
     0
  0
SCALE
  5
52
102
{ACAD_REACTORS
330
47
102
}
330
47
100
AcDbScale
 70
     0
300
1:50
140
1.0
141
50.0
290
     0
  0
SCALE
  5
53
102
{ACAD_REACTORS
330
47
102
}
330
47
100
AcDbScale
 70
     0
300
1:100
140
1.0
141
100.0
290
     0
  0
SCALE
  5
54
102
{ACAD_REACTORS
330
47
102
}
330
47
100
AcDbScale
 70
     0
300
2:1
140
2.0
141
1.0
290
     0
  0
SCALE
  5
55
102
{ACAD_REACTORS
330
47
102
}
330
47
100
AcDbScale
 70
     0
300
4:1
140
4.0
141
1.0
290
     0
  0
SCALE
  5
56
102
{ACAD_REACTORS
330
47
102
}
330
47
100
AcDbScale
 70
     0
300
8:1
140
8.0
141
1.0
290
     0
  0
SCALE
  5
57
102
{ACAD_REACTORS
330
47
102
}
330
47
100
AcDbScale
 70
     0
300
10:1
140
10.0
141
1.0
290
     0
  0
SCALE
  5
58
102
{ACAD_REACTORS
330
47
102
}
330
47
100
AcDbScale
 70
     0
300
100:1
140
100.0
141
1.0
290
     0
  0
SCALE
  5
59
102
{ACAD_REACTORS
330
47
102
}
330
47
100
AcDbScale
 70
     0
300
1/128" = 1'-0"
140
0.0078125
141
12.0
290
     0
  0
SCALE
  5
5A
102
{ACAD_REACTORS
330
47
102
}
330
47
100
AcDbScale
 70
     0
300
1/64" = 1'-0"
140
0.015625
141
12.0
290
     0
  0
SCALE
  5
5B
102
{ACAD_REACTORS
330
47
102
}
330
47
100
AcDbScale
 70
     0
300
1/32" = 1'-0"
140
0.03125
141
12.0
290
     0
  0
SCALE
  5
5C
102
{ACAD_REACTORS
330
47
102
}
330
47
100
AcDbScale
 70
     0
300
1/16" = 1'-0"
140
0.0625
141
12.0
290
     0
  0
SCALE
  5
5D
102
{ACAD_REACTORS
330
47
102
}
330
47
100
AcDbScale
 70
     0
300
3/32" = 1'-0"
140
0.09375
141
12.0
290
     0
  0
SCALE
  5
5E
102
{ACAD_REACTORS
330
47
102
}
330
47
100
AcDbScale
 70
     0
300
1/8" = 1'-0"
140
0.125
141
12.0
290
     0
  0
SCALE
  5
5F
102
{ACAD_REACTORS
330
47
102
}
330
47
100
AcDbScale
 70
     0
300
3/16" = 1'-0"
140
0.1875
141
12.0
290
     0
  0
SCALE
  5
60
102
{ACAD_REACTORS
330
47
102
}
330
47
100
AcDbScale
 70
     0
300
1/4" = 1'-0"
140
0.25
141
12.0
290
     0
  0
SCALE
  5
61
102
{ACAD_REACTORS
330
47
102
}
330
47
100
AcDbScale
 70
     0
300
3/8" = 1'-0"
140
0.375
141
12.0
290
     0
  0
SCALE
  5
62
102
{ACAD_REACTORS
330
47
102
}
330
47
100
AcDbScale
 70
     0
300
1/2" = 1'-0"
140
0.5
141
12.0
290
     0
  0
SCALE
  5
63
102
{ACAD_REACTORS
330
47
102
}
330
47
100
AcDbScale
 70
     0
300
3/4" = 1'-0"
140
0.75
141
12.0
290
     0
  0
SCALE
  5
64
102
{ACAD_REACTORS
330
47
102
}
330
47
100
AcDbScale
 70
     0
300
1" = 1'-0"
140
1.0
141
12.0
290
     0
  0
SCALE
  5
65
102
{ACAD_REACTORS
330
47
102
}
330
47
100
AcDbScale
 70
     0
300
1-1/2" = 1'-0"
140
1.5
141
12.0
290
     0
  0
SCALE
  5
66
102
{ACAD_REACTORS
330
47
102
}
330
47
100
AcDbScale
 70
     0
300
3" = 1'-0"
140
3.0
141
12.0
290
     0
  0
SCALE
  5
67
102
{ACAD_REACTORS
330
47
102
}
330
47
100
AcDbScale
 70
     0
300
6" = 1'-0"
140
6.0
141
12.0
290
     0
  0
SCALE
  5
68
102
{ACAD_REACTORS
330
47
102
}
330
47
100
AcDbScale
 70
     0
300
1'-0" = 1'-0"
140
12.0
141
12.0
290
     0
  0
ENDSEC
  0
EOF
