  0
SECTION
  2
HEADER
  9
$ACADVER
  1
AC1009
  9
$DWGCODEPAGE
  3
ansi_1252
  9
$INSBASE
 10
0.0
 20
0.0
 30
0.0
  9
$EXTMIN
 10
0.0
 20
0.0
 30
0.0
  9
$EXTMAX
 10
558.8
 20
431.8
 30
0.0
  9
$LIMMIN
 10
0.0
 20
0.0
  9
$LIMMAX
 10
558.8
 20
431.8
  9
$ORTHOMODE
 70
     0
  9
$REGENMODE
 70
     1
  9
$FILLMODE
 70
     1
  9
$QTEXTMODE
 70
     0
  9
$MIRRTEXT
 70
     1
  9
$DRAGMODE
 70
     2
  9
$LTSCALE
 40
1.0
  9
$OSMODE
 70
    37
  9
$ATTMODE
 70
     1
  9
$TEXTSIZE
 40
3.175
  9
$TRACEWID
 40
1.0
  9
$TEXTSTYLE
  7
STANDARD
  9
$CLAYER
  8
0
  9
$CELTYPE
  6
BYLAYER
  9
$CECOLOR
 62
   256
  9
$DIMSCALE
 40
1.0
  9
$DIMASZ
 40
3.302
  9
$DIMEXO
 40
1.27
  9
$DIMDLI
 40
3.75
  9
$DIMRND
 40
0.0
  9
$DIMDLE
 40
0.0
  9
$DIMEXE
 40
3.175
  9
$DIMTP
 40
0.0
  9
$DIMTM
 40
0.0
  9
$DIMTXT
 40
3.175
  9
$DIMCEN
 40
2.5
  9
$DIMTSZ
 40
0.0
  9
$DIMTOL
 70
     0
  9
$DIMLIM
 70
     0
  9
$DIMTIH
 70
     1
  9
$DIMTOH
 70
     1
  9
$DIMSE1
 70
     0
  9
$DIMSE2
 70
     0
  9
$DIMTAD
 70
     0
  9
$DIMZIN
 70
     0
  9
$DIMBLK
  1

  9
$DIMASO
 70
     1
  9
$DIMSHO
 70
     1
  9
$DIMPOST
  1

  9
$DIMAPOST
  1

  9
$DIMALT
 70
     0
  9
$DIMALTD
 70
     3
  9
$DIMALTF
 40
0.0393700787
  9
$DIMLFAC
 40
0.5
  9
$DIMTOFL
 70
     1
  9
$DIMTVP
 40
0.0
  9
$DIMTIX
 70
     0
  9
$DIMSOXD
 70
     0
  9
$DIMSAH
 70
     0
  9
$DIMBLK1
  1

  9
$DIMBLK2
  1

  9
$DIMSTYLE
  2
ISO-25
  9
$DIMCLRD
 70
     0
  9
$DIMCLRE
 70
     0
  9
$DIMCLRT
 70
     0
  9
$DIMTFAC
 40
1.0
  9
$DIMGAP
 40
1.524
  9
$LUNITS
 70
     2
  9
$LUPREC
 70
     2
  9
$SKETCHINC
 40
1.0
  9
$FILLETRAD
 40
10.0
  9
$AUNITS
 70
     0
  9
$AUPREC
 70
     2
  9
$MENU
  1
.
  9
$ELEVATION
 40
0.0
  9
$PELEVATION
 40
0.0
  9
$THICKNESS
 40
0.0
  9
$LIMCHECK
 70
     0
  9
$CHAMFERA
 40
0.0
  9
$CHAMFERB
 40
0.0
  9
$SKPOLY
 70
     0
  9
$TDCREATE
 40
2457736.839204306
  9
$TDUPDATE
 40
2457736.839205035
  9
$TDINDWG
 40
0.0000000116
  9
$TDUSRTIMER
 40
0.0000000116
  9
$USRTIMER
 70
     1
  9
$ANGBASE
 50
0.0
  9
$ANGDIR
 70
     0
  9
$PDMODE
 70
     0
  9
$PDSIZE
 40
-1.0
  9
$PLINEWID
 40
0.0
  9
$COORDS
 70
     1
  9
$SPLFRAME
 70
     0
  9
$SPLINETYPE
 70
     6
  9
$SPLINESEGS
 70
     8
  9
$ATTDIA
 70
     0
  9
$ATTREQ
 70
     1
  9
$HANDLING
 70
     1
  9
$HANDSEED
  5
1A1
  9
$SURFTAB1
 70
     6
  9
$SURFTAB2
 70
     6
  9
$SURFTYPE
 70
     6
  9
$SURFU
 70
     6
  9
$SURFV
 70
     6
  9
$UCSNAME
  2

  9
$UCSORG
 10
0.0
 20
0.0
 30
0.0
  9
$UCSXDIR
 10
1.0
 20
0.0
 30
0.0
  9
$UCSYDIR
 10
0.0
 20
1.0
 30
0.0
  9
$PUCSNAME
  2

  9
$PUCSORG
 10
0.0
 20
0.0
 30
0.0
  9
$PUCSXDIR
 10
1.0
 20
0.0
 30
0.0
  9
$PUCSYDIR
 10
0.0
 20
1.0
 30
0.0
  9
$USERI1
 70
     0
  9
$USERI2
 70
     0
  9
$USERI3
 70
     0
  9
$USERI4
 70
     0
  9
$USERI5
 70
     0
  9
$USERR1
 40
0.0
  9
$USERR2
 40
0.0
  9
$USERR3
 40
0.0
  9
$USERR4
 40
0.0
  9
$USERR5
 40
0.0
  9
$WORLDVIEW
 70
     1
  9
$SHADEDGE
 70
     3
  9
$SHADEDIF
 70
    70
  9
$TILEMODE
 70
     1
  9
$MAXACTVP
 70
    64
  9
$PLIMCHECK
 70
     0
  9
$PEXTMIN
 10
1.0000000000E+20
 20
1.0000000000E+20
 30
1.0000000000E+20
  9
$PEXTMAX
 10
-1.0000000000E+20
 20
-1.0000000000E+20
 30
-1.0000000000E+20
  9
$PLIMMIN
 10
0.0
 20
0.0
  9
$PLIMMAX
 10
420.0
 20
297.0
  9
$UNITMODE
 70
     0
  9
$VISRETAIN
 70
     1
  9
$PLINEGEN
 70
     0
  9
$PSLTSCALE
 70
     1
  0
ENDSEC
  0
SECTION
  2
TABLES
  0
TABLE
  2
VPORT
 70
     1
  0
VPORT
  2
*ACTIVE
 70
     0
 10
0.0
 20
0.0
 11
1.0
 21
1.0
 12
279.4
 22
215.9
 13
0.0
 23
0.0
 14
10.0
 24
10.0
 15
10.0
 25
10.0
 16
0.0
 26
0.0
 36
1.0
 17
0.0
 27
0.0
 37
0.0
 40
431.8
 41
1.2941176471
 42
50.0
 43
0.0
 44
0.0
 50
0.0
 51
0.0
 71
     0
 72
  2000
 73
     1
 74
     3
 75
     0
 76
     0
 77
     0
 78
     0
  0
ENDTAB
  0
TABLE
  2
LTYPE
 70
     6
  0
LTYPE
  2
CONTINUOUS
 70
     0
  3
Solid line
 72
    65
 73
     0
 40
0.0
  0
LTYPE
  2
HIDDEN
 70
     0
  3
Hidden __ __ __ __ __ __ __ __ __ __ __ __ __ __
 72
    65
 73
     2
 40
1.905
 49
1.27
 49
-0.635
  0
LTYPE
  2
PHANTOM
 70
     0
  3
Phantom ______  __  __  ______  __  __  ______
 72
    65
 73
     6
 40
12.7
 49
6.35
 49
-1.27
 49
1.27
 49
-1.27
 49
1.27
 49
-1.27
  0
LTYPE
  2
CENTER
 70
     0
  3
Center ____ _ ____ _ ____ _ ____ _ ____ _ ____
 72
    65
 73
     4
 40
10.16
 49
6.35
 49
-1.27
 49
1.27
 49
-1.27
  0
LTYPE
  2
CENTERX2
 70
     0
  3
Center (2x) ________  __  ________  __  _____
 72
    65
 73
     4
 40
20.32
 49
12.7
 49
-2.54
 49
2.54
 49
-2.54
  0
LTYPE
  2
DOT2
 70
     0
  3
Dot (.5x) ........................................
 72
    65
 73
     2
 40
0.635
 49
0.0
 49
-0.635
  0
ENDTAB
  0
TABLE
  2
LAYER
 70
     2
  0
LAYER
  2
0
 70
     0
 62
     7
  6
CONTINUOUS
  0
LAYER
  2
FORMAT
 70
     0
 62
     7
  6
CONTINUOUS
  0
ENDTAB
  0
TABLE
  2
STYLE
 70
     1
  0
STYLE
  2
STANDARD
 70
     0
 40
0.0
 41
1.0
 50
0.0
 71
     0
 42
3.175
  3
txt
  4

  0
ENDTAB
  0
TABLE
  2
VIEW
 70
     0
  0
ENDTAB
  0
TABLE
  2
UCS
 70
     0
  0
ENDTAB
  0
TABLE
  2
APPID
 70
     1
  0
APPID
  2
ACAD
 70
     0
  0
ENDTAB
  0
TABLE
  2
DIMSTYLE
 70
     1
  0
DIMSTYLE
  2
ISO-25
 70
     0
  3

  4

  5

  6

  7

 40
1.0
 41
2.5
 42
0.625
 43
3.75
 44
1.25
 45
0.0
 46
0.0
 47
0.0
 48
0.0
140
2.5
141
2.5
142
0.0
143
0.0393700787
144
1.0
145
0.0
146
1.0
147
0.625
 71
     0
 72
     0
 73
     0
 74
     0
 75
     0
 76
     0
 77
     1
 78
     8
170
     0
171
     3
172
     1
173
     0
174
     0
175
     0
176
     0
177
     0
178
     0
  0
ENDTAB
  0
ENDSEC
  0
SECTION
  2
BLOCKS
  0
BLOCK
  8
0
  2
$MODEL_SPACE
 70
     0
 10
0.0
 20
0.0
 30
0.0
  3
$MODEL_SPACE
  1

  0
ENDBLK
  5
21
  8
0
  0
BLOCK
 67
     1
  8
0
  2
$PAPER_SPACE
 70
     0
 10
0.0
 20
0.0
 30
0.0
  3
$PAPER_SPACE
  1

  0
ENDBLK
  5
1D
 67
     1
  8
0
  0
ENDSEC
  0
SECTION
  2
ENTITIES
  0
LINE
  5
74
  8
0
  6
CONTINUOUS
 62
     7
 10
174.3828485701
 20
373.8165454532
 30
0.0
 11
171.9224904869
 21
364.879080812
 31
0.0
  0
ARC
  5
75
  8
0
  6
CONTINUOUS
 62
     7
 10
183.3526108491
 20
383.793687562
 30
0.0
 40
22.10000000000002
 50
238.8553791563
 51
15.753141039
  0
LINE
  5
76
  8
0
  6
CONTINUOUS
 62
     7
 10
195.3526108491
 20
389.793687562
 30
0.0
 11
204.6225426778
 21
389.793687562
 31
0.0
  0
LINE
  5
77
  8
0
  6
CONTINUOUS
 62
     7
 10
195.3526108491
 20
389.793687562
 30
0.0
 11
194.2034301675
 21
388.9181114437
 31
0.0
  0
ARC
  5
78
  8
0
  6
CONTINUOUS
 62
     7
 10
183.3526108491
 20
383.793687562
 30
0.0
 40
12.00000000000002
 50
229.3289592782
 51
25.2795609171
  0
LINE
  5
79
  8
0
  6
CONTINUOUS
 62
     7
 10
175.5320292517
 20
374.6921215715
 30
0.0
 11
174.3828485701
 21
373.8165454532
 31
0.0
  0
LINE
  5
7A
  8
0
  6
CONTINUOUS
 62
     7
 10
192.322373128
 20
393.7708296708
 30
0.0
 11
194.7827312112
 21
402.708294312
 31
0.0
  0
ARC
  5
7B
  8
0
  6
CONTINUOUS
 62
     7
 10
183.3526108491
 20
383.793687562
 30
0.0
 40
22.10000000000003
 50
58.8553791563
 51
195.753141039
  0
LINE
  5
7C
  8
0
  6
CONTINUOUS
 62
     7
 10
171.3526108491
 20
377.793687562
 30
0.0
 11
162.0826790203
 21
377.793687562
 31
0.0
  0
LINE
  5
7D
  8
0
  6
CONTINUOUS
 62
     7
 10
172.5017915306
 20
378.6692636803
 30
0.0
 11
171.3526108491
 21
377.793687562
 31
0.0
  0
ARC
  5
7E
  8
0
  6
CONTINUOUS
 62
     7
 10
183.3526108491
 20
383.793687562
 30
0.0
 40
12.00000000000001
 50
49.3289592782
 51
205.2795609171
  0
LINE
  5
7F
  8
0
  6
CONTINUOUS
 62
     7
 10
192.322373128
 20
393.7708296708
 30
0.0
 11
191.1731924464
 21
392.8952535525
 31
0.0
  0
CIRCLE
  5
80
  8
0
  6
CONTINUOUS
 62
     7
 10
152.947019258
 20
414.199279153
 30
0.0
 40
2.999999999999972
  0
CIRCLE
  5
81
  8
0
  6
CONTINUOUS
 62
     7
 10
152.947019258
 20
353.388095971
 30
0.0
 40
3.0
  0
CIRCLE
  5
82
  8
0
  6
CONTINUOUS
 62
     7
 10
213.7582024401
 20
353.388095971
 30
0.0
 40
3.0
  0
CIRCLE
  5
83
  8
0
  6
CONTINUOUS
 62
     7
 10
213.7582024401
 20
414.199279153
 30
0.0
 40
3.0
  0
CIRCLE
  5
84
  8
0
  6
CONTINUOUS
 62
     7
 10
183.3526108491
 20
383.793687562
 30
0.0
 40
2.5
  0
ARC
  5
85
  8
0
  6
CONTINUOUS
 62
     7
 10
183.3526108491
 20
383.793687562
 30
0.0
 40
47.49999999999999
 50
131.8081763062
 51
48.1918236938
  0
LINE
  5
86
  8
0
  6
CONTINUOUS
 62
     7
 10
151.6872656892
 20
419.199279153
 30
0.0
 11
215.0179560089
 21
419.199279153
 31
0.0
  0
ARC
  5
87
  8
0
  6
CONTINUOUS
 62
     7
 10
40.1688243803
 20
281.1582306971
 30
0.0
 40
18.0
 50
167.2308323177
 51
170.2691676823
  0
ARC
  5
88
  8
0
  6
CONTINUOUS
 62
     7
 10
25.248512564
 20
279.3040505308
 30
0.0
 40
6.399999999999964
 50
70.9425690198
 51
114.3081344663
  0
ARC
  5
89
  8
0
  6
CONTINUOUS
 62
     7
 10
40.1688243803
 20
281.1582306971
 30
0.0
 40
13.499
 50
153.1054746894
 51
161.8945253106
  0
ARC
  5
8A
  8
0
  6
CONTINUOUS
 62
     7
 10
30.9296740867
 20
293.0195877289
 30
0.0
 40
6.400000000000047
 50
200.6918655337
 51
244.0574309802
  0
ARC
  5
8B
  8
0
  6
CONTINUOUS
 62
     7
 10
40.1688243803
 20
281.1582306971
 30
0.0
 40
18.0
 50
144.7308323177
 51
147.7691676823
  0
ARC
  5
8C
  8
0
  6
CONTINUOUS
 62
     7
 10
25.6746896443
 20
285.1549477297
 30
0.0
 40
6.40000000000001
 50
48.4425690198
 51
91.8081344663
  0
ARC
  5
8D
  8
0
  6
CONTINUOUS
 62
     7
 10
40.1688243803
 20
281.1582306971
 30
0.0
 40
13.49900000000002
 50
130.6054746894
 51
139.3945253106
  0
ARC
  5
8E
  8
0
  6
CONTINUOUS
 62
     7
 10
36.1721073477
 20
295.6523654331
 30
0.0
 40
6.400000000000001
 50
178.1918655337
 51
221.5574309802
  0
ARC
  5
8F
  8
0
  6
CONTINUOUS
 62
     7
 10
40.1688243803
 20
281.1582306971
 30
0.0
 40
18.00000000000001
 50
122.2308323177
 51
125.2691676823
  0
ARC
  5
90
  8
0
  6
CONTINUOUS
 62
     7
 10
28.3074673484
 20
290.3973809907
 30
0.0
 40
6.399999999999975
 50
25.9425690198
 51
69.3081344663
  0
ARC
  5
91
  8
0
  6
CONTINUOUS
 62
     7
 10
40.1688243803
 20
281.1582306971
 30
0.0
 40
13.49899999999998
 50
108.1054746894
 51
116.8945253106
  0
ARC
  5
92
  8
0
  6
CONTINUOUS
 62
     7
 10
42.0230045466
 20
296.0785425134
 30
0.0
 40
6.400000000000012
 50
155.6918655337
 51
199.0574309802
  0
ARC
  5
93
  8
0
  6
CONTINUOUS
 62
     7
 10
40.1688243803
 20
281.1582306971
 30
0.0
 40
18.00000000000002
 50
99.7308323177
 51
102.7691676823
  0
ARC
  5
94
  8
0
  6
CONTINUOUS
 62
     7
 10
32.7460291372
 20
294.2332373726
 30
0.0
 40
6.400000000000009
 50
3.4425690198
 51
46.8081344663
  0
ARC
  5
95
  8
0
  6
CONTINUOUS
 62
     7
 10
40.1688243803
 20
281.1582306971
 30
0.0
 40
13.49899999999999
 50
85.6054746894
 51
94.3945253106
  0
ARC
  5
96
  8
0
  6
CONTINUOUS
 62
     7
 10
47.5916196233
 20
294.2332373726
 30
0.0
 40
6.400000000000009
 50
133.1918655337
 51
176.5574309802
  0
ARC
  5
97
  8
0
  6
CONTINUOUS
 62
     7
 10
40.1688243803
 20
281.1582306971
 30
0.0
 40
18.00000000000001
 50
77.2308323177
 51
80.2691676823
  0
ARC
  5
98
  8
0
  6
CONTINUOUS
 62
     7
 10
38.314644214
 20
296.0785425134
 30
0.0
 40
6.400000000000019
 50
340.9425690198
 51
24.3081344663
  0
ARC
  5
99
  8
0
  6
CONTINUOUS
 62
     7
 10
40.1688243803
 20
281.1582306971
 30
0.0
 40
13.49899999999998
 50
63.1054746894
 51
71.8945253106
  0
ARC
  5
9A
  8
0
  6
CONTINUOUS
 62
     7
 10
52.0301814121
 20
290.3973809907
 30
0.0
 40
6.399999999999994
 50
110.6918655337
 51
154.0574309802
  0
ARC
  5
9B
  8
0
  6
CONTINUOUS
 62
     7
 10
40.1688243803
 20
281.1582306971
 30
0.0
 40
18.0
 50
54.7308323177
 51
57.7691676823
  0
ARC
  5
9C
  8
0
  6
CONTINUOUS
 62
     7
 10
44.1655414129
 20
295.6523654331
 30
0.0
 40
6.400000000000014
 50
318.4425690198
 51
1.8081344663
  0
ARC
  5
9D
  8
0
  6
CONTINUOUS
 62
     7
 10
40.1688243803
 20
281.1582306971
 30
0.0
 40
13.49899999999999
 50
40.6054746894
 51
49.3945253106
  0
ARC
  5
9E
  8
0
  6
CONTINUOUS
 62
     7
 10
54.6629591163
 20
285.1549477297
 30
0.0
 40
6.400000000000015
 50
88.1918655337
 51
131.5574309802
  0
ARC
  5
9F
  8
0
  6
CONTINUOUS
 62
     7
 10
40.1688243803
 20
281.1582306971
 30
0.0
 40
17.99999999999999
 50
32.2308323177
 51
35.2691676823
  0
ARC
  5
A0
  8
0
  6
CONTINUOUS
 62
     7
 10
49.4079746739
 20
293.0195877289
 30
0.0
 40
6.400000000000034
 50
295.9425690198
 51
339.3081344663
  0
ARC
  5
A1
  8
0
  6
CONTINUOUS
 62
     7
 10
40.1688243803
 20
281.1582306971
 30
0.0
 40
13.499
 50
18.1054746894
 51
26.8945253106
  0
ARC
  5
A2
  8
0
  6
CONTINUOUS
 62
     7
 10
55.0891361966
 20
279.3040505308
 30
0.0
 40
6.399999999999991
 50
65.6918655337
 51
109.0574309802
  0
ARC
  5
A3
  8
0
  6
CONTINUOUS
 62
     7
 10
40.1688243803
 20
281.1582306971
 30
0.0
 40
18.0
 50
9.7308323177
 51
12.7691676823
  0
ARC
  5
A4
  8
0
  6
CONTINUOUS
 62
     7
 10
53.2438310558
 20
288.5810259401
 30
0.0
 40
6.399999999999981
 50
273.4425690198
 51
316.8081344663
  0
ARC
  5
A5
  8
0
  6
CONTINUOUS
 62
     7
 10
40.1688243803
 20
281.1582306971
 30
0.0
 40
13.499
 50
355.6054746894
 51
4.3945253106
  0
ARC
  5
A6
  8
0
  6
CONTINUOUS
 62
     7
 10
53.2438310558
 20
273.7354354541
 30
0.0
 40
6.400000000000016
 50
43.1918655337
 51
86.5574309802
  0
ARC
  5
A7
  8
0
  6
CONTINUOUS
 62
     7
 10
40.1688243803
 20
281.1582306971
 30
0.0
 40
18.0
 50
347.2308323177
 51
350.2691676823
  0
ARC
  5
A8
  8
0
  6
CONTINUOUS
 62
     7
 10
55.0891361966
 20
283.0124108634
 30
0.0
 40
6.400000000000007
 50
250.9425690198
 51
294.3081344663
  0
ARC
  5
A9
  8
0
  6
CONTINUOUS
 62
     7
 10
40.1688243803
 20
281.1582306971
 30
0.0
 40
13.499
 50
333.1054746894
 51
341.8945253106
  0
ARC
  5
AA
  8
0
  6
CONTINUOUS
 62
     7
 10
49.4079746739
 20
269.2968736653
 30
0.0
 40
6.400000000000029
 50
20.6918655337
 51
64.0574309802
  0
ARC
  5
AB
  8
0
  6
CONTINUOUS
 62
     7
 10
40.1688243803
 20
281.1582306971
 30
0.0
 40
18.0
 50
324.7308323177
 51
327.7691676823
  0
ARC
  5
AC
  8
0
  6
CONTINUOUS
 62
     7
 10
54.6629591163
 20
277.1615136645
 30
0.0
 40
6.399999999999982
 50
228.4425690198
 51
271.8081344663
  0
ARC
  5
AD
  8
0
  6
CONTINUOUS
 62
     7
 10
40.1688243803
 20
281.1582306971
 30
0.0
 40
13.49900000000003
 50
310.6054746894
 51
319.3945253106
  0
ARC
  5
AE
  8
0
  6
CONTINUOUS
 62
     7
 10
44.1655414129
 20
266.6640959611
 30
0.0
 40
6.400000000000015
 50
358.1918655337
 51
41.5574309802
  0
ARC
  5
AF
  8
0
  6
CONTINUOUS
 62
     7
 10
40.1688243803
 20
281.1582306971
 30
0.0
 40
18.00000000000003
 50
302.2308323177
 51
305.2691676823
  0
ARC
  5
B0
  8
0
  6
CONTINUOUS
 62
     7
 10
52.0301814121
 20
271.9190804035
 30
0.0
 40
6.400000000000002
 50
205.9425690198
 51
249.3081344663
  0
ARC
  5
B1
  8
0
  6
CONTINUOUS
 62
     7
 10
40.1688243803
 20
281.1582306971
 30
0.0
 40
13.49900000000001
 50
288.1054746894
 51
296.8945253106
  0
ARC
  5
B2
  8
0
  6
CONTINUOUS
 62
     7
 10
38.314644214
 20
266.2379188808
 30
0.0
 40
6.400000000000024
 50
335.6918655337
 51
19.0574309802
  0
ARC
  5
B3
  8
0
  6
CONTINUOUS
 62
     7
 10
40.1688243803
 20
281.1582306971
 30
0.0
 40
18.00000000000004
 50
279.7308323177
 51
282.7691676823
  0
ARC
  5
B4
  8
0
  6
CONTINUOUS
 62
     7
 10
47.5916196233
 20
268.0832240216
 30
0.0
 40
6.400000000000026
 50
183.4425690198
 51
226.8081344663
  0
ARC
  5
B5
  8
0
  6
CONTINUOUS
 62
     7
 10
40.1688243803
 20
281.1582306971
 30
0.0
 40
13.49900000000005
 50
265.6054746894
 51
274.3945253106
  0
ARC
  5
B6
  8
0
  6
CONTINUOUS
 62
     7
 10
32.7460291372
 20
268.0832240216
 30
0.0
 40
6.399999999999999
 50
313.1918655337
 51
356.5574309802
  0
ARC
  5
B7
  8
0
  6
CONTINUOUS
 62
     7
 10
40.1688243803
 20
281.1582306971
 30
0.0
 40
18.00000000000004
 50
257.2308323177
 51
260.2691676823
  0
ARC
  5
B8
  8
0
  6
CONTINUOUS
 62
     7
 10
42.0230045466
 20
266.2379188808
 30
0.0
 40
6.400000000000008
 50
160.9425690198
 51
204.3081344663
  0
ARC
  5
B9
  8
0
  6
CONTINUOUS
 62
     7
 10
40.1688243803
 20
281.1582306971
 30
0.0
 40
13.49900000000003
 50
243.1054746894
 51
251.8945253106
  0
ARC
  5
BA
  8
0
  6
CONTINUOUS
 62
     7
 10
28.3074673484
 20
271.9190804035
 30
0.0
 40
6.399999999999998
 50
290.6918655337
 51
334.0574309802
  0
ARC
  5
BB
  8
0
  6
CONTINUOUS
 62
     7
 10
40.1688243803
 20
281.1582306971
 30
0.0
 40
18.00000000000004
 50
234.7308323177
 51
237.7691676823
  0
ARC
  5
BC
  8
0
  6
CONTINUOUS
 62
     7
 10
36.1721073477
 20
266.6640959611
 30
0.0
 40
6.40000000000002
 50
138.4425690198
 51
181.8081344663
  0
ARC
  5
BD
  8
0
  6
CONTINUOUS
 62
     7
 10
40.1688243803
 20
281.1582306971
 30
0.0
 40
13.49900000000001
 50
220.6054746894
 51
229.3945253106
  0
ARC
  5
BE
  8
0
  6
CONTINUOUS
 62
     7
 10
25.6746896443
 20
277.1615136645
 30
0.0
 40
6.400000000000007
 50
268.1918655337
 51
311.5574309802
  0
ARC
  5
BF
  8
0
  6
CONTINUOUS
 62
     7
 10
40.1688243803
 20
281.1582306971
 30
0.0
 40
18.00000000000002
 50
212.2308323177
 51
215.2691676823
  0
ARC
  5
C0
  8
0
  6
CONTINUOUS
 62
     7
 10
30.9296740867
 20
269.2968736653
 30
0.0
 40
6.400000000000067
 50
115.9425690198
 51
159.3081344663
  0
ARC
  5
C1
  8
0
  6
CONTINUOUS
 62
     7
 10
40.1688243803
 20
281.1582306971
 30
0.0
 40
13.49900000000001
 50
198.1054746894
 51
206.8945253106
  0
ARC
  5
C2
  8
0
  6
CONTINUOUS
 62
     7
 10
25.248512564
 20
283.0124108634
 30
0.0
 40
6.399999999999988
 50
245.6918655337
 51
289.0574309802
  0
ARC
  5
C3
  8
0
  6
CONTINUOUS
 62
     7
 10
40.1688243803
 20
281.1582306971
 30
0.0
 40
18.00000000000001
 50
189.7308323177
 51
192.7691676823
  0
ARC
  5
C4
  8
0
  6
CONTINUOUS
 62
     7
 10
27.0938177048
 20
273.7354354541
 30
0.0
 40
6.400000000000022
 50
93.4425690198
 51
136.8081344663
  0
ARC
  5
C5
  8
0
  6
CONTINUOUS
 62
     7
 10
40.1688243803
 20
281.1582306971
 30
0.0
 40
13.499
 50
175.6054746894
 51
184.3945253106
  0
ARC
  5
C6
  8
0
  6
CONTINUOUS
 62
     7
 10
27.0938177048
 20
288.5810259401
 30
0.0
 40
6.400000000000019
 50
223.1918655337
 51
266.5574309802
  0
LINE
  5
C7
  8
0
  6
CONTINUOUS
 62
     7
 10
40.1688243803
 20
284.0030306971
 30
0.0
 11
39.837870288
 21
283.6720766048
 31
0.0
  0
LINE
  5
C8
  8
0
  6
CONTINUOUS
 62
     7
 10
39.837870288
 20
283.6720766048
 30
0.0
 11
39.4325359608
 21
283.9060964877
 31
0.0
  0
LINE
  5
C9
  8
0
  6
CONTINUOUS
 62
     7
 10
39.4325359608
 20
283.9060964877
 30
0.0
 11
39.1985160778
 21
283.5007621605
 31
0.0
  0
LINE
  5
CA
  8
0
  6
CONTINUOUS
 62
     7
 10
39.1985160778
 20
283.5007621605
 30
0.0
 11
38.7464243803
 21
283.6218997658
 31
0.0
  0
LINE
  5
CB
  8
0
  6
CONTINUOUS
 62
     7
 10
38.7464243803
 20
283.6218997658
 30
0.0
 11
38.625286775
 21
283.1698080682
 31
0.0
  0
LINE
  5
CC
  8
0
  6
CONTINUOUS
 62
     7
 10
38.625286775
 20
283.1698080682
 30
0.0
 11
38.1572470092
 21
283.1698080682
 31
0.0
  0
LINE
  5
CD
  8
0
  6
CONTINUOUS
 62
     7
 10
38.1572470092
 20
283.1698080682
 30
0.0
 11
38.1572470092
 21
282.7017683024
 31
0.0
  0
LINE
  5
CE
  8
0
  6
CONTINUOUS
 62
     7
 10
38.1572470092
 20
282.7017683024
 30
0.0
 11
37.7051553116
 21
282.5806306971
 31
0.0
  0
LINE
  5
CF
  8
0
  6
CONTINUOUS
 62
     7
 10
37.7051553116
 20
282.5806306971
 30
0.0
 11
37.8262929169
 21
282.1285389995
 31
0.0
  0
LINE
  5
D0
  8
0
  6
CONTINUOUS
 62
     7
 10
37.8262929169
 20
282.1285389995
 30
0.0
 11
37.4209585897
 21
281.8945191166
 31
0.0
  0
LINE
  5
D1
  8
0
  6
CONTINUOUS
 62
     7
 10
37.4209585897
 20
281.8945191166
 30
0.0
 11
37.6549784726
 21
281.4891847894
 31
0.0
  0
LINE
  5
D2
  8
0
  6
CONTINUOUS
 62
     7
 10
37.6549784726
 20
281.4891847894
 30
0.0
 11
37.3240243803
 21
281.1582306971
 31
0.0
  0
LINE
  5
D3
  8
0
  6
CONTINUOUS
 62
     7
 10
37.3240243803
 20
281.1582306971
 30
0.0
 11
37.6549784726
 21
280.8272766048
 31
0.0
  0
LINE
  5
D4
  8
0
  6
CONTINUOUS
 62
     7
 10
37.6549784726
 20
280.8272766048
 30
0.0
 11
37.4209585897
 21
280.4219422776
 31
0.0
  0
LINE
  5
D5
  8
0
  6
CONTINUOUS
 62
     7
 10
37.4209585897
 20
280.4219422776
 30
0.0
 11
37.8262929169
 21
280.1879223947
 31
0.0
  0
LINE
  5
D6
  8
0
  6
CONTINUOUS
 62
     7
 10
37.8262929169
 20
280.1879223947
 30
0.0
 11
37.7051553116
 21
279.7358306971
 31
0.0
  0
LINE
  5
D7
  8
0
  6
CONTINUOUS
 62
     7
 10
37.7051553116
 20
279.7358306971
 30
0.0
 11
38.1572470092
 21
279.6146930918
 31
0.0
  0
LINE
  5
D8
  8
0
  6
CONTINUOUS
 62
     7
 10
38.1572470092
 20
279.6146930918
 30
0.0
 11
38.1572470092
 21
279.146653326
 31
0.0
  0
LINE
  5
D9
  8
0
  6
CONTINUOUS
 62
     7
 10
38.1572470092
 20
279.146653326
 30
0.0
 11
38.625286775
 21
279.146653326
 31
0.0
  0
LINE
  5
DA
  8
0
  6
CONTINUOUS
 62
     7
 10
38.625286775
 20
279.146653326
 30
0.0
 11
38.7464243803
 21
278.6945616284
 31
0.0
  0
LINE
  5
DB
  8
0
  6
CONTINUOUS
 62
     7
 10
38.7464243803
 20
278.6945616284
 30
0.0
 11
39.1985160778
 21
278.8156992337
 31
0.0
  0
LINE
  5
DC
  8
0
  6
CONTINUOUS
 62
     7
 10
39.1985160778
 20
278.8156992337
 30
0.0
 11
39.4325359608
 21
278.4103649065
 31
0.0
  0
LINE
  5
DD
  8
0
  6
CONTINUOUS
 62
     7
 10
39.4325359608
 20
278.4103649065
 30
0.0
 11
39.837870288
 21
278.6443847894
 31
0.0
  0
LINE
  5
DE
  8
0
  6
CONTINUOUS
 62
     7
 10
39.837870288
 20
278.6443847894
 30
0.0
 11
40.1688243803
 21
278.3134306971
 31
0.0
  0
LINE
  5
DF
  8
0
  6
CONTINUOUS
 62
     7
 10
40.1688243803
 20
278.3134306971
 30
0.0
 11
40.4997784726
 21
278.6443847894
 31
0.0
  0
LINE
  5
E0
  8
0
  6
CONTINUOUS
 62
     7
 10
40.4997784726
 20
278.6443847894
 30
0.0
 11
40.9051127998
 21
278.4103649065
 31
0.0
  0
LINE
  5
E1
  8
0
  6
CONTINUOUS
 62
     7
 10
40.9051127998
 20
278.4103649065
 30
0.0
 11
41.1391326827
 21
278.8156992337
 31
0.0
  0
LINE
  5
E2
  8
0
  6
CONTINUOUS
 62
     7
 10
41.1391326827
 20
278.8156992337
 30
0.0
 11
41.5912243803
 21
278.6945616284
 31
0.0
  0
LINE
  5
E3
  8
0
  6
CONTINUOUS
 62
     7
 10
41.5912243803
 20
278.6945616284
 30
0.0
 11
41.7123619855
 21
279.146653326
 31
0.0
  0
LINE
  5
E4
  8
0
  6
CONTINUOUS
 62
     7
 10
41.7123619855
 20
279.146653326
 30
0.0
 11
42.1804017514
 21
279.146653326
 31
0.0
  0
LINE
  5
E5
  8
0
  6
CONTINUOUS
 62
     7
 10
42.1804017514
 20
279.146653326
 30
0.0
 11
42.1804017514
 21
279.6146930918
 31
0.0
  0
LINE
  5
E6
  8
0
  6
CONTINUOUS
 62
     7
 10
42.1804017514
 20
279.6146930918
 30
0.0
 11
42.632493449
 21
279.7358306971
 31
0.0
  0
LINE
  5
E7
  8
0
  6
CONTINUOUS
 62
     7
 10
42.632493449
 20
279.7358306971
 30
0.0
 11
42.5113558437
 21
280.1879223947
 31
0.0
  0
LINE
  5
E8
  8
0
  6
CONTINUOUS
 62
     7
 10
42.5113558437
 20
280.1879223947
 30
0.0
 11
42.9166901709
 21
280.4219422776
 31
0.0
  0
LINE
  5
E9
  8
0
  6
CONTINUOUS
 62
     7
 10
42.9166901709
 20
280.4219422776
 30
0.0
 11
42.682670288
 21
280.8272766048
 31
0.0
  0
LINE
  5
EA
  8
0
  6
CONTINUOUS
 62
     7
 10
42.682670288
 20
280.8272766048
 30
0.0
 11
43.0136243803
 21
281.1582306971
 31
0.0
  0
LINE
  5
EB
  8
0
  6
CONTINUOUS
 62
     7
 10
43.0136243803
 20
281.1582306971
 30
0.0
 11
42.682670288
 21
281.4891847894
 31
0.0
  0
LINE
  5
EC
  8
0
  6
CONTINUOUS
 62
     7
 10
42.682670288
 20
281.4891847894
 30
0.0
 11
42.9166901709
 21
281.8945191166
 31
0.0
  0
LINE
  5
ED
  8
0
  6
CONTINUOUS
 62
     7
 10
42.9166901709
 20
281.8945191166
 30
0.0
 11
42.5113558437
 21
282.1285389995
 31
0.0
  0
LINE
  5
EE
  8
0
  6
CONTINUOUS
 62
     7
 10
42.5113558437
 20
282.1285389995
 30
0.0
 11
42.632493449
 21
282.5806306971
 31
0.0
  0
LINE
  5
EF
  8
0
  6
CONTINUOUS
 62
     7
 10
42.632493449
 20
282.5806306971
 30
0.0
 11
42.1804017514
 21
282.7017683024
 31
0.0
  0
LINE
  5
F0
  8
0
  6
CONTINUOUS
 62
     7
 10
42.1804017514
 20
282.7017683024
 30
0.0
 11
42.1804017514
 21
283.1698080682
 31
0.0
  0
LINE
  5
F1
  8
0
  6
CONTINUOUS
 62
     7
 10
42.1804017514
 20
283.1698080682
 30
0.0
 11
41.7123619855
 21
283.1698080682
 31
0.0
  0
LINE
  5
F2
  8
0
  6
CONTINUOUS
 62
     7
 10
41.7123619855
 20
283.1698080682
 30
0.0
 11
41.5912243803
 21
283.6218997658
 31
0.0
  0
LINE
  5
F3
  8
0
  6
CONTINUOUS
 62
     7
 10
41.5912243803
 20
283.6218997658
 30
0.0
 11
41.1391326827
 21
283.5007621605
 31
0.0
  0
LINE
  5
F4
  8
0
  6
CONTINUOUS
 62
     7
 10
41.1391326827
 20
283.5007621605
 30
0.0
 11
40.9051127998
 21
283.9060964877
 31
0.0
  0
LINE
  5
F5
  8
0
  6
CONTINUOUS
 62
     7
 10
40.9051127998
 20
283.9060964877
 30
0.0
 11
40.4997784726
 21
283.6720766048
 31
0.0
  0
LINE
  5
F6
  8
0
  6
CONTINUOUS
 62
     7
 10
40.4997784726
 20
283.6720766048
 30
0.0
 11
40.1688243803
 21
284.0030306971
 31
0.0
  0
LINE
  5
F7
  8
0
  6
CONTINUOUS
 62
     7
 10
165.3934756666
 20
301.571878615
 30
0.0
 11
175.1934756666
 21
301.571878615
 31
0.0
  0
LINE
  5
F8
  8
0
  6
CONTINUOUS
 62
     7
 10
165.3934756666
 20
289.571878615
 30
0.0
 11
165.3934756666
 21
301.571878615
 31
0.0
  0
LINE
  5
F9
  8
0
  6
CONTINUOUS
 62
     7
 10
175.1934756666
 20
289.571878615
 30
0.0
 11
165.3934756666
 21
289.571878615
 31
0.0
  0
LINE
  5
FA
  8
0
  6
CONTINUOUS
 62
     7
 10
175.1934756666
 20
301.571878615
 30
0.0
 11
175.1934756666
 21
289.571878615
 31
0.0
  0
CIRCLE
  5
FB
  8
0
  6
CONTINUOUS
 62
     7
 10
153.3934756666
 20
295.571878615
 30
0.0
 40
9.5
  0
ARC
  5
FC
  8
0
  6
CONTINUOUS
 62
     7
 10
153.3934756666
 20
295.571878615
 30
0.0
 40
37.0
 50
176.4685281966
 51
178.3886146606
  0
ARC
  5
FD
  8
0
  6
CONTINUOUS
 62
     7
 10
122.2196140621
 20
285.0889126993
 30
0.0
 40
14.00000000000003
 50
94.667780033
 51
114.2761071756
  0
ARC
  5
FE
  8
0
  6
CONTINUOUS
 62
     7
 10
153.3934756666
 20
295.571878615
 30
0.0
 40
32.49900000000002
 50
170.7017915549
 51
173.8696370165
  0
ARC
  5
FF
  8
0
  6
CONTINUOUS
 62
     7
 10
126.1318860398
 20
313.970464233
 30
0.0
 40
14.00000000000003
 50
230.2953213958
 51
249.9036485385
  0
ARC
  5
100
  8
0
  6
CONTINUOUS
 62
     7
 10
153.3934756666
 20
295.571878615
 30
0.0
 40
37.0
 50
166.1828139109
 51
168.1029003749
  0
ARC
  5
101
  8
0
  6
CONTINUOUS
 62
     7
 10
120.8487850009
 20
290.8236862013
 30
0.0
 40
14.00000000000001
 50
84.3820657473
 51
103.9903928899
  0
ARC
  5
102
  8
0
  6
CONTINUOUS
 62
     7
 10
153.3934756666
 20
295.571878615
 30
0.0
 40
32.49900000000002
 50
160.4160772692
 51
163.5839227308
  0
ARC
  5
103
  8
0
  6
CONTINUOUS
 62
     7
 10
129.8551853172
 20
318.5425361839
 30
0.0
 40
13.99999999999999
 50
220.0096071101
 51
239.6179342527
  0
ARC
  5
104
  8
0
  6
CONTINUOUS
 62
     7
 10
153.3934756666
 20
295.571878615
 30
0.0
 40
37.00000000000001
 50
155.8970996251
 51
157.8171860891
  0
ARC
  5
105
  8
0
  6
CONTINUOUS
 62
     7
 10
120.5239690755
 20
296.7110705142
 30
0.0
 40
14.0
 50
74.0963514615
 51
93.7046786042
  0
ARC
  5
106
  8
0
  6
CONTINUOUS
 62
     7
 10
153.3934756666
 20
295.571878615
 30
0.0
 40
32.49900000000002
 50
150.1303629835
 51
153.2982084451
  0
ARC
  5
107
  8
0
  6
CONTINUOUS
 62
     7
 10
134.3350246137
 20
322.3763123003
 30
0.0
 40
14.00000000000002
 50
209.7238928244
 51
229.332219967
  0
ARC
  5
108
  8
0
  6
CONTINUOUS
 62
     7
 10
153.3934756666
 20
295.571878615
 30
0.0
 40
37.00000000000001
 50
145.6113853394
 51
147.5314718034
  0
ARC
  5
109
  8
0
  6
CONTINUOUS
 62
     7
 10
121.2556061371
 20
302.5618402622
 30
0.0
 40
13.99999999999997
 50
63.8106371758
 51
83.4189643185
  0
ARC
  5
10A
  8
0
  6
CONTINUOUS
 62
     7
 10
153.3934756666
 20
295.571878615
 30
0.0
 40
32.499
 50
139.8446486978
 51
143.0124941594
  0
ARC
  5
10B
  8
0
  6
CONTINUOUS
 62
     7
 10
139.4274182085
 20
325.3485718633
 30
0.0
 40
14.00000000000001
 50
199.4381785387
 51
219.0465056813
  0
ARC
  5
10C
  8
0
  6
CONTINUOUS
 62
     7
 10
153.3934756666
 20
295.571878615
 30
0.0
 40
37.00000000000003
 50
135.3256710537
 51
137.2457575177
  0
ARC
  5
10D
  8
0
  6
CONTINUOUS
 62
     7
 10
123.0201807685
 20
308.1879468915
 30
0.0
 40
14.00000000000006
 50
53.5249228901
 51
73.1332500328
  0
ARC
  5
10E
  8
0
  6
CONTINUOUS
 62
     7
 10
153.3934756666
 20
295.571878615
 30
0.0
 40
32.49900000000004
 50
129.558934412
 51
132.7267798737
  0
ARC
  5
10F
  8
0
  6
CONTINUOUS
 62
     7
 10
144.9686923813
 20
327.3637840049
 30
0.0
 40
14.00000000000001
 50
189.1524642529
 51
208.7607913956
  0
ARC
  5
110
  8
0
  6
CONTINUOUS
 62
     7
 10
153.3934756666
 20
295.571878615
 30
0.0
 40
37.00000000000003
 50
125.039956768
 51
126.960043232
  0
ARC
  5
111
  8
0
  6
CONTINUOUS
 62
     7
 10
125.7609780891
 20
313.4085627058
 30
0.0
 40
14.0
 50
43.2392086044
 51
62.8475357471
  0
ARC
  5
112
  8
0
  6
CONTINUOUS
 62
     7
 10
153.3934756666
 20
295.571878615
 30
0.0
 40
32.49900000000002
 50
119.2732201263
 51
122.441065588
  0
ARC
  5
113
  8
0
  6
CONTINUOUS
 62
     7
 10
150.7807460208
 20
328.3571781488
 30
0.0
 40
13.99999999999999
 50
178.8667499672
 51
198.4750771099
  0
ARC
  5
114
  8
0
  6
CONTINUOUS
 62
     7
 10
153.3934756666
 20
295.571878615
 30
0.0
 40
37.00000000000005
 50
114.7542424823
 51
116.6743289463
  0
ARC
  5
115
  8
0
  6
CONTINUOUS
 62
     7
 10
129.389906618
 20
318.0558928174
 30
0.0
 40
14.00000000000005
 50
32.9534943187
 51
52.5618214613
  0
ARC
  5
116
  8
0
  6
CONTINUOUS
 62
     7
 10
153.3934756666
 20
295.571878615
 30
0.0
 40
32.49900000000004
 50
108.9875058406
 51
112.1553513022
  0
ARC
  5
117
  8
0
  6
CONTINUOUS
 62
     7
 10
156.6767749409
 20
328.2968257899
 30
0.0
 40
13.99999999999999
 50
168.5810356815
 51
188.1893628242
  0
ARC
  5
118
  8
0
  6
CONTINUOUS
 62
     7
 10
153.3934756666
 20
295.571878615
 30
0.0
 40
37.00000000000006
 50
104.4685281966
 51
106.3886146606
  0
ARC
  5
119
  8
0
  6
CONTINUOUS
 62
     7
 10
133.7903296063
 20
321.9805682126
 30
0.0
 40
14.00000000000002
 50
22.667780033
 51
42.2761071756
  0
ARC
  5
11A
  8
0
  6
CONTINUOUS
 62
     7
 10
153.3934756666
 20
295.571878615
 30
0.0
 40
32.49900000000004
 50
98.7017915549
 51
101.8696370165
  0
ARC
  5
11B
  8
0
  6
CONTINUOUS
 62
     7
 10
162.4672759208
 20
327.1846667025
 30
0.0
 40
14.00000000000002
 50
158.2953213958
 51
177.9036485385
  0
ARC
  5
11C
  8
0
  6
CONTINUOUS
 62
     7
 10
153.3934756666
 20
295.571878615
 30
0.0
 40
37.00000000000005
 50
94.1828139109
 51
96.1029003749
  0
ARC
  5
11D
  8
0
  6
CONTINUOUS
 62
     7
 10
138.8208138385
 20
325.056446595
 30
0.0
 40
14.0
 50
12.3820657473
 51
31.9903928899
  0
ARC
  5
11E
  8
0
  6
CONTINUOUS
 62
     7
 10
153.3934756666
 20
295.571878615
 30
0.0
 40
32.49900000000001
 50
88.4160772692
 51
91.5839227308
  0
ARC
  5
11F
  8
0
  6
CONTINUOUS
 62
     7
 10
167.9661374946
 20
325.056446595
 30
0.0
 40
14.00000000000001
 50
148.0096071101
 51
167.6179342527
  0
ARC
  5
120
  8
0
  6
CONTINUOUS
 62
     7
 10
153.3934756666
 20
295.571878615
 30
0.0
 40
37.00000000000005
 50
83.8970996251
 51
85.8171860891
  0
ARC
  5
121
  8
0
  6
CONTINUOUS
 62
     7
 10
144.3196754123
 20
327.1846667025
 30
0.0
 40
14.0
 50
2.0963514615
 51
21.7046786042
  0
ARC
  5
122
  8
0
  6
CONTINUOUS
 62
     7
 10
153.3934756666
 20
295.571878615
 30
0.0
 40
32.49900000000003
 50
78.1303629835
 51
81.2982084451
  0
ARC
  5
123
  8
0
  6
CONTINUOUS
 62
     7
 10
172.9966217268
 20
321.9805682126
 30
0.0
 40
14.00000000000001
 50
137.7238928244
 51
157.332219967
  0
ARC
  5
124
  8
0
  6
CONTINUOUS
 62
     7
 10
153.3934756666
 20
295.571878615
 30
0.0
 40
37.00000000000004
 50
73.6113853394
 51
75.5314718034
  0
ARC
  5
125
  8
0
  6
CONTINUOUS
 62
     7
 10
150.1101763922
 20
328.2968257899
 30
0.0
 40
13.99999999999998
 50
351.8106371758
 51
11.4189643185
  0
ARC
  5
126
  8
0
  6
CONTINUOUS
 62
     7
 10
153.3934756666
 20
295.571878615
 30
0.0
 40
32.49900000000006
 50
67.8446486978
 51
71.0124941594
  0
ARC
  5
127
  8
0
  6
CONTINUOUS
 62
     7
 10
177.3970447151
 20
318.0558928174
 30
0.0
 40
13.99999999999997
 50
127.4381785387
 51
147.0465056813
  0
ARC
  5
128
  8
0
  6
CONTINUOUS
 62
     7
 10
153.3934756666
 20
295.571878615
 30
0.0
 40
37.00000000000004
 50
63.3256710537
 51
65.2457575177
  0
ARC
  5
129
  8
0
  6
CONTINUOUS
 62
     7
 10
156.0062053123
 20
328.3571781488
 30
0.0
 40
14.00000000000002
 50
341.5249228901
 51
1.1332500328
  0
ARC
  5
12A
  8
0
  6
CONTINUOUS
 62
     7
 10
153.3934756666
 20
295.571878615
 30
0.0
 40
32.49900000000002
 50
57.5589344121
 51
60.7267798737
  0
ARC
  5
12B
  8
0
  6
CONTINUOUS
 62
     7
 10
181.025973244
 20
313.4085627058
 30
0.0
 40
14.00000000000002
 50
117.1524642529
 51
136.7607913956
  0
ARC
  5
12C
  8
0
  6
CONTINUOUS
 62
     7
 10
153.3934756666
 20
295.571878615
 30
0.0
 40
37.00000000000004
 50
53.039956768
 51
54.960043232
  0
ARC
  5
12D
  8
0
  6
CONTINUOUS
 62
     7
 10
161.8182589518
 20
327.3637840049
 30
0.0
 40
13.99999999999999
 50
331.2392086044
 51
350.8475357471
  0
ARC
  5
12E
  8
0
  6
CONTINUOUS
 62
     7
 10
153.3934756666
 20
295.571878615
 30
0.0
 40
32.49900000000002
 50
47.2732201263
 51
50.441065588
  0
ARC
  5
12F
  8
0
  6
CONTINUOUS
 62
     7
 10
183.7667705647
 20
308.1879468915
 30
0.0
 40
14.00000000000004
 50
106.8667499672
 51
126.4750771099
  0
ARC
  5
130
  8
0
  6
CONTINUOUS
 62
     7
 10
153.3934756666
 20
295.571878615
 30
0.0
 40
37.00000000000003
 50
42.7542424823
 51
44.6743289463
  0
ARC
  5
131
  8
0
  6
CONTINUOUS
 62
     7
 10
167.3595331246
 20
325.3485718633
 30
0.0
 40
14.00000000000001
 50
320.9534943187
 51
340.5618214613
  0
ARC
  5
132
  8
0
  6
CONTINUOUS
 62
     7
 10
153.3934756666
 20
295.571878615
 30
0.0
 40
32.49900000000003
 50
36.9875058406
 51
40.1553513022
  0
ARC
  5
133
  8
0
  6
CONTINUOUS
 62
     7
 10
185.5313451961
 20
302.5618402622
 30
0.0
 40
14.0
 50
96.5810356815
 51
116.1893628242
  0
ARC
  5
134
  8
0
  6
CONTINUOUS
 62
     7
 10
153.3934756666
 20
295.571878615
 30
0.0
 40
37.00000000000002
 50
32.4685281966
 51
34.3886146606
  0
ARC
  5
135
  8
0
  6
CONTINUOUS
 62
     7
 10
172.4519267194
 20
322.3763123003
 30
0.0
 40
14.0
 50
310.667780033
 51
330.2761071756
  0
ARC
  5
136
  8
0
  6
CONTINUOUS
 62
     7
 10
153.3934756666
 20
295.571878615
 30
0.0
 40
32.49900000000004
 50
26.7017915549
 51
29.8696370165
  0
ARC
  5
137
  8
0
  6
CONTINUOUS
 62
     7
 10
186.2629822577
 20
296.7110705142
 30
0.0
 40
14.00000000000002
 50
86.2953213958
 51
105.9036485385
  0
ARC
  5
138
  8
0
  6
CONTINUOUS
 62
     7
 10
153.3934756666
 20
295.571878615
 30
0.0
 40
37.00000000000002
 50
22.1828139109
 51
24.1029003749
  0
ARC
  5
139
  8
0
  6
CONTINUOUS
 62
     7
 10
176.931766016
 20
318.5425361839
 30
0.0
 40
14.0
 50
300.3820657473
 51
319.9903928899
  0
ARC
  5
13A
  8
0
  6
CONTINUOUS
 62
     7
 10
153.3934756666
 20
295.571878615
 30
0.0
 40
32.49900000000004
 50
16.4160772692
 51
19.5839227308
  0
ARC
  5
13B
  8
0
  6
CONTINUOUS
 62
     7
 10
185.9381663323
 20
290.8236862013
 30
0.0
 40
14.00000000000002
 50
76.0096071101
 51
95.6179342527
  0
ARC
  5
13C
  8
0
  6
CONTINUOUS
 62
     7
 10
153.3934756666
 20
295.571878615
 30
0.0
 40
37.00000000000004
 50
11.8970996251
 51
13.8171860891
  0
ARC
  5
13D
  8
0
  6
CONTINUOUS
 62
     7
 10
180.6550652934
 20
313.970464233
 30
0.0
 40
14.00000000000004
 50
290.0963514615
 51
309.7046786042
  0
ARC
  5
13E
  8
0
  6
CONTINUOUS
 62
     7
 10
153.3934756666
 20
295.571878615
 30
0.0
 40
32.49900000000001
 50
6.1303629835
 51
9.2982084451
  0
ARC
  5
13F
  8
0
  6
CONTINUOUS
 62
     7
 10
184.5673372711
 20
285.0889126993
 30
0.0
 40
14.00000000000001
 50
65.7238928244
 51
85.332219967
  0
ARC
  5
140
  8
0
  6
CONTINUOUS
 62
     7
 10
153.3934756666
 20
295.571878615
 30
0.0
 40
37.0
 50
1.6113853394
 51
3.5314718034
  0
ARC
  5
141
  8
0
  6
CONTINUOUS
 62
     7
 10
183.5021546493
 20
308.8070466019
 30
0.0
 40
14.00000000000004
 50
279.8106371758
 51
299.4189643185
  0
ARC
  5
142
  8
0
  6
CONTINUOUS
 62
     7
 10
153.3934756666
 20
295.571878615
 30
0.0
 40
32.49900000000002
 50
355.8446486978
 51
359.0124941594
  0
ARC
  5
143
  8
0
  6
CONTINUOUS
 62
     7
 10
182.1945546479
 20
279.6910703473
 30
0.0
 40
14.00000000000003
 50
55.4381785387
 51
75.0465056813
  0
ARC
  5
144
  8
0
  6
CONTINUOUS
 62
     7
 10
153.3934756666
 20
295.571878615
 30
0.0
 40
37.00000000000001
 50
351.3256710537
 51
353.2457575177
  0
ARC
  5
145
  8
0
  6
CONTINUOUS
 62
     7
 10
185.3815262891
 20
303.2182397817
 30
0.0
 40
14.00000000000003
 50
269.5249228901
 51
289.1332500328
  0
ARC
  5
146
  8
0
  6
CONTINUOUS
 62
     7
 10
153.3934756666
 20
295.571878615
 30
0.0
 40
32.499
 50
345.5589344121
 51
348.7267798737
  0
ARC
  5
147
  8
0
  6
CONTINUOUS
 62
     7
 10
178.8960816487
 20
274.8036502398
 30
0.0
 40
13.99999999999999
 50
45.1524642529
 51
64.7607913956
  0
ARC
  5
148
  8
0
  6
CONTINUOUS
 62
     7
 10
153.3934756666
 20
295.571878615
 30
0.0
 40
37.00000000000001
 50
341.039956768
 51
342.960043232
  0
ARC
  5
149
  8
0
  6
CONTINUOUS
 62
     7
 10
186.2327756622
 20
297.3836726222
 30
0.0
 40
14.0
 50
259.2392086044
 51
278.8475357471
  0
ARC
  5
14A
  8
0
  6
CONTINUOUS
 62
     7
 10
153.3934756666
 20
295.571878615
 30
0.0
 40
32.49899999999999
 50
335.2732201263
 51
338.441065588
  0
ARC
  5
14B
  8
0
  6
CONTINUOUS
 62
     7
 10
174.7779339096
 20
270.5837380804
 30
0.0
 40
14.00000000000001
 50
34.8667499672
 51
54.4750771099
  0
ARC
  5
14C
  8
0
  6
CONTINUOUS
 62
     7
 10
153.3934756666
 20
295.571878615
 30
0.0
 40
36.99999999999999
 50
330.7542424823
 51
332.6743289463
  0
ARC
  5
14D
  8
0
  6
CONTINUOUS
 62
     7
 10
186.028542913
 20
291.4908729126
 30
0.0
 40
13.99999999999998
 50
248.9534943187
 51
268.5618214613
  0
ARC
  5
14E
  8
0
  6
CONTINUOUS
 62
     7
 10
153.3934756666
 20
295.571878615
 30
0.0
 40
32.499
 50
324.9875058406
 51
328.1553513022
  0
ARC
  5
14F
  8
0
  6
CONTINUOUS
 62
     7
 10
169.9724720874
 20
267.1669653181
 30
0.0
 40
13.99999999999999
 50
24.5810356815
 51
44.1893628242
  0
ARC
  5
150
  8
0
  6
CONTINUOUS
 62
     7
 10
153.3934756666
 20
295.571878615
 30
0.0
 40
37.0
 50
320.4685281966
 51
322.3886146606
  0
ARC
  5
151
  8
0
  6
CONTINUOUS
 62
     7
 10
184.7753922504
 20
285.7292400841
 30
0.0
 40
13.99999999999998
 50
238.667780033
 51
258.2761071756
  0
ARC
  5
152
  8
0
  6
CONTINUOUS
 62
     7
 10
153.3934756666
 20
295.571878615
 30
0.0
 40
32.499
 50
314.7017915549
 51
317.8696370165
  0
ARC
  5
153
  8
0
  6
CONTINUOUS
 62
     7
 10
164.634147679
 20
264.6631498408
 30
0.0
 40
14.00000000000001
 50
14.2953213958
 51
33.9036485385
  0
ARC
  5
154
  8
0
  6
CONTINUOUS
 62
     7
 10
153.3934756666
 20
295.571878615
 30
0.0
 40
37.0
 50
310.1828139109
 51
312.1029003749
  0
ARC
  5
155
  8
0
  6
CONTINUOUS
 62
     7
 10
182.5136009676
 20
280.2839577565
 30
0.0
 40
14.0
 50
228.3820657473
 51
247.9903928899
  0
ARC
  5
156
  8
0
  6
CONTINUOUS
 62
     7
 10
153.3934756666
 20
295.571878615
 30
0.0
 40
32.499
 50
304.4160772692
 51
307.5839227308
  0
ARC
  5
157
  8
0
  6
CONTINUOUS
 62
     7
 10
158.9345388233
 20
263.1527663381
 30
0.0
 40
14.00000000000001
 50
4.0096071101
 51
23.6179342527
  0
ARC
  5
158
  8
0
  6
CONTINUOUS
 62
     7
 10
153.3934756666
 20
295.571878615
 30
0.0
 40
36.99999999999996
 50
299.8970996251
 51
301.8171860891
  0
ARC
  5
159
  8
0
  6
CONTINUOUS
 62
     7
 10
179.3158648976
 20
275.3300417842
 30
0.0
 40
13.99999999999999
 50
218.0963514615
 51
237.7046786042
  0
ARC
  5
15A
  8
0
  6
CONTINUOUS
 62
     7
 10
153.3934756666
 20
295.571878615
 30
0.0
 40
32.49899999999996
 50
294.1303629835
 51
297.2982084451
  0
ARC
  5
15B
  8
0
  6
CONTINUOUS
 62
     7
 10
153.0568356385
 20
262.6843597785
 30
0.0
 40
14.00000000000002
 50
353.7238928244
 51
13.332219967
  0
ARC
  5
15C
  8
0
  6
CONTINUOUS
 62
     7
 10
153.3934756666
 20
295.571878615
 30
0.0
 40
37.0
 50
289.6113853394
 51
291.5314718034
  0
ARC
  5
15D
  8
0
  6
CONTINUOUS
 62
     7
 10
175.2849619086
 20
271.0267151028
 30
0.0
 40
14.00000000000003
 50
207.8106371758
 51
227.4189643185
  0
ARC
  5
15E
  8
0
  6
CONTINUOUS
 62
     7
 10
153.3934756666
 20
295.571878615
 30
0.0
 40
32.499
 50
283.8446486978
 51
287.0124941594
  0
ARC
  5
15F
  8
0
  6
CONTINUOUS
 62
     7
 10
147.1899523412
 20
263.2729851343
 30
0.0
 40
13.99999999999999
 50
343.4381785387
 51
3.0465056813
  0
ARC
  5
160
  8
0
  6
CONTINUOUS
 62
     7
 10
153.3934756666
 20
295.571878615
 30
0.0
 40
36.99999999999997
 50
279.3256710537
 51
281.2457575177
  0
ARC
  5
161
  8
0
  6
CONTINUOUS
 62
     7
 10
170.5504485394
 20
267.5122901724
 30
0.0
 40
14.00000000000002
 50
197.5249228901
 51
217.1332500328
  0
ARC
  5
162
  8
0
  6
CONTINUOUS
 62
     7
 10
153.3934756666
 20
295.571878615
 30
0.0
 40
32.49899999999996
 50
273.5589344121
 51
276.7267798737
  0
ARC
  5
163
  8
0
  6
CONTINUOUS
 62
     7
 10
141.5224553878
 20
264.8997235021
 30
0.0
 40
14.00000000000002
 50
333.1524642529
 51
352.7607913956
  0
ARC
  5
164
  8
0
  6
CONTINUOUS
 62
     7
 10
153.3934756666
 20
295.571878615
 30
0.0
 40
36.99999999999996
 50
269.039956768
 51
270.960043232
  0
ARC
  5
165
  8
0
  6
CONTINUOUS
 62
     7
 10
165.2644959453
 20
264.8997235021
 30
0.0
 40
14.00000000000001
 50
187.2392086044
 51
206.8475357471
  0
ARC
  5
166
  8
0
  6
CONTINUOUS
 62
     7
 10
153.3934756666
 20
295.571878615
 30
0.0
 40
32.49899999999995
 50
263.2732201263
 51
266.441065588
  0
ARC
  5
167
  8
0
  6
CONTINUOUS
 62
     7
 10
136.2365027937
 20
267.5122901724
 30
0.0
 40
14.0
 50
322.8667499672
 51
342.4750771099
  0
ARC
  5
168
  8
0
  6
CONTINUOUS
 62
     7
 10
153.3934756666
 20
295.571878615
 30
0.0
 40
36.99999999999997
 50
258.7542424823
 51
260.6743289463
  0
ARC
  5
169
  8
0
  6
CONTINUOUS
 62
     7
 10
159.596998992
 20
263.2729851343
 30
0.0
 40
14.0
 50
176.9534943187
 51
196.5618214613
  0
ARC
  5
16A
  8
0
  6
CONTINUOUS
 62
     7
 10
153.3934756666
 20
295.571878615
 30
0.0
 40
32.499
 50
252.9875058406
 51
256.1553513022
  0
ARC
  5
16B
  8
0
  6
CONTINUOUS
 62
     7
 10
131.5019894245
 20
271.0267151028
 30
0.0
 40
13.99999999999998
 50
312.5810356815
 51
332.1893628242
  0
ARC
  5
16C
  8
0
  6
CONTINUOUS
 62
     7
 10
153.3934756666
 20
295.571878615
 30
0.0
 40
36.99999999999996
 50
248.4685281966
 51
250.3886146606
  0
ARC
  5
16D
  8
0
  6
CONTINUOUS
 62
     7
 10
153.7301156947
 20
262.6843597785
 30
0.0
 40
14.00000000000001
 50
166.667780033
 51
186.2761071756
  0
ARC
  5
16E
  8
0
  6
CONTINUOUS
 62
     7
 10
153.3934756666
 20
295.571878615
 30
0.0
 40
32.49899999999998
 50
242.7017915549
 51
245.8696370165
  0
ARC
  5
16F
  8
0
  6
CONTINUOUS
 62
     7
 10
127.4710864356
 20
275.3300417842
 30
0.0
 40
13.99999999999999
 50
302.2953213958
 51
321.9036485385
  0
ARC
  5
170
  8
0
  6
CONTINUOUS
 62
     7
 10
153.3934756666
 20
295.571878615
 30
0.0
 40
36.99999999999996
 50
238.1828139109
 51
240.1029003749
  0
ARC
  5
171
  8
0
  6
CONTINUOUS
 62
     7
 10
147.8524125099
 20
263.1527663381
 30
0.0
 40
13.99999999999999
 50
156.3820657473
 51
175.9903928899
  0
ARC
  5
172
  8
0
  6
CONTINUOUS
 62
     7
 10
153.3934756666
 20
295.571878615
 30
0.0
 40
32.49900000000001
 50
232.4160772692
 51
235.5839227308
  0
ARC
  5
173
  8
0
  6
CONTINUOUS
 62
     7
 10
124.2733503655
 20
280.2839577565
 30
0.0
 40
14.00000000000005
 50
292.0096071101
 51
311.6179342527
  0
ARC
  5
174
  8
0
  6
CONTINUOUS
 62
     7
 10
153.3934756666
 20
295.571878615
 30
0.0
 40
36.99999999999999
 50
227.8970996251
 51
229.8171860891
  0
ARC
  5
175
  8
0
  6
CONTINUOUS
 62
     7
 10
142.1528036541
 20
264.6631498408
 30
0.0
 40
13.99999999999999
 50
146.0963514615
 51
165.7046786042
  0
ARC
  5
176
  8
0
  6
CONTINUOUS
 62
     7
 10
153.3934756666
 20
295.571878615
 30
0.0
 40
32.49899999999997
 50
222.1303629835
 51
225.2982084451
  0
ARC
  5
177
  8
0
  6
CONTINUOUS
 62
     7
 10
122.0115590827
 20
285.7292400841
 30
0.0
 40
14.00000000000002
 50
281.7238928244
 51
301.332219967
  0
ARC
  5
178
  8
0
  6
CONTINUOUS
 62
     7
 10
153.3934756666
 20
295.571878615
 30
0.0
 40
36.99999999999997
 50
217.6113853394
 51
219.5314718034
  0
ARC
  5
179
  8
0
  6
CONTINUOUS
 62
     7
 10
136.8144792457
 20
267.1669653181
 30
0.0
 40
14.00000000000002
 50
135.8106371758
 51
155.4189643185
  0
ARC
  5
17A
  8
0
  6
CONTINUOUS
 62
     7
 10
153.3934756666
 20
295.571878615
 30
0.0
 40
32.49899999999997
 50
211.8446486978
 51
215.0124941594
  0
ARC
  5
17B
  8
0
  6
CONTINUOUS
 62
     7
 10
120.7584084201
 20
291.4908729126
 30
0.0
 40
14.00000000000005
 50
271.4381785387
 51
291.0465056813
  0
ARC
  5
17C
  8
0
  6
CONTINUOUS
 62
     7
 10
153.3934756666
 20
295.571878615
 30
0.0
 40
36.99999999999998
 50
207.3256710537
 51
209.2457575177
  0
ARC
  5
17D
  8
0
  6
CONTINUOUS
 62
     7
 10
132.0090174235
 20
270.5837380804
 30
0.0
 40
13.99999999999999
 50
125.5249228901
 51
145.1332500328
  0
ARC
  5
17E
  8
0
  6
CONTINUOUS
 62
     7
 10
153.3934756666
 20
295.571878615
 30
0.0
 40
32.49899999999999
 50
201.5589344121
 51
204.7267798737
  0
ARC
  5
17F
  8
0
  6
CONTINUOUS
 62
     7
 10
120.554175671
 20
297.3836726222
 30
0.0
 40
13.99999999999998
 50
261.1524642529
 51
280.7607913956
  0
ARC
  5
180
  8
0
  6
CONTINUOUS
 62
     7
 10
153.3934756666
 20
295.571878615
 30
0.0
 40
36.99999999999999
 50
197.039956768
 51
198.960043232
  0
ARC
  5
181
  8
0
  6
CONTINUOUS
 62
     7
 10
127.8908696844
 20
274.8036502398
 30
0.0
 40
13.99999999999999
 50
115.2392086044
 51
134.8475357471
  0
ARC
  5
182
  8
0
  6
CONTINUOUS
 62
     7
 10
153.3934756666
 20
295.571878615
 30
0.0
 40
32.49899999999999
 50
191.2732201263
 51
194.441065588
  0
ARC
  5
183
  8
0
  6
CONTINUOUS
 62
     7
 10
121.405425044
 20
303.2182397817
 30
0.0
 40
14.00000000000002
 50
250.8667499672
 51
270.4750771099
  0
ARC
  5
184
  8
0
  6
CONTINUOUS
 62
     7
 10
153.3934756666
 20
295.571878615
 30
0.0
 40
37.0
 50
186.7542424823
 51
188.6743289463
  0
ARC
  5
185
  8
0
  6
CONTINUOUS
 62
     7
 10
124.5923966852
 20
279.6910703473
 30
0.0
 40
14.00000000000002
 50
104.9534943187
 51
124.5618214613
  0
ARC
  5
186
  8
0
  6
CONTINUOUS
 62
     7
 10
153.3934756666
 20
295.571878615
 30
0.0
 40
32.49899999999998
 50
180.9875058406
 51
184.1553513022
  0
ARC
  5
187
  8
0
  6
CONTINUOUS
 62
     7
 10
123.2847966839
 20
308.8070466019
 30
0.0
 40
14.00000000000007
 50
240.5810356815
 51
260.1893628242
  0
LINE
  5
188
  8
0
  6
CONTINUOUS
 62
     7
 10
141.3934756666
 20
301.571878615
 30
0.0
 11
131.5934756666
 21
301.571878615
 31
0.0
  0
LINE
  5
189
  8
0
  6
CONTINUOUS
 62
     7
 10
131.5934756666
 20
301.571878615
 30
0.0
 11
131.5934756666
 21
289.571878615
 31
0.0
  0
LINE
  5
18A
  8
0
  6
CONTINUOUS
 62
     7
 10
131.5934756666
 20
289.571878615
 30
0.0
 11
141.3934756666
 21
289.571878615
 31
0.0
  0
LINE
  5
18B
  8
0
  6
CONTINUOUS
 62
     7
 10
141.3934756666
 20
289.571878615
 30
0.0
 11
141.3934756666
 21
301.571878615
 31
0.0
  0
LINE
  5
18C
  8
0
  6
CONTINUOUS
 62
     7
 10
37.2439633648
 20
407.73537002
 30
0.0
 11
37.2439633648
 21
387.93537002
 31
0.0
  0
LINE
  5
18D
  8
0
  6
CONTINUOUS
 62
     7
 10
37.2439633648
 20
387.93537002
 30
0.0
 11
78.7439633648
 21
387.93537002
 31
0.0
  0
LINE
  5
18E
  8
0
  6
CONTINUOUS
 62
     7
 10
78.7439633648
 20
407.73537002
 30
0.0
 11
78.7439633648
 21
387.93537002
 31
0.0
  0
LINE
  5
18F
  8
0
  6
CONTINUOUS
 62
     7
 10
37.2439633648
 20
407.73537002
 30
0.0
 11
78.7439633648
 21
407.73537002
 31
0.0
  0
CIRCLE
  5
190
  8
0
  6
CONTINUOUS
 62
     7
 10
51.4392938352
 20
364.5130395497
 30
0.0
 40
2.999999999999993
  0
CIRCLE
  5
191
  8
0
  6
CONTINUOUS
 62
     7
 10
51.4392938352
 20
329.1577004903
 30
0.0
 40
3.000000000000007
  0
CIRCLE
  5
192
  8
0
  6
CONTINUOUS
 62
     7
 10
86.7946328945
 20
329.1577004903
 30
0.0
 40
3.0
  0
CIRCLE
  5
193
  8
0
  6
CONTINUOUS
 62
     7
 10
86.7946328945
 20
364.5130395497
 30
0.0
 40
3.0
  0
CIRCLE
  5
194
  8
0
  6
CONTINUOUS
 62
     7
 10
69.1169633648
 20
346.83537002
 30
0.0
 40
2.5
  0
CIRCLE
  5
195
  8
0
  6
CONTINUOUS
 62
     7
 10
33.1439633648
 20
402.83537002
 30
0.0
 40
2.000000000000007
  0
CIRCLE
  5
196
  8
0
  6
CONTINUOUS
 62
     7
 10
38.7113717738
 20
316.429778429
 30
0.0
 40
3.0
  0
CIRCLE
  5
197
  8
0
  6
CONTINUOUS
 62
     7
 10
99.5225549559
 20
316.429778429
 30
0.0
 40
2.999999999999986
  0
CIRCLE
  5
198
  8
0
  6
CONTINUOUS
 62
     7
 10
99.5225549559
 20
377.240961611
 30
0.0
 40
3.000000000000085
  0
CIRCLE
  5
199
  8
0
  6
CONTINUOUS
 62
     7
 10
38.7113717738
 20
377.240961611
 30
0.0
 40
3.0
  0
CIRCLE
  5
19A
  8
0
  6
CONTINUOUS
 62
     7
 10
33.1439633648
 20
392.83537002
 30
0.0
 40
2.000000000000014
  0
CIRCLE
  5
19B
  8
0
  6
CONTINUOUS
 62
     7
 10
81.9439633648
 20
392.83537002
 30
0.0
 40
2.000000000000014
  0
CIRCLE
  5
19C
  8
0
  6
CONTINUOUS
 62
     7
 10
81.9439633648
 20
402.83537002
 30
0.0
 40
2.000000000000014
  0
LINE
  5
19D
  8
0
  6
CONTINUOUS
 62
     7
 10
119.1169633648
 20
346.83537002
 30
0.0
 11
119.1169633648
 21
416.83537002
 31
0.0
  0
ARC
  5
19E
  8
0
  6
CONTINUOUS
 62
     7
 10
69.1169633648
 20
346.83537002
 30
0.0
 40
50.0
 50
180.0
 51
0.0
  0
LINE
  5
19F
  8
0
  6
CONTINUOUS
 62
     7
 10
19.1169633648
 20
416.83537002
 30
0.0
 11
19.1169633648
 21
346.83537002
 31
0.0
  0
LINE
  5
1A0
  8
0
  6
CONTINUOUS
 62
     7
 10
19.1169633648
 20
416.83537002
 30
0.0
 11
119.1169633648
 21
416.83537002
 31
0.0
  0
ENDSEC
  0
EOF
